STARTFONT 2.1
COMMENT
COMMENT Converted from TrueType font "Junicode-Regular.ttf" by "TTF2BDF 2.6".
COMMENT
FONT -FreeType-Junicode-Medium-R-Normal--17-120-100-100-P-86-ISO10646-1
SIZE 12 100 100
FONTBOUNDINGBOX 37 26 -11 -7
STARTPROPERTIES 25
FOUNDRY "FreeType"
FAMILY_NAME "Junicode"
WEIGHT_NAME "Medium"
SLANT "R"
SETWIDTH_NAME "Normal"
ADD_STYLE_NAME ""
PIXEL_SIZE 17
POINT_SIZE 120
RESOLUTION_X 100
RESOLUTION_Y 100
SPACING "P"
AVERAGE_WIDTH 86
CHARSET_REGISTRY "ISO10646"
CHARSET_ENCODING "1"
FONT_ASCENT 15
FONT_DESCENT 3
COPYRIGHT "Copyright (c) 1998-2007 by Peter S. Baker"
_TTF_FONTFILE "Junicode-Regular.ttf"
_TTF_PSNAME "Junicode-Regular"
_XFREE86_GLYPH_RANGES "0 12 32_126 160_544 546_563 567 584_585 592_685 688_750 768_846 848_855 857 859_879 894 900_906 908 910_929 931_974 976_977 981_983 987 1008 4347 5792_5872 7424_7531 7680_7835 7840_7929 7936_7957 7960_7965 7968_8005 8008_8013 8016_8023 8025 8027 8029 8031_8061 8064_8116 8118_8124 8126_8132 8134_8147 8150_8155 8157_8175 8178_8180 8182_8190 8192_8205 8208_8231 8239_8274 8279_8280 8284 8304_8305 8308_8334 8364 8413 8456 8468 8478_8479 8482_8483 8485_8486 8498 8526 8531_8580 8706 8710"
_XFREE86_GLYPH_RANGES "8719 8721_8722 8730 8734 8747 8756_8757 8759 8763 8776 8800 8804_8805 8919 9001_9002 9312_9471 9674 9756_9759 10086_10087 10102_10111 10214_10217 11005 11377_11379 11381_11382 11776 11788_11789 11804_11805 57354 57360 57381 57398 57402 57405 57407_57412 57446 57462_57463 57487 57497 57527 57532 57544 57553 57576_57580 57582 57584 57601 57622 57642 57653 57655 57667 57680_57684 57692 57698_57699 57704 57737_57738 57740 57750 57758 57766_57773 57776 57784 57810 57820 57864 57868 57883"

STARTCHAR 0000
ENCODING 0
SWIDTH 0 0
DWIDTH 0 0
BBX 1 1 0 0
BITMAP
00
ENDCHAR
STARTCHAR 000C
ENCODING 12
SWIDTH 300 0
DWIDTH 5 0
BBX 1 1 0 0
BITMAP
00
ENDCHAR
STARTCHAR 0020
ENCODING 32
SWIDTH 240 0
DWIDTH 4 0
BBX 1 1 0 0
BITMAP
00
ENDCHAR
STARTCHAR 0021
ENCODING 33
SWIDTH 240 0
DWIDTH 4 0
BBX 2 12 1 0
BITMAP
40
C0
C0
40
40
40
40
80
00
00
C0
C0
ENDCHAR
STARTCHAR 0022
ENCODING 34
SWIDTH 360 0
DWIDTH 6 0
BBX 4 4 1 8
BITMAP
D0
90
90
90
ENDCHAR
STARTCHAR 0023
ENCODING 35
SWIDTH 480 0
DWIDTH 8 0
BBX 8 10 0 0
BITMAP
02
12
7F
14
24
24
FE
48
48
48
ENDCHAR
STARTCHAR 0024
ENCODING 36
SWIDTH 480 0
DWIDTH 8 0
BBX 6 13 1 -1
BITMAP
10
7C
94
90
D0
70
3C
1C
14
94
94
78
10
ENDCHAR
STARTCHAR 0025
ENCODING 37
SWIDTH 900 0
DWIDTH 15 0
BBX 13 13 1 -1
BITMAP
2000
D040
8880
8880
8900
8A70
5248
2488
0488
0888
10C8
1050
0020
ENDCHAR
STARTCHAR 0026
ENCODING 38
SWIDTH 840 0
DWIDTH 14 0
BBX 12 11 1 0
BITMAP
3C00
4400
6400
38F0
3860
4C40
8680
8300
8100
C280
7CF0
ENDCHAR
STARTCHAR 0027
ENCODING 39
SWIDTH 180 0
DWIDTH 3 0
BBX 2 4 1 8
BITMAP
C0
80
80
80
ENDCHAR
STARTCHAR 0028
ENCODING 40
SWIDTH 300 0
DWIDTH 5 0
BBX 4 15 1 -3
BITMAP
10
20
40
40
40
C0
80
80
C0
40
40
40
20
20
10
ENDCHAR
STARTCHAR 0029
ENCODING 41
SWIDTH 300 0
DWIDTH 5 0
BBX 4 16 0 -3
BITMAP
80
40
20
20
10
10
10
10
10
10
10
10
20
20
40
80
ENDCHAR
STARTCHAR 002A
ENCODING 42
SWIDTH 360 0
DWIDTH 6 0
BBX 5 5 1 6
BITMAP
20
F0
60
B8
20
ENDCHAR
STARTCHAR 002B
ENCODING 43
SWIDTH 480 0
DWIDTH 8 0
BBX 7 7 1 0
BITMAP
10
10
10
FE
10
10
10
ENDCHAR
STARTCHAR 002C
ENCODING 44
SWIDTH 240 0
DWIDTH 4 0
BBX 2 5 1 -3
BITMAP
C0
C0
40
40
80
ENDCHAR
STARTCHAR 002D
ENCODING 45
SWIDTH 360 0
DWIDTH 6 0
BBX 5 1 1 4
BITMAP
F8
ENDCHAR
STARTCHAR 002E
ENCODING 46
SWIDTH 240 0
DWIDTH 4 0
BBX 2 2 1 0
BITMAP
C0
C0
ENDCHAR
STARTCHAR 002F
ENCODING 47
SWIDTH 300 0
DWIDTH 5 0
BBX 6 12 0 0
BITMAP
04
08
08
08
10
10
20
20
40
40
40
80
ENDCHAR
STARTCHAR 0030
ENCODING 48
SWIDTH 420 0
DWIDTH 7 0
BBX 6 11 1 0
BITMAP
78
C8
84
84
84
84
84
84
84
CC
78
ENDCHAR
STARTCHAR 0031
ENCODING 49
SWIDTH 420 0
DWIDTH 7 0
BBX 4 11 2 0
BITMAP
60
A0
20
20
20
20
20
20
20
60
70
ENDCHAR
STARTCHAR 0032
ENCODING 50
SWIDTH 420 0
DWIDTH 7 0
BBX 7 11 0 0
BITMAP
3C
46
06
06
04
0C
08
10
20
42
FE
ENDCHAR
STARTCHAR 0033
ENCODING 51
SWIDTH 420 0
DWIDTH 7 0
BBX 6 12 1 -1
BITMAP
70
88
08
08
10
38
0C
0C
0C
88
D0
20
ENDCHAR
STARTCHAR 0034
ENCODING 52
SWIDTH 420 0
DWIDTH 7 0
BBX 7 11 0 0
BITMAP
04
08
10
14
24
44
84
FE
04
04
0C
ENDCHAR
STARTCHAR 0035
ENCODING 53
SWIDTH 420 0
DWIDTH 7 0
BBX 6 11 1 0
BITMAP
7C
40
40
80
78
0C
0C
04
08
88
F0
ENDCHAR
STARTCHAR 0036
ENCODING 54
SWIDTH 420 0
DWIDTH 7 0
BBX 6 11 1 0
BITMAP
08
30
20
40
C0
B8
CC
84
84
C4
78
ENDCHAR
STARTCHAR 0037
ENCODING 55
SWIDTH 420 0
DWIDTH 7 0
BBX 6 11 1 0
BITMAP
FC
84
04
08
08
10
10
10
20
20
40
ENDCHAR
STARTCHAR 0038
ENCODING 56
SWIDTH 420 0
DWIDTH 7 0
BBX 6 12 1 -1
BITMAP
78
8C
84
C8
68
30
48
84
84
84
68
10
ENDCHAR
STARTCHAR 0039
ENCODING 57
SWIDTH 420 0
DWIDTH 7 0
BBX 6 11 1 0
BITMAP
78
8C
84
84
84
FC
0C
08
10
20
40
ENDCHAR
STARTCHAR 003A
ENCODING 58
SWIDTH 240 0
DWIDTH 4 0
BBX 2 7 2 0
BITMAP
C0
C0
00
00
00
80
C0
ENDCHAR
STARTCHAR 003B
ENCODING 59
SWIDTH 240 0
DWIDTH 4 0
BBX 2 10 2 -3
BITMAP
80
80
00
00
00
C0
C0
40
80
80
ENDCHAR
STARTCHAR 003C
ENCODING 60
SWIDTH 480 0
DWIDTH 8 0
BBX 7 7 1 0
BITMAP
06
18
60
80
60
18
06
ENDCHAR
STARTCHAR 003D
ENCODING 61
SWIDTH 480 0
DWIDTH 8 0
BBX 7 3 1 3
BITMAP
FE
00
FE
ENDCHAR
STARTCHAR 003E
ENCODING 62
SWIDTH 480 0
DWIDTH 8 0
BBX 7 7 1 0
BITMAP
80
60
18
06
18
60
80
ENDCHAR
STARTCHAR 003F
ENCODING 63
SWIDTH 360 0
DWIDTH 6 0
BBX 3 11 2 0
BITMAP
C0
20
20
20
60
C0
80
00
00
80
C0
ENDCHAR
STARTCHAR 0040
ENCODING 64
SWIDTH 720 0
DWIDTH 12 0
BBX 11 12 1 -1
BITMAP
1FC0
2020
4120
8F20
8920
9220
9220
9FC0
C000
4000
3180
0E00
ENDCHAR
STARTCHAR 0041
ENCODING 65
SWIDTH 660 0
DWIDTH 11 0
BBX 11 11 0 0
BITMAP
0600
0A00
0A00
0B00
1100
1100
1F80
2080
2080
40C0
F1E0
ENDCHAR
STARTCHAR 0042
ENCODING 66
SWIDTH 600 0
DWIDTH 10 0
BBX 8 12 1 -1
BITMAP
7E
62
63
62
66
7E
63
61
61
63
F6
08
ENDCHAR
STARTCHAR 0043
ENCODING 67
SWIDTH 660 0
DWIDTH 11 0
BBX 10 12 1 -1
BITMAP
3F80
6080
C000
C000
8000
8000
8000
C000
C040
6040
1980
0600
ENDCHAR
STARTCHAR 0044
ENCODING 68
SWIDTH 720 0
DWIDTH 12 0
BBX 11 12 1 -1
BITMAP
7F00
60C0
6040
6060
6060
6060
6060
6040
60C0
6080
F700
0800
ENDCHAR
STARTCHAR 0045
ENCODING 69
SWIDTH 600 0
DWIDTH 10 0
BBX 9 11 1 0
BITMAP
7F00
6100
6100
6000
6400
7C00
6400
6000
6080
6080
FF80
ENDCHAR
STARTCHAR 0046
ENCODING 70
SWIDTH 540 0
DWIDTH 9 0
BBX 8 11 1 0
BITMAP
7F
61
60
64
64
7C
64
64
60
60
F0
ENDCHAR
STARTCHAR 0047
ENCODING 71
SWIDTH 660 0
DWIDTH 11 0
BBX 10 12 1 -1
BITMAP
3F80
6080
4000
C000
8000
8000
83C0
C080
4080
6080
19C0
0600
ENDCHAR
STARTCHAR 0048
ENCODING 72
SWIDTH 780 0
DWIDTH 13 0
BBX 12 11 1 0
BITMAP
60E0
6040
6040
6040
6040
7FC0
6040
6040
6040
6040
F0F0
ENDCHAR
STARTCHAR 0049
ENCODING 73
SWIDTH 300 0
DWIDTH 5 0
BBX 4 11 1 0
BITMAP
60
60
60
60
60
60
60
60
60
60
F0
ENDCHAR
STARTCHAR 004A
ENCODING 74
SWIDTH 300 0
DWIDTH 5 0
BBX 5 14 -1 -3
BITMAP
18
18
18
18
18
18
18
18
18
18
18
10
10
E0
ENDCHAR
STARTCHAR 004B
ENCODING 75
SWIDTH 660 0
DWIDTH 11 0
BBX 10 11 1 0
BITMAP
6300
6200
6400
6800
7000
7800
6C00
6400
6200
6300
F3C0
ENDCHAR
STARTCHAR 004C
ENCODING 76
SWIDTH 660 0
DWIDTH 11 0
BBX 10 11 1 0
BITMAP
6000
6000
6000
6000
6000
6000
6000
6000
6040
60C0
FFC0
ENDCHAR
STARTCHAR 004D
ENCODING 77
SWIDTH 900 0
DWIDTH 15 0
BBX 14 11 1 0
BITMAP
6018
6030
7030
5050
5850
4890
4890
4510
4510
4610
E23C
ENDCHAR
STARTCHAR 004E
ENCODING 78
SWIDTH 720 0
DWIDTH 12 0
BBX 10 11 1 0
BITMAP
E040
6040
5040
5840
4C40
4640
4240
4340
41C0
40C0
E040
ENDCHAR
STARTCHAR 004F
ENCODING 79
SWIDTH 720 0
DWIDTH 12 0
BBX 10 12 1 -1
BITMAP
3F00
4080
C0C0
C040
8040
8040
8040
C040
C0C0
6080
3B00
0400
ENDCHAR
STARTCHAR 0050
ENCODING 80
SWIDTH 540 0
DWIDTH 9 0
BBX 8 11 1 0
BITMAP
7E
63
61
61
63
6E
70
60
60
60
F0
ENDCHAR
STARTCHAR 0051
ENCODING 81
SWIDTH 720 0
DWIDTH 12 0
BBX 13 14 1 -3
BITMAP
3F00
4080
C0C0
8040
8040
8040
8040
C040
C0C0
6080
3300
0F00
01C0
0038
ENDCHAR
STARTCHAR 0052
ENCODING 82
SWIDTH 660 0
DWIDTH 11 0
BBX 10 11 1 0
BITMAP
7E00
6100
6100
6100
6100
6E00
7400
6600
6300
6180
F0C0
ENDCHAR
STARTCHAR 0053
ENCODING 83
SWIDTH 480 0
DWIDTH 8 0
BBX 7 12 1 -1
BITMAP
7C
84
80
C0
70
3C
06
02
82
84
6C
10
ENDCHAR
STARTCHAR 0054
ENCODING 84
SWIDTH 780 0
DWIDTH 13 0
BBX 13 11 0 0
BITMAP
FFF8
8208
8208
0200
0200
0200
0200
0200
0200
0200
0F80
ENDCHAR
STARTCHAR 0055
ENCODING 85
SWIDTH 720 0
DWIDTH 12 0
BBX 10 12 1 -1
BITMAP
E0C0
4040
4040
4040
4040
4040
4040
6040
6080
2080
3B00
0400
ENDCHAR
STARTCHAR 0056
ENCODING 86
SWIDTH 600 0
DWIDTH 10 0
BBX 9 11 1 0
BITMAP
C180
4100
4100
6200
2200
2200
3400
1400
1800
1800
0800
ENDCHAR
STARTCHAR 0057
ENCODING 87
SWIDTH 960 0
DWIDTH 16 0
BBX 15 11 1 0
BITMAP
CE46
4684
6284
6388
2308
3110
1190
1AA0
0CE0
0C40
0040
ENDCHAR
STARTCHAR 0058
ENCODING 88
SWIDTH 660 0
DWIDTH 11 0
BBX 11 11 0 0
BITMAP
70C0
3080
1900
0A00
0C00
0600
0A00
1300
2100
2080
F1E0
ENDCHAR
STARTCHAR 0059
ENCODING 89
SWIDTH 600 0
DWIDTH 10 0
BBX 9 11 1 0
BITMAP
C180
4100
6200
2400
3400
1800
1800
1800
1800
1800
3C00
ENDCHAR
STARTCHAR 005A
ENCODING 90
SWIDTH 600 0
DWIDTH 10 0
BBX 9 11 1 0
BITMAP
FF80
8300
8200
0600
0C00
1800
1000
3000
6080
4080
FF80
ENDCHAR
STARTCHAR 005B
ENCODING 91
SWIDTH 360 0
DWIDTH 6 0
BBX 4 16 2 -3
BITMAP
F0
C0
C0
C0
C0
C0
C0
C0
C0
C0
C0
C0
C0
C0
C0
F0
ENDCHAR
STARTCHAR 005C
ENCODING 92
SWIDTH 300 0
DWIDTH 5 0
BBX 6 12 0 0
BITMAP
80
40
40
40
20
20
10
10
08
08
08
04
ENDCHAR
STARTCHAR 005D
ENCODING 93
SWIDTH 360 0
DWIDTH 6 0
BBX 4 16 0 -3
BITMAP
F0
10
10
10
10
10
10
10
10
10
10
10
10
10
10
F0
ENDCHAR
STARTCHAR 005E
ENCODING 94
SWIDTH 540 0
DWIDTH 9 0
BBX 7 7 1 4
BITMAP
10
28
28
44
44
C2
82
ENDCHAR
STARTCHAR 005F
ENCODING 95
SWIDTH 480 0
DWIDTH 8 0
BBX 9 1 0 -2
BITMAP
FF80
ENDCHAR
STARTCHAR 0060
ENCODING 96
SWIDTH 240 0
DWIDTH 4 0
BBX 2 3 2 9
BITMAP
80
80
40
ENDCHAR
STARTCHAR 0061
ENCODING 97
SWIDTH 360 0
DWIDTH 6 0
BBX 6 7 1 0
BITMAP
F0
90
10
30
D0
90
FC
ENDCHAR
STARTCHAR 0062
ENCODING 98
SWIDTH 480 0
DWIDTH 8 0
BBX 7 13 1 -1
BITMAP
C0
C0
C0
C0
C0
F8
C4
C6
C6
C6
C4
E8
10
ENDCHAR
STARTCHAR 0063
ENCODING 99
SWIDTH 360 0
DWIDTH 6 0
BBX 5 7 1 0
BITMAP
78
C0
80
80
80
C0
78
ENDCHAR
STARTCHAR 0064
ENCODING 100
SWIDTH 480 0
DWIDTH 8 0
BBX 7 12 1 0
BITMAP
0C
04
04
04
04
7C
84
84
84
84
C4
7E
ENDCHAR
STARTCHAR 0065
ENCODING 101
SWIDTH 360 0
DWIDTH 6 0
BBX 5 7 1 0
BITMAP
78
88
F0
80
80
C0
78
ENDCHAR
STARTCHAR 0066
ENCODING 102
SWIDTH 240 0
DWIDTH 4 0
BBX 6 12 1 0
BITMAP
3C
40
40
40
40
F0
40
40
40
40
40
C0
ENDCHAR
STARTCHAR 0067
ENCODING 103
SWIDTH 420 0
DWIDTH 7 0
BBX 8 12 0 -5
BITMAP
3F
46
44
44
38
40
7C
27
41
C1
62
3C
ENDCHAR
STARTCHAR 0068
ENCODING 104
SWIDTH 540 0
DWIDTH 9 0
BBX 7 12 1 0
BITMAP
C0
40
40
40
40
7C
44
46
46
46
46
C6
ENDCHAR
STARTCHAR 0069
ENCODING 105
SWIDTH 240 0
DWIDTH 4 0
BBX 3 11 1 -1
BITMAP
C0
00
00
C0
40
40
40
40
40
C0
20
ENDCHAR
STARTCHAR 006A
ENCODING 106
SWIDTH 240 0
DWIDTH 4 0
BBX 4 15 -1 -5
BITMAP
30
00
00
30
10
10
10
10
10
10
10
10
10
A0
C0
ENDCHAR
STARTCHAR 006B
ENCODING 107
SWIDTH 480 0
DWIDTH 8 0
BBX 7 12 1 0
BITMAP
C0
40
40
40
40
44
48
50
70
58
4C
C6
ENDCHAR
STARTCHAR 006C
ENCODING 108
SWIDTH 240 0
DWIDTH 4 0
BBX 2 12 1 0
BITMAP
C0
40
40
40
40
40
40
40
40
40
40
C0
ENDCHAR
STARTCHAR 006D
ENCODING 109
SWIDTH 780 0
DWIDTH 13 0
BBX 12 8 1 -1
BITMAP
7DC0
4620
4420
4420
4420
4420
C660
0010
ENDCHAR
STARTCHAR 006E
ENCODING 110
SWIDTH 480 0
DWIDTH 8 0
BBX 7 7 1 0
BITMAP
7C
44
44
44
44
44
C6
ENDCHAR
STARTCHAR 006F
ENCODING 111
SWIDTH 480 0
DWIDTH 8 0
BBX 7 8 1 -1
BITMAP
78
84
86
86
86
C4
68
10
ENDCHAR
STARTCHAR 0070
ENCODING 112
SWIDTH 480 0
DWIDTH 8 0
BBX 8 12 0 -5
BITMAP
7C
62
63
63
63
62
66
78
60
60
60
F0
ENDCHAR
STARTCHAR 0071
ENCODING 113
SWIDTH 480 0
DWIDTH 8 0
BBX 7 12 1 -5
BITMAP
7C
84
84
84
84
84
4C
34
04
04
04
1E
ENDCHAR
STARTCHAR 0072
ENCODING 114
SWIDTH 300 0
DWIDTH 5 0
BBX 5 7 1 0
BITMAP
F8
C0
C0
C0
C0
C0
C0
ENDCHAR
STARTCHAR 0073
ENCODING 115
SWIDTH 300 0
DWIDTH 5 0
BBX 4 8 1 -1
BITMAP
F0
80
80
70
10
10
90
60
ENDCHAR
STARTCHAR 0074
ENCODING 116
SWIDTH 300 0
DWIDTH 5 0
BBX 4 8 1 0
BITMAP
40
F0
40
40
40
40
40
70
ENDCHAR
STARTCHAR 0075
ENCODING 117
SWIDTH 480 0
DWIDTH 8 0
BBX 7 7 1 0
BITMAP
CC
C4
C4
C4
C4
44
7E
ENDCHAR
STARTCHAR 0076
ENCODING 118
SWIDTH 360 0
DWIDTH 6 0
BBX 5 7 1 0
BITMAP
C8
C8
50
50
70
20
20
ENDCHAR
STARTCHAR 0077
ENCODING 119
SWIDTH 660 0
DWIDTH 11 0
BBX 10 7 1 0
BITMAP
CC40
CC80
5480
5500
7300
2300
2200
ENDCHAR
STARTCHAR 0078
ENCODING 120
SWIDTH 420 0
DWIDTH 7 0
BBX 6 7 1 0
BITMAP
CC
48
30
30
50
48
8C
ENDCHAR
STARTCHAR 0079
ENCODING 121
SWIDTH 360 0
DWIDTH 6 0
BBX 7 11 0 -4
BITMAP
C6
44
64
28
28
30
10
10
20
20
C0
ENDCHAR
STARTCHAR 007A
ENCODING 122
SWIDTH 360 0
DWIDTH 6 0
BBX 5 7 1 0
BITMAP
F0
30
20
60
40
C8
F8
ENDCHAR
STARTCHAR 007B
ENCODING 123
SWIDTH 360 0
DWIDTH 6 0
BBX 4 15 2 -3
BITMAP
60
C0
C0
C0
C0
80
80
80
80
C0
C0
C0
C0
40
30
ENDCHAR
STARTCHAR 007C
ENCODING 124
SWIDTH 240 0
DWIDTH 4 0
BBX 1 15 2 -3
BITMAP
80
80
80
80
80
80
80
80
80
80
80
80
80
80
80
ENDCHAR
STARTCHAR 007D
ENCODING 125
SWIDTH 360 0
DWIDTH 6 0
BBX 5 15 1 -3
BITMAP
60
20
20
20
20
20
10
38
20
20
20
20
20
20
C0
ENDCHAR
STARTCHAR 007E
ENCODING 126
SWIDTH 300 0
DWIDTH 5 0
BBX 4 1 1 3
BITMAP
F0
ENDCHAR
STARTCHAR 00A0
ENCODING 160
SWIDTH 240 0
DWIDTH 4 0
BBX 1 1 0 0
BITMAP
00
ENDCHAR
STARTCHAR 00A1
ENCODING 161
SWIDTH 240 0
DWIDTH 4 0
BBX 2 11 1 -4
BITMAP
C0
C0
00
00
80
40
40
40
C0
C0
C0
ENDCHAR
STARTCHAR 00A2
ENCODING 162
SWIDTH 360 0
DWIDTH 6 0
BBX 5 10 1 1
BITMAP
10
10
78
D0
90
A0
A0
E0
78
20
ENDCHAR
STARTCHAR 00A3
ENCODING 163
SWIDTH 540 0
DWIDTH 9 0
BBX 9 12 0 -1
BITMAP
1F00
1000
1000
1000
1000
7E00
0800
0800
0800
F080
9F00
6000
ENDCHAR
STARTCHAR 00A4
ENCODING 164
SWIDTH 480 0
DWIDTH 8 0
BBX 8 7 0 2
BITMAP
7D
42
41
81
41
42
7D
ENDCHAR
STARTCHAR 00A5
ENCODING 165
SWIDTH 660 0
DWIDTH 11 0
BBX 12 12 0 0
BITMAP
F0F0
2040
3080
1100
1900
3B80
0C00
3F80
0400
0400
0400
1F00
ENDCHAR
STARTCHAR 00A6
ENCODING 166
SWIDTH 240 0
DWIDTH 4 0
BBX 1 10 2 1
BITMAP
80
80
80
80
00
00
80
80
80
80
ENDCHAR
STARTCHAR 00A7
ENCODING 167
SWIDTH 420 0
DWIDTH 7 0
BBX 6 15 1 -4
BITMAP
7C
C0
C0
60
78
8C
84
C4
64
38
0C
04
84
C8
30
ENDCHAR
STARTCHAR 00A8
ENCODING 168
SWIDTH 360 0
DWIDTH 6 0
BBX 5 1 1 9
BITMAP
D8
ENDCHAR
STARTCHAR 00A9
ENCODING 169
SWIDTH 660 0
DWIDTH 11 0
BBX 12 12 0 0
BITMAP
1F80
2040
4020
8E10
9010
9010
9010
9110
8D20
4220
2040
1F80
ENDCHAR
STARTCHAR 00AA
ENCODING 170
SWIDTH 240 0
DWIDTH 4 0
BBX 4 5 0 4
BITMAP
60
A0
20
E0
50
ENDCHAR
STARTCHAR 00AB
ENCODING 171
SWIDTH 360 0
DWIDTH 6 0
BBX 6 5 0 1
BITMAP
28
48
D0
48
24
ENDCHAR
STARTCHAR 00AC
ENCODING 172
SWIDTH 660 0
DWIDTH 11 0
BBX 11 5 0 0
BITMAP
FFE0
0020
0020
0020
0020
ENDCHAR
STARTCHAR 00AD
ENCODING 173
SWIDTH 360 0
DWIDTH 6 0
BBX 5 1 1 4
BITMAP
F8
ENDCHAR
STARTCHAR 00AE
ENCODING 174
SWIDTH 720 0
DWIDTH 12 0
BBX 12 12 0 0
BITMAP
1F80
2040
4020
8F10
8910
8910
8E10
8910
8CA0
4060
2040
1F80
ENDCHAR
STARTCHAR 00AF
ENCODING 175
SWIDTH 300 0
DWIDTH 5 0
BBX 5 1 0 9
BITMAP
F8
ENDCHAR
STARTCHAR 00B0
ENCODING 176
SWIDTH 300 0
DWIDTH 5 0
BBX 4 5 1 6
BITMAP
60
90
90
90
60
ENDCHAR
STARTCHAR 00B1
ENCODING 177
SWIDTH 480 0
DWIDTH 8 0
BBX 7 9 1 0
BITMAP
10
10
10
FE
10
10
10
00
FE
ENDCHAR
STARTCHAR 00B2
ENCODING 178
SWIDTH 300 0
DWIDTH 5 0
BBX 5 7 0 4
BITMAP
70
10
10
20
20
48
F0
ENDCHAR
STARTCHAR 00B3
ENCODING 179
SWIDTH 300 0
DWIDTH 5 0
BBX 3 7 1 4
BITMAP
E0
20
40
20
20
20
C0
ENDCHAR
STARTCHAR 00B4
ENCODING 180
SWIDTH 240 0
DWIDTH 4 0
BBX 2 4 1 8
BITMAP
40
40
80
80
ENDCHAR
STARTCHAR 00B5
ENCODING 181
SWIDTH 540 0
DWIDTH 9 0
BBX 8 11 1 -4
BITMAP
C6
C6
C6
C6
C6
C6
FF
C0
C0
C0
C0
ENDCHAR
STARTCHAR 00B6
ENCODING 182
SWIDTH 480 0
DWIDTH 8 0
BBX 7 13 0 -1
BITMAP
7E
7A
FA
FA
FA
7A
0A
0A
0A
0A
0A
0A
04
ENDCHAR
STARTCHAR 00B7
ENCODING 183
SWIDTH 360 0
DWIDTH 6 0
BBX 2 2 2 4
BITMAP
C0
C0
ENDCHAR
STARTCHAR 00B8
ENCODING 184
SWIDTH 360 0
DWIDTH 6 0
BBX 2 4 2 -4
BITMAP
40
C0
40
C0
ENDCHAR
STARTCHAR 00B9
ENCODING 185
SWIDTH 300 0
DWIDTH 5 0
BBX 3 7 1 4
BITMAP
40
40
40
40
40
40
E0
ENDCHAR
STARTCHAR 00BA
ENCODING 186
SWIDTH 300 0
DWIDTH 5 0
BBX 5 5 0 4
BITMAP
20
D0
88
90
70
ENDCHAR
STARTCHAR 00BB
ENCODING 187
SWIDTH 360 0
DWIDTH 6 0
BBX 6 7 0 0
BITMAP
80
50
28
24
28
50
80
ENDCHAR
STARTCHAR 00BC
ENCODING 188
SWIDTH 720 0
DWIDTH 12 0
BBX 11 12 1 0
BITMAP
0080
C080
4100
4200
4220
4440
4880
E940
1140
13E0
2040
0040
ENDCHAR
STARTCHAR 00BD
ENCODING 189
SWIDTH 720 0
DWIDTH 12 0
BBX 11 12 1 0
BITMAP
0080
C080
4100
4200
4200
45C0
4820
E840
1040
2080
2100
01E0
ENDCHAR
STARTCHAR 00BE
ENCODING 190
SWIDTH 720 0
DWIDTH 12 0
BBX 11 12 1 0
BITMAP
0080
6080
2100
4200
2220
2440
2880
C940
1140
23E0
2040
0040
ENDCHAR
STARTCHAR 00BF
ENCODING 191
SWIDTH 360 0
DWIDTH 6 0
BBX 4 11 1 -4
BITMAP
30
30
00
00
10
30
60
80
80
80
70
ENDCHAR
STARTCHAR 00C0
ENCODING 192
SWIDTH 660 0
DWIDTH 11 0
BBX 11 16 0 0
BITMAP
1000
0800
0600
0000
0000
0600
0A00
0A00
0B00
1100
1100
1F80
2080
2080
40C0
F1E0
ENDCHAR
STARTCHAR 00C1
ENCODING 193
SWIDTH 660 0
DWIDTH 11 0
BBX 11 16 0 0
BITMAP
0100
0300
0400
0000
0000
0600
0A00
0A00
0B00
1100
1100
1F80
2080
2080
40C0
F1E0
ENDCHAR
STARTCHAR 00C2
ENCODING 194
SWIDTH 660 0
DWIDTH 11 0
BBX 11 15 0 0
BITMAP
0600
0900
0000
0000
0600
0A00
0A00
0B00
1100
1100
1F80
2080
2080
40C0
F1E0
ENDCHAR
STARTCHAR 00C3
ENCODING 195
SWIDTH 660 0
DWIDTH 11 0
BBX 11 14 0 0
BITMAP
1F00
0000
0000
0600
0A00
0A00
0B00
1100
1100
1F80
2080
2080
40C0
F1E0
ENDCHAR
STARTCHAR 00C4
ENCODING 196
SWIDTH 660 0
DWIDTH 11 0
BBX 11 15 0 0
BITMAP
1100
1B00
0000
0000
0600
0A00
0A00
0B00
1100
1100
1F80
2080
2080
40C0
F1E0
ENDCHAR
STARTCHAR 00C5
ENCODING 197
SWIDTH 660 0
DWIDTH 11 0
BBX 11 14 0 0
BITMAP
0600
0A00
0600
0600
0A00
0A00
0B00
1100
1100
1F80
2080
2080
40C0
F1E0
ENDCHAR
STARTCHAR 00C6
ENCODING 198
SWIDTH 840 0
DWIDTH 14 0
BBX 15 11 -1 0
BITMAP
03FC
0384
0584
0580
0980
0FF0
1180
2180
2182
4182
F3FE
ENDCHAR
STARTCHAR 00C7
ENCODING 199
SWIDTH 660 0
DWIDTH 11 0
BBX 10 15 1 -4
BITMAP
3F80
6080
C000
C000
8000
8000
8000
C000
C040
6040
1980
0600
0C00
0400
0C00
ENDCHAR
STARTCHAR 00C8
ENCODING 200
SWIDTH 600 0
DWIDTH 10 0
BBX 9 16 1 0
BITMAP
4000
2000
1800
0000
0000
7F00
6100
6100
6000
6400
7C00
6400
6000
6080
6080
FF80
ENDCHAR
STARTCHAR 00C9
ENCODING 201
SWIDTH 600 0
DWIDTH 10 0
BBX 9 16 1 0
BITMAP
0200
0600
0800
0000
0000
7F00
6100
6100
6000
6400
7C00
6400
6000
6080
6080
FF80
ENDCHAR
STARTCHAR 00CA
ENCODING 202
SWIDTH 600 0
DWIDTH 10 0
BBX 9 15 1 0
BITMAP
1800
2400
0000
0000
7F00
6100
6100
6000
6400
7C00
6400
6000
6080
6080
FF80
ENDCHAR
STARTCHAR 00CB
ENCODING 203
SWIDTH 600 0
DWIDTH 10 0
BBX 9 15 1 0
BITMAP
2200
3600
0000
0000
7F00
6100
6100
6000
6400
7C00
6400
6000
6080
6080
FF80
ENDCHAR
STARTCHAR 00CC
ENCODING 204
SWIDTH 300 0
DWIDTH 5 0
BBX 5 16 0 0
BITMAP
80
40
30
00
00
30
30
30
30
30
30
30
30
30
30
78
ENDCHAR
STARTCHAR 00CD
ENCODING 205
SWIDTH 300 0
DWIDTH 5 0
BBX 5 16 1 0
BITMAP
08
18
20
00
00
60
60
60
60
60
60
60
60
60
60
F0
ENDCHAR
STARTCHAR 00CE
ENCODING 206
SWIDTH 300 0
DWIDTH 5 0
BBX 4 15 1 0
BITMAP
60
90
00
00
60
60
60
60
60
60
60
60
60
60
F0
ENDCHAR
STARTCHAR 00CF
ENCODING 207
SWIDTH 300 0
DWIDTH 5 0
BBX 5 15 0 0
BITMAP
88
D8
00
00
30
30
30
30
30
30
30
30
30
30
78
ENDCHAR
STARTCHAR 00D0
ENCODING 208
SWIDTH 720 0
DWIDTH 12 0
BBX 12 12 0 -1
BITMAP
3F80
3060
3020
3030
3030
FC30
3030
3020
3060
3040
7B80
0400
ENDCHAR
STARTCHAR 00D1
ENCODING 209
SWIDTH 720 0
DWIDTH 12 0
BBX 10 14 1 0
BITMAP
1F00
0000
0000
E040
6040
5040
5840
4C40
4640
4240
4340
41C0
40C0
E040
ENDCHAR
STARTCHAR 00D2
ENCODING 210
SWIDTH 720 0
DWIDTH 12 0
BBX 10 17 1 -1
BITMAP
2000
1000
0C00
0000
0000
3F00
4080
C0C0
C040
8040
8040
8040
C040
C0C0
6080
3B00
0400
ENDCHAR
STARTCHAR 00D3
ENCODING 211
SWIDTH 720 0
DWIDTH 12 0
BBX 10 17 1 -1
BITMAP
0100
0300
0400
0000
0000
3F00
4080
C0C0
C040
8040
8040
8040
C040
C0C0
6080
3B00
0400
ENDCHAR
STARTCHAR 00D4
ENCODING 212
SWIDTH 720 0
DWIDTH 12 0
BBX 10 16 1 -1
BITMAP
0C00
1200
0000
0000
3F00
4080
C0C0
C040
8040
8040
8040
C040
C0C0
6080
3B00
0400
ENDCHAR
STARTCHAR 00D5
ENCODING 213
SWIDTH 720 0
DWIDTH 12 0
BBX 10 15 1 -1
BITMAP
1F00
0000
0000
3F00
4080
C0C0
C040
8040
8040
8040
C040
C0C0
6080
3B00
0400
ENDCHAR
STARTCHAR 00D6
ENCODING 214
SWIDTH 720 0
DWIDTH 12 0
BBX 10 16 1 -1
BITMAP
1100
1B00
0000
0000
3F00
4080
C0C0
C040
8040
8040
8040
C040
C0C0
6080
3B00
0400
ENDCHAR
STARTCHAR 00D7
ENCODING 215
SWIDTH 360 0
DWIDTH 6 0
BBX 5 5 1 0
BITMAP
98
70
60
D0
88
ENDCHAR
STARTCHAR 00D8
ENCODING 216
SWIDTH 720 0
DWIDTH 12 0
BBX 10 12 1 -1
BITMAP
3F80
4080
C1C0
C240
8440
8840
9040
E040
E0C0
6080
BB00
0400
ENDCHAR
STARTCHAR 00D9
ENCODING 217
SWIDTH 720 0
DWIDTH 12 0
BBX 10 17 1 -1
BITMAP
2000
1000
0C00
0000
0000
E0C0
4040
4040
4040
4040
4040
4040
6040
6080
2080
3B00
0400
ENDCHAR
STARTCHAR 00DA
ENCODING 218
SWIDTH 720 0
DWIDTH 12 0
BBX 10 17 1 -1
BITMAP
0100
0300
0400
0000
0000
E0C0
4040
4040
4040
4040
4040
4040
6040
6080
2080
3B00
0400
ENDCHAR
STARTCHAR 00DB
ENCODING 219
SWIDTH 720 0
DWIDTH 12 0
BBX 10 16 1 -1
BITMAP
0C00
1200
0000
0000
E0C0
4040
4040
4040
4040
4040
4040
6040
6080
2080
3B00
0400
ENDCHAR
STARTCHAR 00DC
ENCODING 220
SWIDTH 720 0
DWIDTH 12 0
BBX 10 16 1 -1
BITMAP
1100
1B00
0000
0000
E0C0
4040
4040
4040
4040
4040
4040
6040
6080
2080
3B00
0400
ENDCHAR
STARTCHAR 00DD
ENCODING 221
SWIDTH 600 0
DWIDTH 10 0
BBX 9 16 1 0
BITMAP
0200
0600
0800
0000
0000
C180
4100
6200
2400
3400
1800
1800
1800
1800
1800
3C00
ENDCHAR
STARTCHAR 00DE
ENCODING 222
SWIDTH 540 0
DWIDTH 9 0
BBX 9 15 0 -4
BITMAP
E600
2B00
3100
2180
2180
2180
2180
2100
2300
2200
3C00
2000
2000
2000
4000
ENDCHAR
STARTCHAR 00DF
ENCODING 223
SWIDTH 540 0
DWIDTH 9 0
BBX 8 13 1 -1
BITMAP
3C
42
42
44
48
C8
48
4C
46
43
42
CA
04
ENDCHAR
STARTCHAR 00E0
ENCODING 224
SWIDTH 360 0
DWIDTH 6 0
BBX 6 12 1 0
BITMAP
40
40
20
00
00
F0
90
10
30
D0
90
FC
ENDCHAR
STARTCHAR 00E1
ENCODING 225
SWIDTH 360 0
DWIDTH 6 0
BBX 6 12 1 0
BITMAP
10
10
20
20
00
F0
90
10
30
D0
90
FC
ENDCHAR
STARTCHAR 00E2
ENCODING 226
SWIDTH 360 0
DWIDTH 6 0
BBX 6 12 1 0
BITMAP
20
60
90
00
00
F0
90
10
30
D0
90
FC
ENDCHAR
STARTCHAR 00E3
ENCODING 227
SWIDTH 360 0
DWIDTH 6 0
BBX 6 10 1 0
BITMAP
F8
00
00
F0
90
10
30
D0
90
FC
ENDCHAR
STARTCHAR 00E4
ENCODING 228
SWIDTH 360 0
DWIDTH 6 0
BBX 6 10 1 0
BITMAP
D8
00
00
F0
90
10
30
D0
90
FC
ENDCHAR
STARTCHAR 00E5
ENCODING 229
SWIDTH 360 0
DWIDTH 6 0
BBX 6 11 1 0
BITMAP
F0
90
60
00
F0
90
10
30
D0
90
FC
ENDCHAR
STARTCHAR 00E6
ENCODING 230
SWIDTH 540 0
DWIDTH 9 0
BBX 9 7 0 0
BITMAP
7F80
C980
0E00
3800
4800
4C00
7780
ENDCHAR
STARTCHAR 00E7
ENCODING 231
SWIDTH 360 0
DWIDTH 6 0
BBX 5 11 1 -4
BITMAP
78
C0
80
80
80
C0
78
20
60
20
60
ENDCHAR
STARTCHAR 00E8
ENCODING 232
SWIDTH 360 0
DWIDTH 6 0
BBX 5 12 1 0
BITMAP
20
20
10
00
00
78
88
F0
80
80
C0
78
ENDCHAR
STARTCHAR 00E9
ENCODING 233
SWIDTH 360 0
DWIDTH 6 0
BBX 5 12 1 0
BITMAP
10
10
20
20
00
78
88
F0
80
80
C0
78
ENDCHAR
STARTCHAR 00EA
ENCODING 234
SWIDTH 360 0
DWIDTH 6 0
BBX 5 12 1 0
BITMAP
10
30
48
00
00
78
88
F0
80
80
C0
78
ENDCHAR
STARTCHAR 00EB
ENCODING 235
SWIDTH 360 0
DWIDTH 6 0
BBX 5 10 1 0
BITMAP
D8
00
00
78
88
F0
80
80
C0
78
ENDCHAR
STARTCHAR 00EC
ENCODING 236
SWIDTH 240 0
DWIDTH 4 0
BBX 3 13 1 -1
BITMAP
80
80
40
00
00
40
40
40
40
40
40
C0
20
ENDCHAR
STARTCHAR 00ED
ENCODING 237
SWIDTH 240 0
DWIDTH 4 0
BBX 3 13 1 -1
BITMAP
40
40
80
80
00
40
40
40
40
40
40
C0
20
ENDCHAR
STARTCHAR 00EE
ENCODING 238
SWIDTH 240 0
DWIDTH 4 0
BBX 4 13 0 -1
BITMAP
20
60
90
00
00
20
20
20
20
20
20
60
10
ENDCHAR
STARTCHAR 00EF
ENCODING 239
SWIDTH 240 0
DWIDTH 4 0
BBX 5 11 0 -1
BITMAP
D8
00
00
20
20
20
20
20
20
60
10
ENDCHAR
STARTCHAR 00F0
ENCODING 240
SWIDTH 480 0
DWIDTH 8 0
BBX 8 13 0 -1
BITMAP
04
88
70
50
0C
36
62
43
43
43
62
36
08
ENDCHAR
STARTCHAR 00F1
ENCODING 241
SWIDTH 480 0
DWIDTH 8 0
BBX 7 10 1 0
BITMAP
7C
00
00
7C
44
44
44
44
44
C6
ENDCHAR
STARTCHAR 00F2
ENCODING 242
SWIDTH 480 0
DWIDTH 8 0
BBX 7 13 1 -1
BITMAP
20
20
10
00
00
78
84
86
86
86
C4
68
10
ENDCHAR
STARTCHAR 00F3
ENCODING 243
SWIDTH 480 0
DWIDTH 8 0
BBX 7 13 1 -1
BITMAP
10
10
20
20
00
78
84
86
86
86
C4
68
10
ENDCHAR
STARTCHAR 00F4
ENCODING 244
SWIDTH 480 0
DWIDTH 8 0
BBX 7 13 1 -1
BITMAP
10
30
48
00
00
78
84
86
86
86
C4
68
10
ENDCHAR
STARTCHAR 00F5
ENCODING 245
SWIDTH 480 0
DWIDTH 8 0
BBX 7 11 1 -1
BITMAP
7C
00
00
78
84
86
86
86
C4
68
10
ENDCHAR
STARTCHAR 00F6
ENCODING 246
SWIDTH 480 0
DWIDTH 8 0
BBX 7 11 1 -1
BITMAP
6C
00
00
78
84
86
86
86
C4
68
10
ENDCHAR
STARTCHAR 00F7
ENCODING 247
SWIDTH 480 0
DWIDTH 8 0
BBX 7 7 1 0
BITMAP
10
10
00
FE
00
10
10
ENDCHAR
STARTCHAR 00F8
ENCODING 248
SWIDTH 480 0
DWIDTH 8 0
BBX 7 9 1 -1
BITMAP
04
78
8C
96
A6
A6
C4
E8
10
ENDCHAR
STARTCHAR 00F9
ENCODING 249
SWIDTH 480 0
DWIDTH 8 0
BBX 7 12 1 0
BITMAP
20
20
10
00
00
CC
C4
C4
C4
C4
44
7E
ENDCHAR
STARTCHAR 00FA
ENCODING 250
SWIDTH 480 0
DWIDTH 8 0
BBX 7 12 1 0
BITMAP
10
10
20
20
00
CC
C4
C4
C4
C4
44
7E
ENDCHAR
STARTCHAR 00FB
ENCODING 251
SWIDTH 480 0
DWIDTH 8 0
BBX 7 12 1 0
BITMAP
10
30
48
00
00
CC
C4
C4
C4
C4
44
7E
ENDCHAR
STARTCHAR 00FC
ENCODING 252
SWIDTH 480 0
DWIDTH 8 0
BBX 7 10 1 0
BITMAP
6C
00
00
CC
C4
C4
C4
C4
44
7E
ENDCHAR
STARTCHAR 00FD
ENCODING 253
SWIDTH 360 0
DWIDTH 6 0
BBX 7 16 0 -4
BITMAP
08
08
10
10
00
C6
44
64
28
28
30
10
10
20
20
C0
ENDCHAR
STARTCHAR 00FE
ENCODING 254
SWIDTH 420 0
DWIDTH 7 0
BBX 6 16 1 -4
BITMAP
C0
C0
C0
C0
C0
F8
CC
C4
C4
CC
C8
F0
C0
C0
C0
C0
ENDCHAR
STARTCHAR 00FF
ENCODING 255
SWIDTH 360 0
DWIDTH 6 0
BBX 7 14 0 -4
BITMAP
6C
00
00
C6
44
64
28
28
30
10
10
20
20
C0
ENDCHAR
STARTCHAR 0100
ENCODING 256
SWIDTH 660 0
DWIDTH 11 0
BBX 11 14 0 0
BITMAP
1F80
0000
0000
0600
0A00
0A00
0B00
1100
1100
1F80
2080
2080
40C0
F1E0
ENDCHAR
STARTCHAR 0101
ENCODING 257
SWIDTH 360 0
DWIDTH 6 0
BBX 6 10 1 0
BITMAP
F8
00
00
F0
90
10
30
D0
90
FC
ENDCHAR
STARTCHAR 0102
ENCODING 258
SWIDTH 660 0
DWIDTH 11 0
BBX 11 15 0 0
BITMAP
0100
0900
0600
0000
0600
0A00
0A00
0B00
1100
1100
1F80
2080
2080
40C0
F1E0
ENDCHAR
STARTCHAR 0103
ENCODING 259
SWIDTH 360 0
DWIDTH 6 0
BBX 6 11 1 0
BITMAP
10
90
60
00
F0
90
10
30
D0
90
FC
ENDCHAR
STARTCHAR 0104
ENCODING 260
SWIDTH 660 0
DWIDTH 11 0
BBX 11 15 0 -4
BITMAP
0600
0A00
0A00
0B00
1100
1100
1F80
2080
2080
40C0
F1E0
0000
0080
0080
00C0
ENDCHAR
STARTCHAR 0105
ENCODING 261
SWIDTH 360 0
DWIDTH 6 0
BBX 6 11 1 -4
BITMAP
F0
90
10
30
D0
90
FC
00
10
10
18
ENDCHAR
STARTCHAR 0106
ENCODING 262
SWIDTH 660 0
DWIDTH 11 0
BBX 10 17 1 -1
BITMAP
0100
0300
0400
0000
0000
3F80
6080
C000
C000
8000
8000
8000
C000
C040
6040
1980
0600
ENDCHAR
STARTCHAR 0107
ENCODING 263
SWIDTH 360 0
DWIDTH 6 0
BBX 5 12 1 0
BITMAP
10
10
20
20
00
78
C0
80
80
80
C0
78
ENDCHAR
STARTCHAR 0108
ENCODING 264
SWIDTH 660 0
DWIDTH 11 0
BBX 10 16 1 -1
BITMAP
0C00
1200
0000
0000
3F80
6080
C000
C000
8000
8000
8000
C000
C040
6040
1980
0600
ENDCHAR
STARTCHAR 0109
ENCODING 265
SWIDTH 360 0
DWIDTH 6 0
BBX 5 12 1 0
BITMAP
10
30
48
00
00
78
C0
80
80
80
C0
78
ENDCHAR
STARTCHAR 010A
ENCODING 266
SWIDTH 660 0
DWIDTH 11 0
BBX 10 15 1 -1
BITMAP
0600
0000
0000
3F80
6080
C000
C000
8000
8000
8000
C000
C040
6040
1980
0600
ENDCHAR
STARTCHAR 010B
ENCODING 267
SWIDTH 360 0
DWIDTH 6 0
BBX 5 10 1 0
BITMAP
30
00
00
78
C0
80
80
80
C0
78
ENDCHAR
STARTCHAR 010C
ENCODING 268
SWIDTH 660 0
DWIDTH 11 0
BBX 10 16 1 -1
BITMAP
1300
0C00
0000
0000
3F80
6080
C000
C000
8000
8000
8000
C000
C040
6040
1980
0600
ENDCHAR
STARTCHAR 010D
ENCODING 269
SWIDTH 360 0
DWIDTH 6 0
BBX 5 12 1 0
BITMAP
48
28
30
00
00
78
C0
80
80
80
C0
78
ENDCHAR
STARTCHAR 010E
ENCODING 270
SWIDTH 720 0
DWIDTH 12 0
BBX 11 16 1 -1
BITMAP
1300
0C00
0000
0000
7F00
60C0
6040
6060
6060
6060
6060
6040
60C0
6080
F700
0800
ENDCHAR
STARTCHAR 010F
ENCODING 271
SWIDTH 600 0
DWIDTH 10 0
BBX 9 12 1 0
BITMAP
0D80
0480
0500
0500
0400
7C00
8400
8400
8400
8400
C400
7E00
ENDCHAR
STARTCHAR 0110
ENCODING 272
SWIDTH 720 0
DWIDTH 12 0
BBX 12 12 0 -1
BITMAP
3F80
3060
3020
3030
3030
FC30
3030
3020
3060
3040
7B80
0400
ENDCHAR
STARTCHAR 0111
ENCODING 273
SWIDTH 480 0
DWIDTH 8 0
BBX 8 12 1 0
BITMAP
04
04
1F
04
04
7C
84
84
84
84
C4
7E
ENDCHAR
STARTCHAR 0112
ENCODING 274
SWIDTH 600 0
DWIDTH 10 0
BBX 9 14 1 0
BITMAP
7E00
0000
0000
7F00
6100
6100
6000
6400
7C00
6400
6000
6080
6080
FF80
ENDCHAR
STARTCHAR 0113
ENCODING 275
SWIDTH 360 0
DWIDTH 6 0
BBX 5 10 1 0
BITMAP
F8
00
00
78
88
F0
80
80
C0
78
ENDCHAR
STARTCHAR 0114
ENCODING 276
SWIDTH 600 0
DWIDTH 10 0
BBX 9 15 1 0
BITMAP
0400
2400
1800
0000
7F00
6100
6100
6000
6400
7C00
6400
6000
6080
6080
FF80
ENDCHAR
STARTCHAR 0115
ENCODING 277
SWIDTH 360 0
DWIDTH 6 0
BBX 5 11 1 0
BITMAP
08
48
30
00
78
88
F0
80
80
C0
78
ENDCHAR
STARTCHAR 0116
ENCODING 278
SWIDTH 600 0
DWIDTH 10 0
BBX 9 14 1 0
BITMAP
1800
0000
0000
7F00
6100
6100
6000
6400
7C00
6400
6000
6080
6080
FF80
ENDCHAR
STARTCHAR 0117
ENCODING 279
SWIDTH 360 0
DWIDTH 6 0
BBX 5 10 1 0
BITMAP
30
00
00
78
88
F0
80
80
C0
78
ENDCHAR
STARTCHAR 0118
ENCODING 280
SWIDTH 600 0
DWIDTH 10 0
BBX 9 15 1 -4
BITMAP
7F00
6100
6100
6000
6400
7C00
6400
6000
6080
6080
FF80
0000
0400
0400
0600
ENDCHAR
STARTCHAR 0119
ENCODING 281
SWIDTH 360 0
DWIDTH 6 0
BBX 5 11 1 -4
BITMAP
78
88
F0
80
80
C0
78
00
40
40
60
ENDCHAR
STARTCHAR 011A
ENCODING 282
SWIDTH 600 0
DWIDTH 10 0
BBX 9 15 1 0
BITMAP
2600
1800
0000
0000
7F00
6100
6100
6000
6400
7C00
6400
6000
6080
6080
FF80
ENDCHAR
STARTCHAR 011B
ENCODING 283
SWIDTH 360 0
DWIDTH 6 0
BBX 5 12 1 0
BITMAP
90
50
60
00
00
78
88
F0
80
80
C0
78
ENDCHAR
STARTCHAR 011C
ENCODING 284
SWIDTH 660 0
DWIDTH 11 0
BBX 10 16 1 -1
BITMAP
0C00
1200
0000
0000
3F80
6080
4000
C000
8000
8000
83C0
C080
4080
6080
19C0
0600
ENDCHAR
STARTCHAR 011D
ENCODING 285
SWIDTH 420 0
DWIDTH 7 0
BBX 8 17 0 -5
BITMAP
08
18
24
00
00
3F
46
44
44
38
40
7C
27
41
C1
62
3C
ENDCHAR
STARTCHAR 011E
ENCODING 286
SWIDTH 660 0
DWIDTH 11 0
BBX 10 16 1 -1
BITMAP
0200
1200
0C00
0000
3F80
6080
4000
C000
8000
8000
83C0
C080
4080
6080
19C0
0600
ENDCHAR
STARTCHAR 011F
ENCODING 287
SWIDTH 420 0
DWIDTH 7 0
BBX 8 16 0 -5
BITMAP
04
24
18
00
3F
46
44
44
38
40
7C
27
41
C1
62
3C
ENDCHAR
STARTCHAR 0120
ENCODING 288
SWIDTH 660 0
DWIDTH 11 0
BBX 10 15 1 -1
BITMAP
0C00
0000
0000
3F80
6080
4000
C000
8000
8000
83C0
C080
4080
6080
19C0
0600
ENDCHAR
STARTCHAR 0121
ENCODING 289
SWIDTH 420 0
DWIDTH 7 0
BBX 8 15 0 -5
BITMAP
18
00
00
3F
46
44
44
38
40
7C
27
41
C1
62
3C
ENDCHAR
STARTCHAR 0122
ENCODING 290
SWIDTH 660 0
DWIDTH 11 0
BBX 10 15 1 -4
BITMAP
3F80
6080
4000
C000
8000
8000
83C0
C080
4080
6080
19C0
0600
0C00
0400
0C00
ENDCHAR
STARTCHAR 0123
ENCODING 291
SWIDTH 420 0
DWIDTH 7 0
BBX 8 17 0 -5
BITMAP
10
10
10
18
00
3F
46
44
44
38
40
7C
27
41
C1
62
3C
ENDCHAR
STARTCHAR 0124
ENCODING 292
SWIDTH 780 0
DWIDTH 13 0
BBX 12 15 1 0
BITMAP
0600
0900
0000
0000
60E0
6040
6040
6040
6040
7FC0
6040
6040
6040
6040
F0F0
ENDCHAR
STARTCHAR 0125
ENCODING 293
SWIDTH 540 0
DWIDTH 9 0
BBX 8 16 0 0
BITMAP
60
90
00
00
60
20
20
20
20
3E
22
23
23
23
23
63
ENDCHAR
STARTCHAR 0126
ENCODING 294
SWIDTH 780 0
DWIDTH 13 0
BBX 12 11 1 0
BITMAP
60E0
6040
FFF0
6040
6040
7FC0
6040
6040
6040
6040
F1F0
ENDCHAR
STARTCHAR 0127
ENCODING 295
SWIDTH 540 0
DWIDTH 9 0
BBX 8 12 0 0
BITMAP
60
20
F8
20
20
3E
22
23
23
23
23
63
ENDCHAR
STARTCHAR 0128
ENCODING 296
SWIDTH 300 0
DWIDTH 5 0
BBX 5 14 0 0
BITMAP
F8
00
00
30
30
30
30
30
30
30
30
30
30
78
ENDCHAR
STARTCHAR 0129
ENCODING 297
SWIDTH 240 0
DWIDTH 4 0
BBX 5 11 0 -1
BITMAP
F8
00
00
20
20
20
20
20
20
60
10
ENDCHAR
STARTCHAR 012A
ENCODING 298
SWIDTH 300 0
DWIDTH 5 0
BBX 5 14 0 0
BITMAP
F8
00
00
30
30
30
30
30
30
30
30
30
30
78
ENDCHAR
STARTCHAR 012B
ENCODING 299
SWIDTH 240 0
DWIDTH 4 0
BBX 5 11 0 -1
BITMAP
F8
00
00
20
20
20
20
20
20
60
10
ENDCHAR
STARTCHAR 012C
ENCODING 300
SWIDTH 300 0
DWIDTH 5 0
BBX 4 15 1 0
BITMAP
10
90
60
00
60
60
60
60
60
60
60
60
60
60
F0
ENDCHAR
STARTCHAR 012D
ENCODING 301
SWIDTH 240 0
DWIDTH 4 0
BBX 4 12 0 -1
BITMAP
10
90
60
00
20
20
20
20
20
20
60
10
ENDCHAR
STARTCHAR 012E
ENCODING 302
SWIDTH 300 0
DWIDTH 5 0
BBX 4 15 1 -4
BITMAP
60
60
60
60
60
60
60
60
60
60
F0
00
80
80
C0
ENDCHAR
STARTCHAR 012F
ENCODING 303
SWIDTH 240 0
DWIDTH 4 0
BBX 3 14 1 -4
BITMAP
C0
00
00
C0
40
40
40
40
40
C0
20
80
80
C0
ENDCHAR
STARTCHAR 0130
ENCODING 304
SWIDTH 300 0
DWIDTH 5 0
BBX 4 14 1 0
BITMAP
60
00
00
60
60
60
60
60
60
60
60
60
60
F0
ENDCHAR
STARTCHAR 0131
ENCODING 305
SWIDTH 240 0
DWIDTH 4 0
BBX 3 8 1 -1
BITMAP
40
40
40
40
40
40
C0
20
ENDCHAR
STARTCHAR 0132
ENCODING 306
SWIDTH 720 0
DWIDTH 12 0
BBX 9 14 1 -3
BITMAP
6180
6180
6180
6180
6180
6180
6180
6180
6180
6180
F180
0100
0100
0E00
ENDCHAR
STARTCHAR 0133
ENCODING 307
SWIDTH 480 0
DWIDTH 8 0
BBX 7 15 1 -5
BITMAP
C6
00
00
C6
42
42
42
42
42
C2
22
02
02
14
18
ENDCHAR
STARTCHAR 0134
ENCODING 308
SWIDTH 300 0
DWIDTH 5 0
BBX 6 18 -1 -3
BITMAP
18
24
00
00
18
18
18
18
18
18
18
18
18
18
18
10
10
E0
ENDCHAR
STARTCHAR 0135
ENCODING 309
SWIDTH 240 0
DWIDTH 4 0
BBX 5 17 -1 -5
BITMAP
10
30
48
00
00
10
10
10
10
10
10
10
10
10
10
A0
C0
ENDCHAR
STARTCHAR 0136
ENCODING 310
SWIDTH 660 0
DWIDTH 11 0
BBX 10 15 1 -4
BITMAP
6300
6200
6400
6800
7000
7800
6C00
6400
6200
6300
F3C0
0000
0C00
0400
1800
ENDCHAR
STARTCHAR 0137
ENCODING 311
SWIDTH 480 0
DWIDTH 8 0
BBX 7 16 1 -4
BITMAP
C0
40
40
40
40
44
48
50
70
58
4C
C6
00
18
08
30
ENDCHAR
STARTCHAR 0138
ENCODING 312
SWIDTH 480 0
DWIDTH 8 0
BBX 7 7 1 0
BITMAP
CC
50
60
70
50
48
EE
ENDCHAR
STARTCHAR 0139
ENCODING 313
SWIDTH 660 0
DWIDTH 11 0
BBX 10 16 1 0
BITMAP
0800
1800
2000
0000
0000
6000
6000
6000
6000
6000
6000
6000
6000
6040
60C0
FFC0
ENDCHAR
STARTCHAR 013A
ENCODING 314
SWIDTH 240 0
DWIDTH 4 0
BBX 4 17 1 0
BITMAP
10
30
40
00
00
C0
40
40
40
40
40
40
40
40
40
40
C0
ENDCHAR
STARTCHAR 013B
ENCODING 315
SWIDTH 660 0
DWIDTH 11 0
BBX 10 15 1 -4
BITMAP
6000
6000
6000
6000
6000
6000
6000
6000
6040
60C0
FFC0
0800
1800
0800
1800
ENDCHAR
STARTCHAR 013C
ENCODING 316
SWIDTH 240 0
DWIDTH 4 0
BBX 2 16 1 -4
BITMAP
C0
40
40
40
40
40
40
40
40
40
40
C0
40
C0
40
C0
ENDCHAR
STARTCHAR 013D
ENCODING 317
SWIDTH 660 0
DWIDTH 11 0
BBX 10 15 1 0
BITMAP
9800
6000
0000
0000
6000
6000
6000
6000
6000
6000
6000
6000
6040
60C0
FFC0
ENDCHAR
STARTCHAR 013E
ENCODING 318
SWIDTH 360 0
DWIDTH 6 0
BBX 5 12 1 0
BITMAP
D8
48
50
50
40
40
40
40
40
40
40
C0
ENDCHAR
STARTCHAR 013F
ENCODING 319
SWIDTH 660 0
DWIDTH 11 0
BBX 10 11 1 0
BITMAP
6000
6600
6000
6000
6000
6000
6000
6000
6040
60C0
FFC0
ENDCHAR
STARTCHAR 0140
ENCODING 320
SWIDTH 300 0
DWIDTH 5 0
BBX 4 12 1 0
BITMAP
C0
40
70
40
40
40
40
40
40
40
40
C0
ENDCHAR
STARTCHAR 0141
ENCODING 321
SWIDTH 660 0
DWIDTH 11 0
BBX 10 11 1 0
BITMAP
6000
6000
6000
6000
7800
E000
6000
6000
6040
60C0
FFC0
ENDCHAR
STARTCHAR 0142
ENCODING 322
SWIDTH 240 0
DWIDTH 4 0
BBX 4 12 0 0
BITMAP
60
20
20
20
20
30
E0
20
20
20
20
60
ENDCHAR
STARTCHAR 0143
ENCODING 323
SWIDTH 720 0
DWIDTH 12 0
BBX 10 16 1 0
BITMAP
0100
0300
0400
0000
0000
E040
6040
5040
5840
4C40
4640
4240
4340
41C0
40C0
E040
ENDCHAR
STARTCHAR 0144
ENCODING 324
SWIDTH 480 0
DWIDTH 8 0
BBX 7 12 1 0
BITMAP
08
08
10
10
00
7C
44
44
44
44
44
C6
ENDCHAR
STARTCHAR 0145
ENCODING 325
SWIDTH 720 0
DWIDTH 12 0
BBX 10 15 1 -4
BITMAP
E040
6040
5040
5840
4C40
4640
4240
4340
41C0
40C0
E040
0000
0600
0200
0C00
ENDCHAR
STARTCHAR 0146
ENCODING 326
SWIDTH 480 0
DWIDTH 8 0
BBX 7 11 1 -4
BITMAP
7C
44
44
44
44
44
C6
00
18
08
30
ENDCHAR
STARTCHAR 0147
ENCODING 327
SWIDTH 720 0
DWIDTH 12 0
BBX 10 15 1 0
BITMAP
1300
0C00
0000
0000
E040
6040
5040
5840
4C40
4640
4240
4340
41C0
40C0
E040
ENDCHAR
STARTCHAR 0148
ENCODING 328
SWIDTH 480 0
DWIDTH 8 0
BBX 7 12 1 0
BITMAP
24
14
18
00
00
7C
44
44
44
44
44
C6
ENDCHAR
STARTCHAR 0149
ENCODING 329
SWIDTH 480 0
DWIDTH 8 0
BBX 7 12 1 0
BITMAP
C0
40
80
80
00
7C
44
44
44
44
44
C6
ENDCHAR
STARTCHAR 014A
ENCODING 330
SWIDTH 720 0
DWIDTH 12 0
BBX 10 16 1 -5
BITMAP
E040
6040
5040
5840
4C40
4640
4240
4340
41C0
40C0
E040
0040
0040
0080
0280
0100
ENDCHAR
STARTCHAR 014B
ENCODING 331
SWIDTH 480 0
DWIDTH 8 0
BBX 6 12 1 -5
BITMAP
7C
44
44
44
44
44
C4
04
04
04
14
18
ENDCHAR
STARTCHAR 014C
ENCODING 332
SWIDTH 720 0
DWIDTH 12 0
BBX 10 15 1 -1
BITMAP
3F00
0000
0000
3F00
4080
C0C0
C040
8040
8040
8040
C040
C0C0
6080
3B00
0400
ENDCHAR
STARTCHAR 014D
ENCODING 333
SWIDTH 480 0
DWIDTH 8 0
BBX 7 11 1 -1
BITMAP
7C
00
00
78
84
86
86
86
C4
68
10
ENDCHAR
STARTCHAR 014E
ENCODING 334
SWIDTH 720 0
DWIDTH 12 0
BBX 10 16 1 -1
BITMAP
0200
1200
0C00
0000
3F00
4080
C0C0
C040
8040
8040
8040
C040
C0C0
6080
3B00
0400
ENDCHAR
STARTCHAR 014F
ENCODING 335
SWIDTH 480 0
DWIDTH 8 0
BBX 7 12 1 -1
BITMAP
08
48
30
00
78
84
86
86
86
C4
68
10
ENDCHAR
STARTCHAR 0150
ENCODING 336
SWIDTH 720 0
DWIDTH 12 0
BBX 10 17 1 -1
BITMAP
0900
0900
1200
1200
0000
3F00
4080
C0C0
C040
8040
8040
8040
C040
C0C0
6080
3B00
0400
ENDCHAR
STARTCHAR 0151
ENCODING 337
SWIDTH 480 0
DWIDTH 8 0
BBX 7 13 1 -1
BITMAP
28
28
50
50
00
78
84
86
86
86
C4
68
10
ENDCHAR
STARTCHAR 0152
ENCODING 338
SWIDTH 960 0
DWIDTH 16 0
BBX 14 11 1 0
BITMAP
3FFC
6104
4104
C100
8110
81F0
8110
C110
C100
6184
3FFC
ENDCHAR
STARTCHAR 0153
ENCODING 339
SWIDTH 720 0
DWIDTH 12 0
BBX 11 8 1 -1
BITMAP
79C0
8620
87C0
8600
8600
8600
49C0
3000
ENDCHAR
STARTCHAR 0154
ENCODING 340
SWIDTH 660 0
DWIDTH 11 0
BBX 10 16 1 0
BITMAP
0200
0600
0800
0000
0000
7E00
6100
6100
6100
6100
6E00
7400
6600
6300
6180
F0C0
ENDCHAR
STARTCHAR 0155
ENCODING 341
SWIDTH 300 0
DWIDTH 5 0
BBX 5 12 1 0
BITMAP
20
20
40
40
00
F8
C0
C0
C0
C0
C0
C0
ENDCHAR
STARTCHAR 0156
ENCODING 342
SWIDTH 660 0
DWIDTH 11 0
BBX 10 15 1 -4
BITMAP
7E00
6100
6100
6100
6100
6E00
7400
6600
6300
6180
F0C0
0000
0600
0200
0C00
ENDCHAR
STARTCHAR 0157
ENCODING 343
SWIDTH 300 0
DWIDTH 5 0
BBX 5 11 1 -4
BITMAP
F8
C0
C0
C0
C0
C0
C0
40
C0
40
C0
ENDCHAR
STARTCHAR 0158
ENCODING 344
SWIDTH 660 0
DWIDTH 11 0
BBX 10 15 1 0
BITMAP
2600
1800
0000
0000
7E00
6100
6100
6100
6100
6E00
7400
6600
6300
6180
F0C0
ENDCHAR
STARTCHAR 0159
ENCODING 345
SWIDTH 300 0
DWIDTH 5 0
BBX 5 12 1 0
BITMAP
90
50
60
00
00
F8
C0
C0
C0
C0
C0
C0
ENDCHAR
STARTCHAR 015A
ENCODING 346
SWIDTH 480 0
DWIDTH 8 0
BBX 7 17 1 -1
BITMAP
04
0C
10
00
00
7C
84
80
C0
70
3C
06
02
82
84
6C
10
ENDCHAR
STARTCHAR 015B
ENCODING 347
SWIDTH 300 0
DWIDTH 5 0
BBX 4 13 1 -1
BITMAP
20
20
40
40
00
F0
80
80
70
10
10
90
60
ENDCHAR
STARTCHAR 015C
ENCODING 348
SWIDTH 480 0
DWIDTH 8 0
BBX 7 16 1 -1
BITMAP
30
48
00
00
7C
84
80
C0
70
3C
06
02
82
84
6C
10
ENDCHAR
STARTCHAR 015D
ENCODING 349
SWIDTH 300 0
DWIDTH 5 0
BBX 4 13 1 -1
BITMAP
20
60
90
00
00
F0
80
80
70
10
10
90
60
ENDCHAR
STARTCHAR 015E
ENCODING 350
SWIDTH 480 0
DWIDTH 8 0
BBX 7 15 1 -4
BITMAP
7C
84
80
C0
70
3C
06
02
82
84
6C
10
30
10
30
ENDCHAR
STARTCHAR 015F
ENCODING 351
SWIDTH 300 0
DWIDTH 5 0
BBX 4 11 1 -4
BITMAP
F0
80
80
70
10
10
90
60
60
20
60
ENDCHAR
STARTCHAR 0160
ENCODING 352
SWIDTH 480 0
DWIDTH 8 0
BBX 7 16 1 -1
BITMAP
4C
30
00
00
7C
84
80
C0
70
3C
06
02
82
84
6C
10
ENDCHAR
STARTCHAR 0161
ENCODING 353
SWIDTH 300 0
DWIDTH 5 0
BBX 4 13 1 -1
BITMAP
90
50
60
00
00
F0
80
80
70
10
10
90
60
ENDCHAR
STARTCHAR 0162
ENCODING 354
SWIDTH 780 0
DWIDTH 13 0
BBX 13 15 0 -4
BITMAP
FFF8
8208
8208
0200
0200
0200
0200
0200
0200
0200
0F80
0200
0600
0200
0600
ENDCHAR
STARTCHAR 0163
ENCODING 355
SWIDTH 300 0
DWIDTH 5 0
BBX 4 12 1 -4
BITMAP
40
F0
40
40
40
40
40
70
20
60
20
60
ENDCHAR
STARTCHAR 0164
ENCODING 356
SWIDTH 780 0
DWIDTH 13 0
BBX 13 15 0 0
BITMAP
0980
0600
0000
0000
FFF8
8208
8208
0200
0200
0200
0200
0200
0200
0200
0F80
ENDCHAR
STARTCHAR 0165
ENCODING 357
SWIDTH 480 0
DWIDTH 8 0
BBX 7 12 1 0
BITMAP
06
02
04
04
40
F0
40
40
40
40
40
70
ENDCHAR
STARTCHAR 0166
ENCODING 358
SWIDTH 780 0
DWIDTH 13 0
BBX 13 11 0 0
BITMAP
FFF8
8208
8208
0200
0200
0200
1FC0
0200
0200
0200
0F80
ENDCHAR
STARTCHAR 0167
ENCODING 359
SWIDTH 300 0
DWIDTH 5 0
BBX 6 8 0 0
BITMAP
20
78
20
FC
20
20
20
38
ENDCHAR
STARTCHAR 0168
ENCODING 360
SWIDTH 720 0
DWIDTH 12 0
BBX 10 15 1 -1
BITMAP
1F00
0000
0000
E0C0
4040
4040
4040
4040
4040
4040
6040
6080
2080
3B00
0400
ENDCHAR
STARTCHAR 0169
ENCODING 361
SWIDTH 480 0
DWIDTH 8 0
BBX 7 10 1 0
BITMAP
7C
00
00
CC
C4
C4
C4
C4
44
7E
ENDCHAR
STARTCHAR 016A
ENCODING 362
SWIDTH 720 0
DWIDTH 12 0
BBX 10 15 1 -1
BITMAP
3F00
0000
0000
E0C0
4040
4040
4040
4040
4040
4040
6040
6080
2080
3B00
0400
ENDCHAR
STARTCHAR 016B
ENCODING 363
SWIDTH 480 0
DWIDTH 8 0
BBX 7 10 1 0
BITMAP
7C
00
00
CC
C4
C4
C4
C4
44
7E
ENDCHAR
STARTCHAR 016C
ENCODING 364
SWIDTH 720 0
DWIDTH 12 0
BBX 10 16 1 -1
BITMAP
0200
1200
0C00
0000
E0C0
4040
4040
4040
4040
4040
4040
6040
6080
2080
3B00
0400
ENDCHAR
STARTCHAR 016D
ENCODING 365
SWIDTH 480 0
DWIDTH 8 0
BBX 7 11 1 0
BITMAP
08
48
30
00
CC
C4
C4
C4
C4
44
7E
ENDCHAR
STARTCHAR 016E
ENCODING 366
SWIDTH 720 0
DWIDTH 12 0
BBX 10 16 1 -1
BITMAP
1E00
1200
0C00
0000
E0C0
4040
4040
4040
4040
4040
4040
6040
6080
2080
3B00
0400
ENDCHAR
STARTCHAR 016F
ENCODING 367
SWIDTH 480 0
DWIDTH 8 0
BBX 7 11 1 0
BITMAP
78
48
30
00
CC
C4
C4
C4
C4
44
7E
ENDCHAR
STARTCHAR 0170
ENCODING 368
SWIDTH 720 0
DWIDTH 12 0
BBX 10 17 1 -1
BITMAP
0500
0500
0A00
0A00
0000
E0C0
4040
4040
4040
4040
4040
4040
6040
6080
2080
3B00
0400
ENDCHAR
STARTCHAR 0171
ENCODING 369
SWIDTH 480 0
DWIDTH 8 0
BBX 7 12 1 0
BITMAP
24
24
48
48
00
CC
C4
C4
C4
C4
44
7E
ENDCHAR
STARTCHAR 0172
ENCODING 370
SWIDTH 720 0
DWIDTH 12 0
BBX 10 15 1 -4
BITMAP
E0C0
4040
4040
4040
4040
4040
4040
6040
6080
2080
3B00
0400
0800
0800
0C00
ENDCHAR
STARTCHAR 0173
ENCODING 371
SWIDTH 480 0
DWIDTH 8 0
BBX 7 11 1 -4
BITMAP
CC
C4
C4
C4
C4
44
7E
00
08
08
0C
ENDCHAR
STARTCHAR 0174
ENCODING 372
SWIDTH 960 0
DWIDTH 16 0
BBX 15 15 1 0
BITMAP
0300
0480
0000
0000
CE46
4684
6284
6388
2308
3110
1190
1AA0
0CE0
0C40
0040
ENDCHAR
STARTCHAR 0175
ENCODING 373
SWIDTH 660 0
DWIDTH 11 0
BBX 10 12 1 0
BITMAP
0400
0C00
1200
0000
0000
CC40
CC80
5480
5500
7300
2300
2200
ENDCHAR
STARTCHAR 0176
ENCODING 374
SWIDTH 600 0
DWIDTH 10 0
BBX 9 15 1 0
BITMAP
1800
2400
0000
0000
C180
4100
6200
2400
3400
1800
1800
1800
1800
1800
3C00
ENDCHAR
STARTCHAR 0177
ENCODING 375
SWIDTH 360 0
DWIDTH 6 0
BBX 7 16 0 -4
BITMAP
10
30
48
00
00
C6
44
64
28
28
30
10
10
20
20
C0
ENDCHAR
STARTCHAR 0178
ENCODING 376
SWIDTH 600 0
DWIDTH 10 0
BBX 9 15 1 0
BITMAP
2200
3600
0000
0000
C180
4100
6200
2400
3400
1800
1800
1800
1800
1800
3C00
ENDCHAR
STARTCHAR 0179
ENCODING 377
SWIDTH 600 0
DWIDTH 10 0
BBX 9 16 1 0
BITMAP
0200
0600
0800
0000
0000
FF80
8300
8200
0600
0C00
1800
1000
3000
6080
4080
FF80
ENDCHAR
STARTCHAR 017A
ENCODING 378
SWIDTH 360 0
DWIDTH 6 0
BBX 5 12 1 0
BITMAP
10
10
20
20
00
F0
30
20
60
40
C8
F8
ENDCHAR
STARTCHAR 017B
ENCODING 379
SWIDTH 600 0
DWIDTH 10 0
BBX 9 14 1 0
BITMAP
1800
0000
0000
FF80
8300
8200
0600
0C00
1800
1000
3000
6080
4080
FF80
ENDCHAR
STARTCHAR 017C
ENCODING 380
SWIDTH 360 0
DWIDTH 6 0
BBX 5 10 1 0
BITMAP
60
00
00
F0
30
20
60
40
C8
F8
ENDCHAR
STARTCHAR 017D
ENCODING 381
SWIDTH 600 0
DWIDTH 10 0
BBX 9 15 1 0
BITMAP
2600
1800
0000
0000
FF80
8300
8200
0600
0C00
1800
1000
3000
6080
4080
FF80
ENDCHAR
STARTCHAR 017E
ENCODING 382
SWIDTH 360 0
DWIDTH 6 0
BBX 5 12 1 0
BITMAP
90
50
60
00
00
F0
30
20
60
40
C8
F8
ENDCHAR
STARTCHAR 017F
ENCODING 383
SWIDTH 240 0
DWIDTH 4 0
BBX 6 12 1 0
BITMAP
3C
40
40
40
40
C0
40
40
40
40
40
C0
ENDCHAR
STARTCHAR 0180
ENCODING 384
SWIDTH 480 0
DWIDTH 8 0
BBX 9 13 -1 -1
BITMAP
3000
3000
FC00
3000
3000
3E00
3100
3180
3180
3180
3100
3A00
0400
ENDCHAR
STARTCHAR 0181
ENCODING 385
SWIDTH 600 0
DWIDTH 10 0
BBX 11 12 -2 -1
BITMAP
7FC0
8C40
4C60
0C40
0CC0
0FC0
0C60
0C20
0C20
0C60
1EC0
0100
ENDCHAR
STARTCHAR 0182
ENCODING 386
SWIDTH 600 0
DWIDTH 10 0
BBX 8 12 1 -1
BITMAP
7F
61
60
60
60
7E
63
61
61
63
F6
08
ENDCHAR
STARTCHAR 0183
ENCODING 387
SWIDTH 480 0
DWIDTH 8 0
BBX 7 12 1 -1
BITMAP
FC
C0
C0
C0
F8
C4
C6
C6
C6
C4
E8
10
ENDCHAR
STARTCHAR 0184
ENCODING 388
SWIDTH 600 0
DWIDTH 10 0
BBX 8 12 1 -1
BITMAP
20
60
E0
60
60
7E
63
61
61
63
F6
08
ENDCHAR
STARTCHAR 0185
ENCODING 389
SWIDTH 480 0
DWIDTH 8 0
BBX 8 11 0 -1
BITMAP
20
E0
60
7C
62
63
63
63
62
74
08
ENDCHAR
STARTCHAR 0186
ENCODING 390
SWIDTH 660 0
DWIDTH 11 0
BBX 10 12 1 -1
BITMAP
FE00
8100
0180
0080
00C0
00C0
0080
0080
8180
8300
E600
1800
ENDCHAR
STARTCHAR 0187
ENCODING 391
SWIDTH 660 0
DWIDTH 11 0
BBX 12 14 1 -1
BITMAP
0070
0080
3F80
6080
C000
C000
8000
8000
8000
C000
C040
6040
1980
0600
ENDCHAR
STARTCHAR 0188
ENCODING 392
SWIDTH 360 0
DWIDTH 6 0
BBX 7 9 1 0
BITMAP
06
08
78
C0
80
80
80
C0
78
ENDCHAR
STARTCHAR 0189
ENCODING 393
SWIDTH 720 0
DWIDTH 12 0
BBX 12 12 0 -1
BITMAP
3F80
3060
3020
3030
3030
FC30
3030
3020
3060
3040
7B80
0400
ENDCHAR
STARTCHAR 018A
ENCODING 394
SWIDTH 720 0
DWIDTH 12 0
BBX 14 12 -2 -1
BITMAP
7FE0
8C18
4C08
0C0C
0C0C
0C0C
0C0C
0C08
0C18
0C10
1EE0
0100
ENDCHAR
STARTCHAR 018B
ENCODING 395
SWIDTH 540 0
DWIDTH 9 0
BBX 8 12 1 -1
BITMAP
FE
86
06
06
06
7E
C6
86
86
86
6F
10
ENDCHAR
STARTCHAR 018C
ENCODING 396
SWIDTH 480 0
DWIDTH 8 0
BBX 7 11 1 0
BITMAP
FC
84
04
04
7C
84
84
84
84
C4
7E
ENDCHAR
STARTCHAR 018D
ENCODING 397
SWIDTH 420 0
DWIDTH 7 0
BBX 6 11 1 -1
BITMAP
78
8C
8C
84
8C
48
30
0C
04
48
30
ENDCHAR
STARTCHAR 018E
ENCODING 398
SWIDTH 600 0
DWIDTH 10 0
BBX 9 11 1 0
BITMAP
FF00
8200
8200
0200
2200
3E00
2200
2200
0200
8200
FF80
ENDCHAR
STARTCHAR 018F
ENCODING 399
SWIDTH 720 0
DWIDTH 12 0
BBX 10 12 1 -1
BITMAP
3F00
4080
00C0
0040
0040
0040
FFC0
C040
C0C0
6080
3B00
0400
ENDCHAR
STARTCHAR 0190
ENCODING 400
SWIDTH 420 0
DWIDTH 7 0
BBX 7 11 0 0
BITMAP
3E
62
62
20
18
60
40
C0
40
60
3E
ENDCHAR
STARTCHAR 0191
ENCODING 401
SWIDTH 540 0
DWIDTH 9 0
BBX 9 15 0 -4
BITMAP
3F80
3080
3000
3200
3200
3E00
3200
3200
3000
3000
3000
2000
2000
A000
C000
ENDCHAR
STARTCHAR 0192
ENCODING 402
SWIDTH 240 0
DWIDTH 4 0
BBX 8 17 -1 -5
BITMAP
0F
10
10
10
10
3C
10
10
10
10
10
10
10
10
10
A0
C0
ENDCHAR
STARTCHAR 0193
ENCODING 403
SWIDTH 660 0
DWIDTH 11 0
BBX 12 14 1 -1
BITMAP
0070
0080
3F80
6080
4000
C000
8000
8000
83C0
C080
4080
6080
19C0
0600
ENDCHAR
STARTCHAR 0194
ENCODING 404
SWIDTH 600 0
DWIDTH 10 0
BBX 10 11 1 0
BITMAP
C1C0
4100
6200
2400
3400
1800
0800
1C00
2400
2400
1C00
ENDCHAR
STARTCHAR 0195
ENCODING 405
SWIDTH 780 0
DWIDTH 13 0
BBX 12 13 1 -1
BITMAP
C000
4000
4000
4000
4000
7C60
4420
4630
4630
4630
4620
C340
0080
ENDCHAR
STARTCHAR 0196
ENCODING 406
SWIDTH 300 0
DWIDTH 5 0
BBX 4 12 1 0
BITMAP
20
E0
60
60
60
60
60
60
60
60
60
70
ENDCHAR
STARTCHAR 0197
ENCODING 407
SWIDTH 300 0
DWIDTH 5 0
BBX 4 11 1 0
BITMAP
60
60
60
60
60
F0
60
60
60
60
F0
ENDCHAR
STARTCHAR 0198
ENCODING 408
SWIDTH 660 0
DWIDTH 11 0
BBX 10 11 1 0
BITMAP
61C0
6200
6400
6800
7000
7800
6C00
6400
6200
6300
F3C0
ENDCHAR
STARTCHAR 0199
ENCODING 409
SWIDTH 540 0
DWIDTH 9 0
BBX 7 12 1 0
BITMAP
3C
40
40
40
40
44
48
50
70
58
4C
C6
ENDCHAR
STARTCHAR 019A
ENCODING 410
SWIDTH 240 0
DWIDTH 4 0
BBX 3 12 1 0
BITMAP
C0
40
40
40
40
40
E0
40
40
40
40
C0
ENDCHAR
STARTCHAR 019B
ENCODING 411
SWIDTH 360 0
DWIDTH 6 0
BBX 6 12 1 0
BITMAP
80
90
60
40
A0
20
60
50
50
88
88
84
ENDCHAR
STARTCHAR 019C
ENCODING 412
SWIDTH 960 0
DWIDTH 16 0
BBX 14 11 1 0
BITMAP
E38C
410C
410C
410C
410C
410C
410C
410C
410C
430C
3CFC
ENDCHAR
STARTCHAR 019D
ENCODING 413
SWIDTH 720 0
DWIDTH 12 0
BBX 12 15 -1 -4
BITMAP
3810
1810
1410
1610
1310
1190
1090
10D0
1070
1030
1010
1000
2000
A000
C000
ENDCHAR
STARTCHAR 019E
ENCODING 414
SWIDTH 480 0
DWIDTH 8 0
BBX 8 12 1 -5
BITMAP
7C
44
44
44
44
44
C4
04
04
04
04
0F
ENDCHAR
STARTCHAR 019F
ENCODING 415
SWIDTH 720 0
DWIDTH 12 0
BBX 10 12 1 -1
BITMAP
3F00
4080
C0C0
C040
8040
FFC0
8040
C040
40C0
6080
3B00
0400
ENDCHAR
STARTCHAR 01A0
ENCODING 416
SWIDTH 720 0
DWIDTH 12 0
BBX 10 13 1 -1
BITMAP
0040
3F40
4080
C0C0
C040
8040
8040
8040
C040
40C0
6080
3B00
0400
ENDCHAR
STARTCHAR 01A1
ENCODING 417
SWIDTH 480 0
DWIDTH 8 0
BBX 7 9 1 -1
BITMAP
02
7A
C4
86
86
86
C4
68
10
ENDCHAR
STARTCHAR 01A2
ENCODING 418
SWIDTH 840 0
DWIDTH 14 0
BBX 15 15 1 -4
BITMAP
3FF8
4088
C0C8
C048
8048
8048
8048
C048
40C8
6088
3B08
0408
0008
0008
003E
ENDCHAR
STARTCHAR 01A3
ENCODING 419
SWIDTH 600 0
DWIDTH 10 0
BBX 9 11 1 -4
BITMAP
7F00
C480
8680
8680
8680
C480
6880
1080
0080
0080
0180
ENDCHAR
STARTCHAR 01A4
ENCODING 420
SWIDTH 540 0
DWIDTH 9 0
BBX 11 11 -2 0
BITMAP
7FC0
8C60
4C20
0C20
0C60
0DC0
0E00
0C00
0C00
0C00
1E00
ENDCHAR
STARTCHAR 01A5
ENCODING 421
SWIDTH 480 0
DWIDTH 8 0
BBX 7 15 0 -5
BITMAP
38
20
20
7C
62
62
62
62
62
64
78
60
60
60
F0
ENDCHAR
STARTCHAR 01A6
ENCODING 422
SWIDTH 660 0
DWIDTH 11 0
BBX 10 14 1 -1
BITMAP
6000
6000
7E00
6100
6100
6100
6100
6E00
7400
6600
6200
6300
F180
00C0
ENDCHAR
STARTCHAR 01A7
ENCODING 423
SWIDTH 480 0
DWIDTH 8 0
BBX 7 12 1 -1
BITMAP
7C
02
02
06
1C
78
C0
80
82
82
6C
10
ENDCHAR
STARTCHAR 01A8
ENCODING 424
SWIDTH 300 0
DWIDTH 5 0
BBX 4 8 1 -1
BITMAP
F0
10
10
E0
80
80
90
60
ENDCHAR
STARTCHAR 01A9
ENCODING 425
SWIDTH 600 0
DWIDTH 10 0
BBX 8 10 1 0
BITMAP
FE
C0
60
30
10
10
20
41
81
FF
ENDCHAR
STARTCHAR 01AA
ENCODING 426
SWIDTH 240 0
DWIDTH 4 0
BBX 7 17 -1 -5
BITMAP
C0
A0
F0
10
10
10
10
10
10
10
10
10
10
10
10
10
0E
ENDCHAR
STARTCHAR 01AB
ENCODING 427
SWIDTH 300 0
DWIDTH 5 0
BBX 4 10 1 -2
BITMAP
40
F0
40
40
40
40
40
70
10
60
ENDCHAR
STARTCHAR 01AC
ENCODING 428
SWIDTH 780 0
DWIDTH 13 0
BBX 13 11 0 0
BITMAP
7FF8
8208
C208
0200
0200
0200
0200
0200
0200
0200
0F80
ENDCHAR
STARTCHAR 01AD
ENCODING 429
SWIDTH 300 0
DWIDTH 5 0
BBX 5 12 1 0
BITMAP
38
40
40
40
40
F0
40
40
40
40
40
70
ENDCHAR
STARTCHAR 01AE
ENCODING 430
SWIDTH 780 0
DWIDTH 13 0
BBX 13 14 0 -3
BITMAP
FFF8
8208
8208
0200
0200
0200
0200
0200
0200
0200
0200
0200
0200
01C0
ENDCHAR
STARTCHAR 01AF
ENCODING 431
SWIDTH 720 0
DWIDTH 12 0
BBX 12 14 1 -1
BITMAP
0010
0010
E0E0
4040
4040
4040
4040
4040
4040
6040
6080
2080
3B00
0400
ENDCHAR
STARTCHAR 01B0
ENCODING 432
SWIDTH 480 0
DWIDTH 8 0
BBX 8 9 1 0
BITMAP
01
01
CE
C4
C4
C4
C4
44
7E
ENDCHAR
STARTCHAR 01B1
ENCODING 433
SWIDTH 720 0
DWIDTH 12 0
BBX 10 12 1 -1
BITMAP
2100
4080
C0C0
C040
8040
8040
8040
C040
40C0
6080
3B00
0400
ENDCHAR
STARTCHAR 01B2
ENCODING 434
SWIDTH 720 0
DWIDTH 12 0
BBX 10 12 1 -1
BITMAP
E380
4040
4040
4040
4040
4040
4040
6040
6040
2080
3B00
0400
ENDCHAR
STARTCHAR 01B3
ENCODING 435
SWIDTH 720 0
DWIDTH 12 0
BBX 12 11 0 0
BITMAP
F830
8820
8C40
0440
0280
0300
0100
0100
0100
0100
0780
ENDCHAR
STARTCHAR 01B4
ENCODING 436
SWIDTH 360 0
DWIDTH 6 0
BBX 9 13 0 -5
BITMAP
0380
C400
4400
6400
2800
2800
3000
1000
1000
2000
2000
C000
4000
ENDCHAR
STARTCHAR 01B5
ENCODING 437
SWIDTH 600 0
DWIDTH 10 0
BBX 9 11 1 0
BITMAP
FF80
8300
8200
0600
0C00
7F00
1000
3000
6000
4080
FF80
ENDCHAR
STARTCHAR 01B6
ENCODING 438
SWIDTH 360 0
DWIDTH 6 0
BBX 5 7 1 0
BITMAP
F0
30
20
F8
40
C8
F8
ENDCHAR
STARTCHAR 01B7
ENCODING 439
SWIDTH 480 0
DWIDTH 8 0
BBX 7 12 1 -1
BITMAP
FC
84
08
30
5C
06
06
06
06
84
C8
30
ENDCHAR
STARTCHAR 01B8
ENCODING 440
SWIDTH 480 0
DWIDTH 8 0
BBX 7 12 1 -1
BITMAP
FC
40
20
10
6C
C0
80
80
80
C6
6C
10
ENDCHAR
STARTCHAR 01B9
ENCODING 441
SWIDTH 420 0
DWIDTH 7 0
BBX 7 12 0 -5
BITMAP
FE
42
20
10
3C
40
C0
C0
C0
42
66
1C
ENDCHAR
STARTCHAR 01BA
ENCODING 442
SWIDTH 420 0
DWIDTH 7 0
BBX 6 11 1 -4
BITMAP
FC
08
10
20
78
08
30
40
80
C4
78
ENDCHAR
STARTCHAR 01BB
ENCODING 443
SWIDTH 420 0
DWIDTH 7 0
BBX 7 11 0 0
BITMAP
3C
46
06
06
04
0C
3E
10
20
42
FE
ENDCHAR
STARTCHAR 01BC
ENCODING 444
SWIDTH 420 0
DWIDTH 7 0
BBX 6 11 1 0
BITMAP
F8
80
80
E0
F8
0C
04
04
0C
88
F0
ENDCHAR
STARTCHAR 01BD
ENCODING 445
SWIDTH 360 0
DWIDTH 6 0
BBX 5 8 1 -1
BITMAP
F8
80
F0
08
08
08
90
60
ENDCHAR
STARTCHAR 01BE
ENCODING 446
SWIDTH 360 0
DWIDTH 6 0
BBX 5 9 1 -1
BITMAP
40
F0
40
40
38
08
88
48
30
ENDCHAR
STARTCHAR 01BF
ENCODING 447
SWIDTH 420 0
DWIDTH 7 0
BBX 6 11 1 -4
BITMAP
F8
CC
C4
C4
CC
C8
F0
C0
C0
C0
C0
ENDCHAR
STARTCHAR 01C0
ENCODING 448
SWIDTH 240 0
DWIDTH 4 0
BBX 1 15 2 -3
BITMAP
80
80
80
80
80
80
80
80
80
80
80
80
80
80
80
ENDCHAR
STARTCHAR 01C1
ENCODING 449
SWIDTH 360 0
DWIDTH 6 0
BBX 3 15 2 -3
BITMAP
A0
A0
A0
A0
A0
A0
A0
A0
A0
A0
A0
A0
A0
A0
A0
ENDCHAR
STARTCHAR 01C2
ENCODING 450
SWIDTH 420 0
DWIDTH 7 0
BBX 7 15 0 -3
BITMAP
10
10
10
10
10
FE
10
FE
10
10
10
10
10
10
10
ENDCHAR
STARTCHAR 01C3
ENCODING 451
SWIDTH 240 0
DWIDTH 4 0
BBX 2 12 1 0
BITMAP
40
C0
C0
40
40
40
40
80
00
00
C0
C0
ENDCHAR
STARTCHAR 01C4
ENCODING 452
SWIDTH 1320 0
DWIDTH 22 0
BBX 22 16 1 -1
BITMAP
000130
0000C0
000000
000000
7F07FC
60C418
604410
606030
606060
6060C0
606080
604180
60C304
608204
F707FC
080000
ENDCHAR
STARTCHAR 01C5
ENCODING 453
SWIDTH 1080 0
DWIDTH 18 0
BBX 18 13 1 -1
BITMAP
000480
7F0280
60C300
604000
606000
606780
606180
606100
604300
60C200
608640
F707C0
080000
ENDCHAR
STARTCHAR 01C6
ENCODING 454
SWIDTH 840 0
DWIDTH 14 0
BBX 13 12 1 0
BITMAP
0C90
0450
0460
0400
0400
7CF0
8430
8420
8460
8440
C4C8
7EF8
ENDCHAR
STARTCHAR 01C7
ENCODING 455
SWIDTH 1020 0
DWIDTH 17 0
BBX 14 14 1 -3
BITMAP
600C
600C
600C
600C
600C
600C
600C
600C
604C
60CC
FFCC
0008
0008
0070
ENDCHAR
STARTCHAR 01C8
ENCODING 456
SWIDTH 900 0
DWIDTH 15 0
BBX 13 16 1 -5
BITMAP
6000
6018
6000
6000
6018
6008
6008
6008
6048
60C8
FFC8
0008
0008
0008
0050
0060
ENDCHAR
STARTCHAR 01C9
ENCODING 457
SWIDTH 480 0
DWIDTH 8 0
BBX 6 17 1 -5
BITMAP
C0
40
4C
40
40
4C
44
44
44
44
44
C4
04
04
04
28
30
ENDCHAR
STARTCHAR 01CA
ENCODING 458
SWIDTH 1080 0
DWIDTH 18 0
BBX 15 14 1 -3
BITMAP
E046
6046
5046
5846
4C46
4646
4246
4346
41C6
40C6
E046
0004
0004
0038
ENDCHAR
STARTCHAR 01CB
ENCODING 459
SWIDTH 960 0
DWIDTH 16 0
BBX 14 16 1 -5
BITMAP
E040
604C
5040
5840
4C4C
4644
4244
4344
41C4
40C4
E044
0004
0004
0004
0028
0030
ENDCHAR
STARTCHAR 01CC
ENCODING 460
SWIDTH 720 0
DWIDTH 12 0
BBX 11 15 1 -5
BITMAP
0060
0000
0000
7C60
4420
4420
4420
4420
4420
C620
0020
0020
0020
0140
0180
ENDCHAR
STARTCHAR 01CD
ENCODING 461
SWIDTH 660 0
DWIDTH 11 0
BBX 11 15 0 0
BITMAP
1300
0C00
0000
0000
0600
0A00
0A00
0B00
1100
1100
1F80
2080
2080
40C0
F1E0
ENDCHAR
STARTCHAR 01CE
ENCODING 462
SWIDTH 360 0
DWIDTH 6 0
BBX 6 12 1 0
BITMAP
90
50
60
00
00
F0
90
10
30
D0
90
FC
ENDCHAR
STARTCHAR 01CF
ENCODING 463
SWIDTH 300 0
DWIDTH 5 0
BBX 5 15 1 0
BITMAP
98
60
00
00
60
60
60
60
60
60
60
60
60
60
F0
ENDCHAR
STARTCHAR 01D0
ENCODING 464
SWIDTH 240 0
DWIDTH 4 0
BBX 4 13 0 -1
BITMAP
90
50
60
00
00
20
20
20
20
20
20
60
10
ENDCHAR
STARTCHAR 01D1
ENCODING 465
SWIDTH 720 0
DWIDTH 12 0
BBX 10 16 1 -1
BITMAP
1300
0C00
0000
0000
3F00
4080
C0C0
C040
8040
8040
8040
C040
C0C0
6080
3B00
0400
ENDCHAR
STARTCHAR 01D2
ENCODING 466
SWIDTH 480 0
DWIDTH 8 0
BBX 7 13 1 -1
BITMAP
48
28
30
00
00
78
84
86
86
86
C4
68
10
ENDCHAR
STARTCHAR 01D3
ENCODING 467
SWIDTH 720 0
DWIDTH 12 0
BBX 10 16 1 -1
BITMAP
1300
0C00
0000
0000
E0C0
4040
4040
4040
4040
4040
4040
6040
6080
2080
3B00
0400
ENDCHAR
STARTCHAR 01D4
ENCODING 468
SWIDTH 480 0
DWIDTH 8 0
BBX 7 12 1 0
BITMAP
48
28
30
00
00
CC
C4
C4
C4
C4
44
7E
ENDCHAR
STARTCHAR 01D5
ENCODING 469
SWIDTH 720 0
DWIDTH 12 0
BBX 10 17 1 -1
BITMAP
3F00
1100
1B00
0000
0000
E0C0
4040
4040
4040
4040
4040
4040
6040
6080
2080
3B00
0400
ENDCHAR
STARTCHAR 01D6
ENCODING 470
SWIDTH 480 0
DWIDTH 8 0
BBX 7 12 1 0
BITMAP
7C
00
6C
00
00
CC
C4
C4
C4
C4
44
7E
ENDCHAR
STARTCHAR 01D7
ENCODING 471
SWIDTH 720 0
DWIDTH 12 0
BBX 10 19 1 -1
BITMAP
0100
0300
0400
1100
1B00
0000
0000
E0C0
4040
4040
4040
4040
4040
4040
6040
6080
2080
3B00
0400
ENDCHAR
STARTCHAR 01D8
ENCODING 472
SWIDTH 480 0
DWIDTH 8 0
BBX 7 14 1 0
BITMAP
10
10
20
20
6C
00
00
CC
C4
C4
C4
C4
44
7E
ENDCHAR
STARTCHAR 01D9
ENCODING 473
SWIDTH 720 0
DWIDTH 12 0
BBX 10 18 1 -1
BITMAP
1300
0C00
1100
1B00
0000
0000
E0C0
4040
4040
4040
4040
4040
4040
6040
6080
2080
3B00
0400
ENDCHAR
STARTCHAR 01DA
ENCODING 474
SWIDTH 480 0
DWIDTH 8 0
BBX 7 14 1 0
BITMAP
48
28
30
00
6C
00
00
CC
C4
C4
C4
C4
44
7E
ENDCHAR
STARTCHAR 01DB
ENCODING 475
SWIDTH 720 0
DWIDTH 12 0
BBX 10 19 1 -1
BITMAP
2000
1000
0C00
1100
1B00
0000
0000
E0C0
4040
4040
4040
4040
4040
4040
6040
6080
2080
3B00
0400
ENDCHAR
STARTCHAR 01DC
ENCODING 476
SWIDTH 480 0
DWIDTH 8 0
BBX 7 14 1 0
BITMAP
20
20
10
00
6C
00
00
CC
C4
C4
C4
C4
44
7E
ENDCHAR
STARTCHAR 01DD
ENCODING 477
SWIDTH 360 0
DWIDTH 6 0
BBX 5 8 1 -1
BITMAP
F0
18
08
08
08
F8
50
20
ENDCHAR
STARTCHAR 01DE
ENCODING 478
SWIDTH 660 0
DWIDTH 11 0
BBX 11 16 0 0
BITMAP
1F80
1100
1B00
0000
0000
0600
0A00
0A00
0B00
1100
1100
1F80
2080
2080
40C0
F1E0
ENDCHAR
STARTCHAR 01DF
ENCODING 479
SWIDTH 360 0
DWIDTH 6 0
BBX 6 12 1 0
BITMAP
F8
00
D8
00
00
F0
90
10
30
D0
90
FC
ENDCHAR
STARTCHAR 01E0
ENCODING 480
SWIDTH 660 0
DWIDTH 11 0
BBX 11 16 0 0
BITMAP
1F80
0000
0600
0000
0000
0600
0A00
0A00
0B00
1100
1100
1F80
2080
2080
40C0
F1E0
ENDCHAR
STARTCHAR 01E1
ENCODING 481
SWIDTH 360 0
DWIDTH 6 0
BBX 6 12 1 0
BITMAP
F8
00
60
00
00
F0
90
10
30
D0
90
FC
ENDCHAR
STARTCHAR 01E2
ENCODING 482
SWIDTH 840 0
DWIDTH 14 0
BBX 15 14 -1 0
BITMAP
01F8
0000
0000
03FC
0384
0584
0580
0980
0FF0
1180
2180
2182
4182
F3FE
ENDCHAR
STARTCHAR 01E3
ENCODING 483
SWIDTH 540 0
DWIDTH 9 0
BBX 9 10 0 0
BITMAP
3E00
0000
0000
7F80
C980
0E00
3800
4800
4C00
7780
ENDCHAR
STARTCHAR 01E4
ENCODING 484
SWIDTH 660 0
DWIDTH 11 0
BBX 10 12 1 -1
BITMAP
3F80
6080
4000
C000
8000
8000
83C0
C080
43C0
6080
19C0
0600
ENDCHAR
STARTCHAR 01E5
ENCODING 485
SWIDTH 420 0
DWIDTH 7 0
BBX 8 12 0 -5
BITMAP
3F
46
46
44
38
40
7C
27
41
FF
62
3C
ENDCHAR
STARTCHAR 01E6
ENCODING 486
SWIDTH 660 0
DWIDTH 11 0
BBX 10 16 1 -1
BITMAP
1300
0C00
0000
0000
3F80
6080
4000
C000
8000
8000
83C0
C080
4080
6080
19C0
0600
ENDCHAR
STARTCHAR 01E7
ENCODING 487
SWIDTH 420 0
DWIDTH 7 0
BBX 8 17 0 -5
BITMAP
48
28
30
00
00
3F
46
44
44
38
40
7C
27
41
C1
62
3C
ENDCHAR
STARTCHAR 01E8
ENCODING 488
SWIDTH 660 0
DWIDTH 11 0
BBX 10 15 1 0
BITMAP
2600
1800
0000
0000
6300
6200
6400
6800
7000
7800
6C00
6400
6200
6300
F3C0
ENDCHAR
STARTCHAR 01E9
ENCODING 489
SWIDTH 480 0
DWIDTH 8 0
BBX 8 16 0 0
BITMAP
98
60
00
00
60
20
20
20
20
22
24
28
38
2C
26
63
ENDCHAR
STARTCHAR 01EA
ENCODING 490
SWIDTH 720 0
DWIDTH 12 0
BBX 10 15 1 -4
BITMAP
3F00
4080
C0C0
C040
8040
8040
8040
C040
C0C0
6080
3B00
0400
1000
1000
1800
ENDCHAR
STARTCHAR 01EB
ENCODING 491
SWIDTH 480 0
DWIDTH 8 0
BBX 7 11 1 -4
BITMAP
78
84
86
86
86
C4
68
10
20
20
30
ENDCHAR
STARTCHAR 01EC
ENCODING 492
SWIDTH 720 0
DWIDTH 12 0
BBX 10 18 1 -4
BITMAP
3F00
0000
0000
3F00
4080
C0C0
C040
8040
8040
8040
C040
C0C0
6080
3B00
0400
1000
1000
1800
ENDCHAR
STARTCHAR 01ED
ENCODING 493
SWIDTH 480 0
DWIDTH 8 0
BBX 7 14 1 -4
BITMAP
7C
00
00
78
84
86
86
86
C4
68
10
20
20
30
ENDCHAR
STARTCHAR 01EE
ENCODING 494
SWIDTH 480 0
DWIDTH 8 0
BBX 7 16 1 -1
BITMAP
4C
30
00
00
FC
84
08
30
5C
06
06
06
06
84
C8
30
ENDCHAR
STARTCHAR 01EF
ENCODING 495
SWIDTH 420 0
DWIDTH 7 0
BBX 7 17 0 -5
BITMAP
24
14
18
00
00
7E
04
08
10
3C
02
02
02
02
82
C4
38
ENDCHAR
STARTCHAR 01F0
ENCODING 496
SWIDTH 240 0
DWIDTH 4 0
BBX 5 17 -1 -5
BITMAP
48
28
30
00
00
10
10
10
10
10
10
10
10
10
10
A0
C0
ENDCHAR
STARTCHAR 01F1
ENCODING 497
SWIDTH 1320 0
DWIDTH 22 0
BBX 22 12 1 -1
BITMAP
7F07FC
60C418
604410
606030
606060
6060C0
606080
604180
60C304
608204
F707FC
080000
ENDCHAR
STARTCHAR 01F2
ENCODING 498
SWIDTH 1080 0
DWIDTH 18 0
BBX 18 12 1 -1
BITMAP
7F0000
60C000
604000
606000
606780
606180
606100
604300
60C200
608640
F707C0
080000
ENDCHAR
STARTCHAR 01F3
ENCODING 499
SWIDTH 840 0
DWIDTH 14 0
BBX 13 12 1 0
BITMAP
0C00
0400
0400
0400
0400
7CF0
8430
8420
8460
8440
C4C8
7EF8
ENDCHAR
STARTCHAR 01F4
ENCODING 500
SWIDTH 660 0
DWIDTH 11 0
BBX 10 17 1 -1
BITMAP
0100
0300
0400
0000
0000
3F80
6080
4000
C000
8000
8000
83C0
C080
4080
6080
19C0
0600
ENDCHAR
STARTCHAR 01F5
ENCODING 501
SWIDTH 420 0
DWIDTH 7 0
BBX 8 17 0 -5
BITMAP
08
08
10
10
00
3F
46
44
44
38
40
7C
27
41
C1
62
3C
ENDCHAR
STARTCHAR 01F6
ENCODING 502
SWIDTH 960 0
DWIDTH 16 0
BBX 15 12 1 -1
BITMAP
60E0
6040
6040
6040
6044
7FC6
6042
6042
6042
6042
F024
0018
ENDCHAR
STARTCHAR 01F7
ENCODING 503
SWIDTH 540 0
DWIDTH 9 0
BBX 8 15 1 -4
BITMAP
FF
41
42
42
44
48
48
50
60
60
40
40
40
40
80
ENDCHAR
STARTCHAR 01F8
ENCODING 504
SWIDTH 720 0
DWIDTH 12 0
BBX 10 16 1 0
BITMAP
2000
1000
0C00
0000
0000
E040
6040
5040
5840
4C40
4640
4240
4340
41C0
40C0
E040
ENDCHAR
STARTCHAR 01F9
ENCODING 505
SWIDTH 480 0
DWIDTH 8 0
BBX 7 12 1 0
BITMAP
10
10
08
00
00
7C
44
44
44
44
44
C6
ENDCHAR
STARTCHAR 01FA
ENCODING 506
SWIDTH 660 0
DWIDTH 11 0
BBX 11 18 0 0
BITMAP
0100
0300
0400
0000
0600
0A00
0600
0600
0A00
0A00
0B00
1100
1100
1F80
2080
2080
40C0
F1E0
ENDCHAR
STARTCHAR 01FB
ENCODING 507
SWIDTH 360 0
DWIDTH 6 0
BBX 6 16 1 0
BITMAP
10
10
20
20
00
F0
90
60
00
F0
90
10
30
D0
90
FC
ENDCHAR
STARTCHAR 01FC
ENCODING 508
SWIDTH 840 0
DWIDTH 14 0
BBX 15 16 -1 0
BITMAP
0010
0030
0040
0000
0000
03FC
0384
0584
0580
0980
0FF0
1180
2180
2182
4182
F3FE
ENDCHAR
STARTCHAR 01FD
ENCODING 509
SWIDTH 540 0
DWIDTH 9 0
BBX 9 12 0 0
BITMAP
0400
0400
0800
0800
0000
7F80
C980
0E00
3800
4800
4C00
7780
ENDCHAR
STARTCHAR 01FE
ENCODING 510
SWIDTH 720 0
DWIDTH 12 0
BBX 10 17 1 -1
BITMAP
0100
0300
0400
0000
0000
3F80
4080
C1C0
C240
8440
8840
9040
E040
E0C0
6080
BB00
0400
ENDCHAR
STARTCHAR 01FF
ENCODING 511
SWIDTH 480 0
DWIDTH 8 0
BBX 7 13 1 -1
BITMAP
08
08
10
10
04
78
8C
96
A6
A6
C4
E8
10
ENDCHAR
STARTCHAR 0200
ENCODING 512
SWIDTH 660 0
DWIDTH 11 0
BBX 11 16 0 0
BITMAP
1400
1400
0A00
0000
0000
0600
0A00
0A00
0B00
1100
1100
1F80
2080
2080
40C0
F1E0
ENDCHAR
STARTCHAR 0201
ENCODING 513
SWIDTH 360 0
DWIDTH 6 0
BBX 7 12 0 0
BITMAP
90
90
48
00
00
78
48
08
18
68
48
7E
ENDCHAR
STARTCHAR 0202
ENCODING 514
SWIDTH 660 0
DWIDTH 11 0
BBX 11 14 0 0
BITMAP
0F00
1100
0000
0600
0A00
0A00
0B00
1100
1100
1F80
2080
2080
40C0
F1E0
ENDCHAR
STARTCHAR 0203
ENCODING 515
SWIDTH 360 0
DWIDTH 6 0
BBX 7 10 0 0
BITMAP
78
88
00
78
48
08
18
68
48
7E
ENDCHAR
STARTCHAR 0204
ENCODING 516
SWIDTH 600 0
DWIDTH 10 0
BBX 9 16 1 0
BITMAP
2800
2800
1400
0000
0000
7F00
6100
6100
6000
6400
7C00
6400
6000
6080
6080
FF80
ENDCHAR
STARTCHAR 0205
ENCODING 517
SWIDTH 360 0
DWIDTH 6 0
BBX 5 12 1 0
BITMAP
A0
A0
50
00
00
78
88
F0
80
80
C0
78
ENDCHAR
STARTCHAR 0206
ENCODING 518
SWIDTH 600 0
DWIDTH 10 0
BBX 9 14 1 0
BITMAP
1E00
2200
0000
7F00
6100
6100
6000
6400
7C00
6400
6000
6080
6080
FF80
ENDCHAR
STARTCHAR 0207
ENCODING 519
SWIDTH 360 0
DWIDTH 6 0
BBX 5 10 1 0
BITMAP
78
88
00
78
88
F0
80
80
C0
78
ENDCHAR
STARTCHAR 0208
ENCODING 520
SWIDTH 300 0
DWIDTH 5 0
BBX 5 16 0 0
BITMAP
A0
A0
50
00
00
30
30
30
30
30
30
30
30
30
30
78
ENDCHAR
STARTCHAR 0209
ENCODING 521
SWIDTH 240 0
DWIDTH 4 0
BBX 5 13 -1 -1
BITMAP
90
90
48
00
00
10
10
10
10
10
10
30
08
ENDCHAR
STARTCHAR 020A
ENCODING 522
SWIDTH 300 0
DWIDTH 5 0
BBX 5 14 0 0
BITMAP
78
88
00
30
30
30
30
30
30
30
30
30
30
78
ENDCHAR
STARTCHAR 020B
ENCODING 523
SWIDTH 240 0
DWIDTH 4 0
BBX 5 11 0 -1
BITMAP
78
88
00
20
20
20
20
20
20
60
10
ENDCHAR
STARTCHAR 020C
ENCODING 524
SWIDTH 720 0
DWIDTH 12 0
BBX 10 17 1 -1
BITMAP
2400
2400
1200
0000
0000
3F00
4080
C0C0
C040
8040
8040
8040
C040
C0C0
6080
3B00
0400
ENDCHAR
STARTCHAR 020D
ENCODING 525
SWIDTH 480 0
DWIDTH 8 0
BBX 7 13 1 -1
BITMAP
90
90
48
00
00
78
84
86
86
86
C4
68
10
ENDCHAR
STARTCHAR 020E
ENCODING 526
SWIDTH 720 0
DWIDTH 12 0
BBX 10 15 1 -1
BITMAP
0F00
1100
0000
3F00
4080
C0C0
C040
8040
8040
8040
C040
C0C0
6080
3B00
0400
ENDCHAR
STARTCHAR 020F
ENCODING 527
SWIDTH 480 0
DWIDTH 8 0
BBX 7 11 1 -1
BITMAP
3C
44
00
78
84
86
86
86
C4
68
10
ENDCHAR
STARTCHAR 0210
ENCODING 528
SWIDTH 660 0
DWIDTH 11 0
BBX 10 16 1 0
BITMAP
4800
4800
2400
0000
0000
7E00
6100
6100
6100
6100
6E00
7400
6600
6300
6180
F0C0
ENDCHAR
STARTCHAR 0211
ENCODING 529
SWIDTH 300 0
DWIDTH 5 0
BBX 6 12 0 0
BITMAP
90
90
48
00
00
7C
60
60
60
60
60
60
ENDCHAR
STARTCHAR 0212
ENCODING 530
SWIDTH 660 0
DWIDTH 11 0
BBX 10 14 1 0
BITMAP
1E00
2200
0000
7E00
6100
6100
6100
6100
6E00
7400
6600
6300
6180
F0C0
ENDCHAR
STARTCHAR 0213
ENCODING 531
SWIDTH 300 0
DWIDTH 5 0
BBX 6 10 0 0
BITMAP
78
88
00
7C
60
60
60
60
60
60
ENDCHAR
STARTCHAR 0214
ENCODING 532
SWIDTH 720 0
DWIDTH 12 0
BBX 10 17 1 -1
BITMAP
1400
1400
0A00
0000
0000
E0C0
4040
4040
4040
4040
4040
4040
6040
6080
2080
3B00
0400
ENDCHAR
STARTCHAR 0215
ENCODING 533
SWIDTH 480 0
DWIDTH 8 0
BBX 7 12 1 0
BITMAP
90
90
48
00
00
CC
C4
C4
C4
C4
44
7E
ENDCHAR
STARTCHAR 0216
ENCODING 534
SWIDTH 720 0
DWIDTH 12 0
BBX 10 15 1 -1
BITMAP
0F00
1100
0000
E0C0
4040
4040
4040
4040
4040
4040
6040
6080
2080
3B00
0400
ENDCHAR
STARTCHAR 0217
ENCODING 535
SWIDTH 480 0
DWIDTH 8 0
BBX 7 10 1 0
BITMAP
3C
44
00
CC
C4
C4
C4
C4
44
7E
ENDCHAR
STARTCHAR 0218
ENCODING 536
SWIDTH 480 0
DWIDTH 8 0
BBX 7 17 1 -6
BITMAP
7C
84
80
C0
70
3C
06
02
82
84
6C
10
00
18
08
10
10
ENDCHAR
STARTCHAR 0219
ENCODING 537
SWIDTH 300 0
DWIDTH 5 0
BBX 4 13 1 -6
BITMAP
F0
80
80
70
10
10
90
60
00
60
20
40
40
ENDCHAR
STARTCHAR 021A
ENCODING 538
SWIDTH 780 0
DWIDTH 13 0
BBX 13 16 0 -5
BITMAP
FFF8
8208
8208
0200
0200
0200
0200
0200
0200
0200
0F80
0000
0300
0100
0200
0200
ENDCHAR
STARTCHAR 021B
ENCODING 539
SWIDTH 300 0
DWIDTH 5 0
BBX 4 13 1 -5
BITMAP
40
F0
40
40
40
40
40
70
00
30
10
20
20
ENDCHAR
STARTCHAR 021C
ENCODING 540
SWIDTH 480 0
DWIDTH 8 0
BBX 6 12 1 -1
BITMAP
F8
8C
08
08
10
2C
04
04
04
0C
30
40
ENDCHAR
STARTCHAR 021D
ENCODING 541
SWIDTH 420 0
DWIDTH 7 0
BBX 6 12 0 -5
BITMAP
38
8C
0C
08
18
2C
04
04
04
08
50
60
ENDCHAR
STARTCHAR 021E
ENCODING 542
SWIDTH 780 0
DWIDTH 13 0
BBX 12 15 1 0
BITMAP
0980
0600
0000
0000
60E0
6040
6040
6040
6040
7FC0
6040
6040
6040
6040
F0F0
ENDCHAR
STARTCHAR 021F
ENCODING 543
SWIDTH 540 0
DWIDTH 9 0
BBX 7 16 1 0
BITMAP
4C
30
00
00
C0
40
40
40
40
7C
44
46
46
46
46
C6
ENDCHAR
STARTCHAR 0220
ENCODING 544
SWIDTH 660 0
DWIDTH 11 0
BBX 11 15 1 -4
BITMAP
DF00
6080
6080
60C0
40C0
40C0
40C0
40C0
40C0
40C0
E0C0
00C0
00C0
00C0
01E0
ENDCHAR
STARTCHAR 0222
ENCODING 546
SWIDTH 540 0
DWIDTH 9 0
BBX 8 12 1 -1
BITMAP
24
42
C2
66
3C
3C
46
C2
C3
C2
74
08
ENDCHAR
STARTCHAR 0223
ENCODING 547
SWIDTH 420 0
DWIDTH 7 0
BBX 6 12 1 -1
BITMAP
48
8C
84
C8
68
30
48
84
84
84
68
10
ENDCHAR
STARTCHAR 0224
ENCODING 548
SWIDTH 600 0
DWIDTH 10 0
BBX 9 14 1 -3
BITMAP
FF80
8300
8200
0600
0C00
1800
1000
3000
6000
4000
FF00
0080
0080
0080
ENDCHAR
STARTCHAR 0225
ENCODING 549
SWIDTH 360 0
DWIDTH 6 0
BBX 5 10 1 -3
BITMAP
F0
30
20
60
40
C0
E0
18
08
08
ENDCHAR
STARTCHAR 0226
ENCODING 550
SWIDTH 660 0
DWIDTH 11 0
BBX 11 14 0 0
BITMAP
0600
0000
0000
0600
0A00
0A00
0B00
1100
1100
1F80
2080
2080
40C0
F1E0
ENDCHAR
STARTCHAR 0227
ENCODING 551
SWIDTH 360 0
DWIDTH 6 0
BBX 6 10 1 0
BITMAP
60
00
00
F0
90
10
30
D0
90
FC
ENDCHAR
STARTCHAR 0228
ENCODING 552
SWIDTH 600 0
DWIDTH 10 0
BBX 9 15 1 -4
BITMAP
7F00
6100
6100
6000
6400
7C00
6400
6000
6080
6080
FF80
1000
3000
1000
3000
ENDCHAR
STARTCHAR 0229
ENCODING 553
SWIDTH 360 0
DWIDTH 6 0
BBX 5 11 1 -4
BITMAP
78
88
F0
80
80
C0
78
20
60
20
60
ENDCHAR
STARTCHAR 022A
ENCODING 554
SWIDTH 720 0
DWIDTH 12 0
BBX 10 17 1 -1
BITMAP
3F00
1100
1B00
0000
0000
3F00
4080
C0C0
C040
8040
8040
8040
C040
C0C0
6080
3B00
0400
ENDCHAR
STARTCHAR 022B
ENCODING 555
SWIDTH 480 0
DWIDTH 8 0
BBX 7 13 1 -1
BITMAP
7C
00
6C
00
00
78
84
86
86
86
C4
68
10
ENDCHAR
STARTCHAR 022C
ENCODING 556
SWIDTH 720 0
DWIDTH 12 0
BBX 10 17 1 -1
BITMAP
3F00
0000
1F00
0000
0000
3F00
4080
C0C0
C040
8040
8040
8040
C040
C0C0
6080
3B00
0400
ENDCHAR
STARTCHAR 022D
ENCODING 557
SWIDTH 480 0
DWIDTH 8 0
BBX 7 13 1 -1
BITMAP
7C
00
7C
00
00
78
84
86
86
86
C4
68
10
ENDCHAR
STARTCHAR 022E
ENCODING 558
SWIDTH 720 0
DWIDTH 12 0
BBX 10 15 1 -1
BITMAP
0C00
0000
0000
3F00
4080
C0C0
C040
8040
8040
8040
C040
C0C0
6080
3B00
0400
ENDCHAR
STARTCHAR 022F
ENCODING 559
SWIDTH 480 0
DWIDTH 8 0
BBX 7 11 1 -1
BITMAP
30
00
00
78
84
86
86
86
C4
68
10
ENDCHAR
STARTCHAR 0230
ENCODING 560
SWIDTH 720 0
DWIDTH 12 0
BBX 10 17 1 -1
BITMAP
3F00
0000
0C00
0000
0000
3F00
4080
C0C0
C040
8040
8040
8040
C040
C0C0
6080
3B00
0400
ENDCHAR
STARTCHAR 0231
ENCODING 561
SWIDTH 480 0
DWIDTH 8 0
BBX 7 13 1 -1
BITMAP
7C
00
30
00
00
78
84
86
86
86
C4
68
10
ENDCHAR
STARTCHAR 0232
ENCODING 562
SWIDTH 600 0
DWIDTH 10 0
BBX 9 14 1 0
BITMAP
7E00
0000
0000
C180
4100
6200
2400
3400
1800
1800
1800
1800
1800
3C00
ENDCHAR
STARTCHAR 0233
ENCODING 563
SWIDTH 360 0
DWIDTH 6 0
BBX 7 14 0 -4
BITMAP
7C
00
00
C6
44
64
28
28
30
10
10
20
20
C0
ENDCHAR
STARTCHAR 0237
ENCODING 567
SWIDTH 240 0
DWIDTH 4 0
BBX 4 12 -1 -5
BITMAP
10
10
10
10
10
10
10
10
10
10
A0
C0
ENDCHAR
STARTCHAR 0248
ENCODING 584
SWIDTH 300 0
DWIDTH 5 0
BBX 7 14 -1 -3
BITMAP
18
18
18
18
18
3E
18
18
18
18
18
10
10
E0
ENDCHAR
STARTCHAR 0249
ENCODING 585
SWIDTH 240 0
DWIDTH 4 0
BBX 5 15 -1 -5
BITMAP
30
00
00
30
10
78
10
10
10
10
10
10
10
A0
C0
ENDCHAR
STARTCHAR 0250
ENCODING 592
SWIDTH 360 0
DWIDTH 6 0
BBX 6 8 0 -1
BITMAP
FC
24
24
38
20
24
24
18
ENDCHAR
STARTCHAR 0251
ENCODING 593
SWIDTH 480 0
DWIDTH 8 0
BBX 6 7 1 0
BITMAP
7C
84
84
84
84
C4
7C
ENDCHAR
STARTCHAR 0252
ENCODING 594
SWIDTH 480 0
DWIDTH 8 0
BBX 8 8 0 -1
BITMAP
FE
23
21
21
21
22
24
18
ENDCHAR
STARTCHAR 0253
ENCODING 595
SWIDTH 480 0
DWIDTH 8 0
BBX 7 13 1 -1
BITMAP
30
40
40
C0
C0
F8
C4
C6
C6
C6
C4
E8
10
ENDCHAR
STARTCHAR 0254
ENCODING 596
SWIDTH 360 0
DWIDTH 6 0
BBX 5 8 1 -1
BITMAP
F0
18
08
08
08
08
90
60
ENDCHAR
STARTCHAR 0255
ENCODING 597
SWIDTH 420 0
DWIDTH 7 0
BBX 6 9 1 -2
BITMAP
78
C0
80
80
98
E4
78
80
80
ENDCHAR
STARTCHAR 0256
ENCODING 598
SWIDTH 480 0
DWIDTH 8 0
BBX 9 17 1 -5
BITMAP
0400
0400
0400
0400
0400
7C00
8400
8400
8400
8400
C400
7C00
0400
0400
0400
0580
0300
ENDCHAR
STARTCHAR 0257
ENCODING 599
SWIDTH 480 0
DWIDTH 8 0
BBX 9 12 1 0
BITMAP
0380
0400
0400
0400
0400
7C00
8400
8400
8400
8400
C400
7E00
ENDCHAR
STARTCHAR 0258
ENCODING 600
SWIDTH 360 0
DWIDTH 6 0
BBX 5 7 1 0
BITMAP
70
88
78
08
08
18
F0
ENDCHAR
STARTCHAR 0259
ENCODING 601
SWIDTH 360 0
DWIDTH 6 0
BBX 5 8 1 -1
BITMAP
F0
18
08
08
08
F8
50
20
ENDCHAR
STARTCHAR 025A
ENCODING 602
SWIDTH 540 0
DWIDTH 9 0
BBX 8 8 1 -1
BITMAP
F0
18
08
0E
FA
89
50
20
ENDCHAR
STARTCHAR 025B
ENCODING 603
SWIDTH 360 0
DWIDTH 6 0
BBX 5 7 1 0
BITMAP
F0
80
80
40
80
80
F8
ENDCHAR
STARTCHAR 025C
ENCODING 604
SWIDTH 360 0
DWIDTH 6 0
BBX 5 7 1 0
BITMAP
F0
18
10
30
18
18
F0
ENDCHAR
STARTCHAR 025D
ENCODING 605
SWIDTH 480 0
DWIDTH 8 0
BBX 6 7 1 0
BITMAP
F0
1C
14
30
18
18
F0
ENDCHAR
STARTCHAR 025E
ENCODING 606
SWIDTH 360 0
DWIDTH 6 0
BBX 6 7 0 0
BITMAP
78
44
CC
C8
C4
44
78
ENDCHAR
STARTCHAR 025F
ENCODING 607
SWIDTH 240 0
DWIDTH 4 0
BBX 5 12 -1 -5
BITMAP
30
10
78
10
10
10
10
10
10
10
A0
C0
ENDCHAR
STARTCHAR 0260
ENCODING 608
SWIDTH 420 0
DWIDTH 7 0
BBX 8 14 1 -5
BITMAP
01
07
7C
8C
8C
8C
8C
CC
4C
3C
0C
08
C8
70
ENDCHAR
STARTCHAR 0261
ENCODING 609
SWIDTH 420 0
DWIDTH 7 0
BBX 6 12 1 -5
BITMAP
7C
8C
8C
8C
8C
CC
4C
3C
0C
08
C8
70
ENDCHAR
STARTCHAR 0262
ENCODING 610
SWIDTH 420 0
DWIDTH 7 0
BBX 7 8 0 -1
BITMAP
3E
42
40
C0
46
42
26
18
ENDCHAR
STARTCHAR 0263
ENCODING 611
SWIDTH 360 0
DWIDTH 6 0
BBX 5 12 1 -5
BITMAP
C8
C8
50
50
70
20
20
30
50
50
50
20
ENDCHAR
STARTCHAR 0264
ENCODING 612
SWIDTH 480 0
DWIDTH 8 0
BBX 8 8 0 -1
BITMAP
E3
B4
18
08
18
24
24
18
ENDCHAR
STARTCHAR 0265
ENCODING 613
SWIDTH 540 0
DWIDTH 9 0
BBX 8 12 1 -5
BITMAP
C6
46
46
46
46
46
3E
06
06
06
07
04
ENDCHAR
STARTCHAR 0266
ENCODING 614
SWIDTH 540 0
DWIDTH 9 0
BBX 7 12 1 0
BITMAP
3C
40
40
40
40
7C
44
46
46
46
46
C6
ENDCHAR
STARTCHAR 0267
ENCODING 615
SWIDTH 540 0
DWIDTH 9 0
BBX 7 17 1 -5
BITMAP
3C
40
40
40
40
7C
44
46
46
46
46
C6
06
04
04
14
18
ENDCHAR
STARTCHAR 0268
ENCODING 616
SWIDTH 240 0
DWIDTH 4 0
BBX 4 12 0 0
BITMAP
60
60
00
00
00
20
20
20
F0
20
20
60
ENDCHAR
STARTCHAR 0269
ENCODING 617
SWIDTH 240 0
DWIDTH 4 0
BBX 2 7 2 0
BITMAP
80
80
80
80
80
80
C0
ENDCHAR
STARTCHAR 026A
ENCODING 618
SWIDTH 240 0
DWIDTH 4 0
BBX 2 7 1 0
BITMAP
C0
40
40
40
40
40
C0
ENDCHAR
STARTCHAR 026B
ENCODING 619
SWIDTH 240 0
DWIDTH 4 0
BBX 4 12 1 0
BITMAP
C0
40
40
40
40
D0
60
40
40
40
40
C0
ENDCHAR
STARTCHAR 026C
ENCODING 620
SWIDTH 240 0
DWIDTH 4 0
BBX 4 12 0 0
BITMAP
60
20
20
20
20
E0
F0
20
20
20
20
60
ENDCHAR
STARTCHAR 026D
ENCODING 621
SWIDTH 240 0
DWIDTH 4 0
BBX 5 17 1 -5
BITMAP
C0
40
40
40
40
40
40
40
40
40
40
40
40
40
40
58
30
ENDCHAR
STARTCHAR 026E
ENCODING 622
SWIDTH 600 0
DWIDTH 10 0
BBX 9 17 1 -5
BITMAP
C000
4000
4000
4000
4000
7F80
4100
4200
4400
5F00
4100
C180
0080
0180
2180
3300
1C00
ENDCHAR
STARTCHAR 026F
ENCODING 623
SWIDTH 780 0
DWIDTH 13 0
BBX 11 7 1 0
BITMAP
C660
4420
4420
4420
4420
4660
7BA0
ENDCHAR
STARTCHAR 0270
ENCODING 624
SWIDTH 780 0
DWIDTH 13 0
BBX 12 11 1 -4
BITMAP
C660
4420
4420
4420
4420
4660
7BA0
0020
0020
0020
0030
ENDCHAR
STARTCHAR 0271
ENCODING 625
SWIDTH 780 0
DWIDTH 13 0
BBX 11 11 1 -4
BITMAP
7DC0
4620
4420
4420
4420
4420
C620
0020
0020
0140
0180
ENDCHAR
STARTCHAR 0272
ENCODING 626
SWIDTH 480 0
DWIDTH 8 0
BBX 9 12 -1 -5
BITMAP
1F00
1100
1100
1100
1100
1100
1180
1000
1000
1000
A000
C000
ENDCHAR
STARTCHAR 0273
ENCODING 627
SWIDTH 480 0
DWIDTH 8 0
BBX 9 12 1 -5
BITMAP
7C00
4400
4400
4400
4400
4400
C400
0400
0400
0400
0280
0180
ENDCHAR
STARTCHAR 0274
ENCODING 628
SWIDTH 480 0
DWIDTH 8 0
BBX 7 7 1 0
BITMAP
86
C4
A4
94
9C
8C
84
ENDCHAR
STARTCHAR 0275
ENCODING 629
SWIDTH 480 0
DWIDTH 8 0
BBX 7 8 1 -1
BITMAP
78
C4
86
FE
86
C4
68
10
ENDCHAR
STARTCHAR 0276
ENCODING 630
SWIDTH 660 0
DWIDTH 11 0
BBX 11 8 0 -1
BITMAP
3FE0
4220
4240
C3C0
4240
6200
3760
0880
ENDCHAR
STARTCHAR 0277
ENCODING 631
SWIDTH 600 0
DWIDTH 10 0
BBX 9 8 1 -1
BITMAP
4300
8980
8880
8880
8880
8880
5500
2200
ENDCHAR
STARTCHAR 0278
ENCODING 632
SWIDTH 480 0
DWIDTH 8 0
BBX 7 15 1 -4
BITMAP
30
10
10
10
78
D4
96
96
96
D4
78
10
10
10
38
ENDCHAR
STARTCHAR 0279
ENCODING 633
SWIDTH 300 0
DWIDTH 5 0
BBX 5 7 0 0
BITMAP
18
18
18
18
18
18
F8
ENDCHAR
STARTCHAR 027A
ENCODING 634
SWIDTH 300 0
DWIDTH 5 0
BBX 6 12 0 0
BITMAP
3C
18
18
18
18
18
18
18
18
18
18
F8
ENDCHAR
STARTCHAR 027B
ENCODING 635
SWIDTH 300 0
DWIDTH 5 0
BBX 7 11 0 -4
BITMAP
18
18
18
18
18
18
F8
18
08
0A
06
ENDCHAR
STARTCHAR 027C
ENCODING 636
SWIDTH 300 0
DWIDTH 5 0
BBX 6 12 0 -5
BITMAP
7C
60
60
60
60
60
60
60
60
60
60
F0
ENDCHAR
STARTCHAR 027D
ENCODING 637
SWIDTH 300 0
DWIDTH 5 0
BBX 5 12 1 -5
BITMAP
F8
C0
C0
C0
C0
C0
C0
C0
40
40
50
30
ENDCHAR
STARTCHAR 027E
ENCODING 638
SWIDTH 300 0
DWIDTH 5 0
BBX 5 7 1 0
BITMAP
38
40
40
C0
C0
C0
C0
ENDCHAR
STARTCHAR 027F
ENCODING 639
SWIDTH 300 0
DWIDTH 5 0
BBX 5 7 0 0
BITMAP
E0
10
18
18
18
18
18
ENDCHAR
STARTCHAR 0280
ENCODING 640
SWIDTH 420 0
DWIDTH 7 0
BBX 7 8 1 -1
BITMAP
F8
CC
CC
D8
F0
C8
C4
02
ENDCHAR
STARTCHAR 0281
ENCODING 641
SWIDTH 420 0
DWIDTH 7 0
BBX 6 8 1 -1
BITMAP
C4
C8
D0
F0
C8
C8
D8
20
ENDCHAR
STARTCHAR 0282
ENCODING 642
SWIDTH 300 0
DWIDTH 5 0
BBX 4 9 1 -2
BITMAP
F0
80
80
70
10
10
90
E0
70
ENDCHAR
STARTCHAR 0283
ENCODING 643
SWIDTH 240 0
DWIDTH 4 0
BBX 7 17 -1 -5
BITMAP
1E
10
10
10
10
10
10
10
10
10
10
10
10
10
10
A0
C0
ENDCHAR
STARTCHAR 0284
ENCODING 644
SWIDTH 240 0
DWIDTH 4 0
BBX 8 17 -2 -5
BITMAP
07
04
08
08
08
08
08
08
08
08
08
1C
08
08
08
D0
60
ENDCHAR
STARTCHAR 0285
ENCODING 645
SWIDTH 240 0
DWIDTH 4 0
BBX 7 11 -1 0
BITMAP
C0
A0
10
10
10
10
10
10
10
10
0E
ENDCHAR
STARTCHAR 0286
ENCODING 646
SWIDTH 240 0
DWIDTH 4 0
BBX 7 17 -1 -5
BITMAP
0E
10
10
10
10
10
10
10
10
10
10
10
10
10
F0
B0
40
ENDCHAR
STARTCHAR 0287
ENCODING 647
SWIDTH 300 0
DWIDTH 5 0
BBX 4 8 1 -1
BITMAP
E0
20
20
20
20
20
F0
20
ENDCHAR
STARTCHAR 0288
ENCODING 648
SWIDTH 300 0
DWIDTH 5 0
BBX 4 13 1 -5
BITMAP
40
F0
40
40
40
40
40
40
40
40
40
40
20
ENDCHAR
STARTCHAR 0289
ENCODING 649
SWIDTH 480 0
DWIDTH 8 0
BBX 7 7 1 0
BITMAP
CC
C4
C4
FC
C4
44
7E
ENDCHAR
STARTCHAR 028A
ENCODING 650
SWIDTH 480 0
DWIDTH 8 0
BBX 7 8 1 -1
BITMAP
C4
84
84
86
84
C4
68
10
ENDCHAR
STARTCHAR 028B
ENCODING 651
SWIDTH 480 0
DWIDTH 8 0
BBX 7 8 1 -1
BITMAP
4C
C6
46
42
46
44
6C
10
ENDCHAR
STARTCHAR 028C
ENCODING 652
SWIDTH 360 0
DWIDTH 6 0
BBX 6 7 1 0
BITMAP
20
20
50
50
98
88
8C
ENDCHAR
STARTCHAR 028D
ENCODING 653
SWIDTH 660 0
DWIDTH 11 0
BBX 10 7 1 0
BITMAP
2200
2300
5500
5500
9980
8880
8CC0
ENDCHAR
STARTCHAR 028E
ENCODING 654
SWIDTH 360 0
DWIDTH 6 0
BBX 7 12 0 0
BITMAP
04
0C
08
10
10
10
38
28
48
4C
44
C6
ENDCHAR
STARTCHAR 028F
ENCODING 655
SWIDTH 420 0
DWIDTH 7 0
BBX 6 7 1 0
BITMAP
8C
C8
50
20
20
20
60
ENDCHAR
STARTCHAR 0290
ENCODING 656
SWIDTH 360 0
DWIDTH 6 0
BBX 8 11 1 -4
BITMAP
F0
30
20
60
40
C8
F8
08
08
08
07
ENDCHAR
STARTCHAR 0291
ENCODING 657
SWIDTH 420 0
DWIDTH 7 0
BBX 6 8 1 -1
BITMAP
F0
30
20
60
48
F4
FC
40
ENDCHAR
STARTCHAR 0292
ENCODING 658
SWIDTH 420 0
DWIDTH 7 0
BBX 7 12 0 -5
BITMAP
7E
04
08
10
3C
02
02
02
02
82
C4
38
ENDCHAR
STARTCHAR 0293
ENCODING 659
SWIDTH 420 0
DWIDTH 7 0
BBX 7 12 0 -5
BITMAP
7E
04
08
10
3C
02
02
02
7A
86
84
78
ENDCHAR
STARTCHAR 0294
ENCODING 660
SWIDTH 420 0
DWIDTH 7 0
BBX 7 12 0 0
BITMAP
7C
C4
C6
46
04
0C
10
10
10
10
10
38
ENDCHAR
STARTCHAR 0295
ENCODING 661
SWIDTH 420 0
DWIDTH 7 0
BBX 7 12 0 0
BITMAP
3C
42
C6
C0
40
60
10
10
10
10
10
18
ENDCHAR
STARTCHAR 0296
ENCODING 662
SWIDTH 420 0
DWIDTH 7 0
BBX 7 13 0 -1
BITMAP
30
10
10
10
10
10
0C
04
46
C6
44
4C
30
ENDCHAR
STARTCHAR 0297
ENCODING 663
SWIDTH 360 0
DWIDTH 6 0
BBX 5 12 1 -5
BITMAP
78
80
80
80
80
80
80
80
80
C0
E8
30
ENDCHAR
STARTCHAR 0298
ENCODING 664
SWIDTH 780 0
DWIDTH 13 0
BBX 11 13 1 -1
BITMAP
1F00
20C0
4040
C060
C060
C420
C420
C020
C060
6040
60C0
1B00
0400
ENDCHAR
STARTCHAR 0299
ENCODING 665
SWIDTH 420 0
DWIDTH 7 0
BBX 5 8 1 -1
BITMAP
F0
C8
C8
F8
C8
C8
D8
20
ENDCHAR
STARTCHAR 029A
ENCODING 666
SWIDTH 360 0
DWIDTH 6 0
BBX 6 7 0 0
BITMAP
78
44
44
64
C4
CC
78
ENDCHAR
STARTCHAR 029B
ENCODING 667
SWIDTH 480 0
DWIDTH 8 0
BBX 10 11 0 -1
BITMAP
00C0
0100
0200
3E00
4000
4000
C000
4300
6300
3300
0C00
ENDCHAR
STARTCHAR 029C
ENCODING 668
SWIDTH 540 0
DWIDTH 9 0
BBX 8 7 1 0
BITMAP
C7
C2
C2
FE
C2
C2
C6
ENDCHAR
STARTCHAR 029D
ENCODING 669
SWIDTH 240 0
DWIDTH 4 0
BBX 5 17 -1 -5
BITMAP
30
30
00
00
00
10
10
10
10
10
10
10
10
38
D0
A0
40
ENDCHAR
STARTCHAR 029E
ENCODING 670
SWIDTH 480 0
DWIDTH 8 0
BBX 7 11 1 -4
BITMAP
C4
64
34
1C
14
24
44
04
04
04
06
ENDCHAR
STARTCHAR 029F
ENCODING 671
SWIDTH 420 0
DWIDTH 7 0
BBX 6 8 1 -1
BITMAP
C0
C0
C0
C0
C0
C4
CC
30
ENDCHAR
STARTCHAR 02A0
ENCODING 672
SWIDTH 420 0
DWIDTH 7 0
BBX 8 14 1 -5
BITMAP
07
04
7C
8C
8C
8C
8C
CC
4C
3C
0C
0C
0C
1E
ENDCHAR
STARTCHAR 02A1
ENCODING 673
SWIDTH 420 0
DWIDTH 7 0
BBX 7 12 0 0
BITMAP
7C
C4
C6
46
04
0C
10
7C
10
10
10
38
ENDCHAR
STARTCHAR 02A2
ENCODING 674
SWIDTH 420 0
DWIDTH 7 0
BBX 7 12 0 0
BITMAP
3C
42
C6
C0
40
60
10
7C
10
10
10
18
ENDCHAR
STARTCHAR 02A3
ENCODING 675
SWIDTH 720 0
DWIDTH 12 0
BBX 12 12 1 0
BITMAP
0C00
0400
0400
0400
0400
7FE0
8440
8440
8480
8580
C510
7FE0
ENDCHAR
STARTCHAR 02A4
ENCODING 676
SWIDTH 840 0
DWIDTH 14 0
BBX 13 17 1 -5
BITMAP
0C00
0400
0400
0400
0400
7FF0
8420
8420
84C0
85E0
C410
7E18
0018
0018
0210
0230
01C0
ENDCHAR
STARTCHAR 02A5
ENCODING 677
SWIDTH 780 0
DWIDTH 13 0
BBX 12 13 1 -1
BITMAP
0C00
0400
0400
0400
0400
7FE0
8440
84C0
8480
8520
C550
7FF0
0080
ENDCHAR
STARTCHAR 02A6
ENCODING 678
SWIDTH 480 0
DWIDTH 8 0
BBX 7 9 1 -1
BITMAP
40
FE
50
58
4E
42
42
62
1C
ENDCHAR
STARTCHAR 02A7
ENCODING 679
SWIDTH 420 0
DWIDTH 7 0
BBX 8 17 1 -5
BITMAP
07
08
08
08
48
F8
48
48
48
48
48
78
08
08
08
28
30
ENDCHAR
STARTCHAR 02A8
ENCODING 680
SWIDTH 600 0
DWIDTH 10 0
BBX 10 8 1 0
BITMAP
4000
F780
4800
4800
5800
5B80
4C40
7780
ENDCHAR
STARTCHAR 02A9
ENCODING 681
SWIDTH 780 0
DWIDTH 13 0
BBX 11 17 1 -5
BITMAP
3C00
4000
4000
4000
4000
FDC0
4620
4420
4420
4420
4420
C620
0020
0020
0020
0140
0180
ENDCHAR
STARTCHAR 02AA
ENCODING 682
SWIDTH 480 0
DWIDTH 8 0
BBX 7 13 1 -1
BITMAP
C0
40
40
40
40
5E
62
70
5C
46
42
F4
08
ENDCHAR
STARTCHAR 02AB
ENCODING 683
SWIDTH 480 0
DWIDTH 8 0
BBX 7 12 1 0
BITMAP
C0
40
40
40
40
7E
44
4C
48
58
52
FE
ENDCHAR
STARTCHAR 02AC
ENCODING 684
SWIDTH 480 0
DWIDTH 8 0
BBX 7 11 1 0
BITMAP
92
94
AC
4C
48
00
92
94
AC
4C
48
ENDCHAR
STARTCHAR 02AD
ENCODING 685
SWIDTH 480 0
DWIDTH 8 0
BBX 7 8 1 0
BITMAP
FE
82
80
00
00
FE
82
80
ENDCHAR
STARTCHAR 02B0
ENCODING 688
SWIDTH 300 0
DWIDTH 5 0
BBX 5 8 0 4
BITMAP
40
40
40
70
48
48
48
D8
ENDCHAR
STARTCHAR 02B1
ENCODING 689
SWIDTH 300 0
DWIDTH 5 0
BBX 5 8 0 4
BITMAP
30
40
40
70
48
48
48
D8
ENDCHAR
STARTCHAR 02B2
ENCODING 690
SWIDTH 120 0
DWIDTH 2 0
BBX 2 10 0 1
BITMAP
40
00
40
40
40
40
40
40
00
80
ENDCHAR
STARTCHAR 02B3
ENCODING 691
SWIDTH 180 0
DWIDTH 3 0
BBX 3 5 0 4
BITMAP
60
40
40
40
C0
ENDCHAR
STARTCHAR 02B4
ENCODING 692
SWIDTH 180 0
DWIDTH 3 0
BBX 3 5 0 4
BITMAP
C0
40
40
40
60
ENDCHAR
STARTCHAR 02B5
ENCODING 693
SWIDTH 180 0
DWIDTH 3 0
BBX 4 7 0 2
BITMAP
60
20
20
20
E0
20
10
ENDCHAR
STARTCHAR 02B6
ENCODING 694
SWIDTH 240 0
DWIDTH 4 0
BBX 5 5 0 4
BITMAP
C8
50
60
50
E0
ENDCHAR
STARTCHAR 02B7
ENCODING 695
SWIDTH 360 0
DWIDTH 6 0
BBX 7 5 0 4
BITMAP
D6
54
74
28
08
ENDCHAR
STARTCHAR 02B8
ENCODING 696
SWIDTH 240 0
DWIDTH 4 0
BBX 4 7 0 2
BITMAP
D0
A0
60
60
40
40
40
ENDCHAR
STARTCHAR 02B9
ENCODING 697
SWIDTH 240 0
DWIDTH 4 0
BBX 2 4 1 8
BITMAP
40
40
80
80
ENDCHAR
STARTCHAR 02BA
ENCODING 698
SWIDTH 360 0
DWIDTH 6 0
BBX 5 4 0 8
BITMAP
48
48
90
90
ENDCHAR
STARTCHAR 02BB
ENCODING 699
SWIDTH 180 0
DWIDTH 3 0
BBX 2 4 1 8
BITMAP
80
80
80
C0
ENDCHAR
STARTCHAR 02BC
ENCODING 700
SWIDTH 180 0
DWIDTH 3 0
BBX 2 4 1 8
BITMAP
C0
40
80
80
ENDCHAR
STARTCHAR 02BD
ENCODING 701
SWIDTH 180 0
DWIDTH 3 0
BBX 3 3 0 9
BITMAP
60
C0
40
ENDCHAR
STARTCHAR 02BE
ENCODING 702
SWIDTH 180 0
DWIDTH 3 0
BBX 2 5 1 8
BITMAP
80
40
40
40
80
ENDCHAR
STARTCHAR 02BF
ENCODING 703
SWIDTH 180 0
DWIDTH 3 0
BBX 3 5 0 8
BITMAP
60
80
80
40
20
ENDCHAR
STARTCHAR 02C0
ENCODING 704
SWIDTH 240 0
DWIDTH 4 0
BBX 4 8 0 4
BITMAP
60
90
10
10
60
40
40
60
ENDCHAR
STARTCHAR 02C1
ENCODING 705
SWIDTH 240 0
DWIDTH 4 0
BBX 4 8 0 4
BITMAP
60
90
90
80
60
20
20
60
ENDCHAR
STARTCHAR 02C2
ENCODING 706
SWIDTH 300 0
DWIDTH 5 0
BBX 3 3 0 5
BITMAP
20
C0
60
ENDCHAR
STARTCHAR 02C3
ENCODING 707
SWIDTH 240 0
DWIDTH 4 0
BBX 4 4 0 4
BITMAP
60
10
60
80
ENDCHAR
STARTCHAR 02C4
ENCODING 708
SWIDTH 240 0
DWIDTH 4 0
BBX 4 4 0 4
BITMAP
20
60
90
80
ENDCHAR
STARTCHAR 02C5
ENCODING 709
SWIDTH 240 0
DWIDTH 4 0
BBX 3 4 1 4
BITMAP
20
A0
C0
40
ENDCHAR
STARTCHAR 02C6
ENCODING 710
SWIDTH 360 0
DWIDTH 6 0
BBX 4 3 1 9
BITMAP
20
60
90
ENDCHAR
STARTCHAR 02C7
ENCODING 711
SWIDTH 360 0
DWIDTH 6 0
BBX 4 3 1 9
BITMAP
90
50
60
ENDCHAR
STARTCHAR 02C8
ENCODING 712
SWIDTH 180 0
DWIDTH 3 0
BBX 1 4 1 8
BITMAP
80
80
80
80
ENDCHAR
STARTCHAR 02C9
ENCODING 713
SWIDTH 300 0
DWIDTH 5 0
BBX 5 1 0 9
BITMAP
F8
ENDCHAR
STARTCHAR 02CA
ENCODING 714
SWIDTH 240 0
DWIDTH 4 0
BBX 2 4 1 8
BITMAP
40
40
80
80
ENDCHAR
STARTCHAR 02CB
ENCODING 715
SWIDTH 240 0
DWIDTH 4 0
BBX 2 3 2 9
BITMAP
80
80
40
ENDCHAR
STARTCHAR 02CC
ENCODING 716
SWIDTH 180 0
DWIDTH 3 0
BBX 1 3 1 -2
BITMAP
80
80
80
ENDCHAR
STARTCHAR 02CD
ENCODING 717
SWIDTH 480 0
DWIDTH 8 0
BBX 4 1 3 -2
BITMAP
F0
ENDCHAR
STARTCHAR 02CE
ENCODING 718
SWIDTH 240 0
DWIDTH 4 0
BBX 5 3 0 -4
BITMAP
C0
60
18
ENDCHAR
STARTCHAR 02CF
ENCODING 719
SWIDTH 240 0
DWIDTH 4 0
BBX 5 3 0 -4
BITMAP
18
20
C0
ENDCHAR
STARTCHAR 02D0
ENCODING 720
SWIDTH 240 0
DWIDTH 4 0
BBX 2 5 1 1
BITMAP
C0
00
00
00
C0
ENDCHAR
STARTCHAR 02D1
ENCODING 721
SWIDTH 240 0
DWIDTH 4 0
BBX 2 1 2 5
BITMAP
C0
ENDCHAR
STARTCHAR 02D2
ENCODING 722
SWIDTH 180 0
DWIDTH 3 0
BBX 2 5 1 4
BITMAP
80
40
40
40
80
ENDCHAR
STARTCHAR 02D3
ENCODING 723
SWIDTH 180 0
DWIDTH 3 0
BBX 3 5 0 4
BITMAP
60
80
80
40
20
ENDCHAR
STARTCHAR 02D4
ENCODING 724
SWIDTH 480 0
DWIDTH 8 0
BBX 7 4 1 3
BITMAP
10
10
10
FE
ENDCHAR
STARTCHAR 02D5
ENCODING 725
SWIDTH 480 0
DWIDTH 8 0
BBX 7 4 1 0
BITMAP
FE
10
10
10
ENDCHAR
STARTCHAR 02D6
ENCODING 726
SWIDTH 480 0
DWIDTH 8 0
BBX 7 7 1 0
BITMAP
10
10
10
FE
10
10
10
ENDCHAR
STARTCHAR 02D7
ENCODING 727
SWIDTH 360 0
DWIDTH 6 0
BBX 5 2 1 4
BITMAP
08
F8
ENDCHAR
STARTCHAR 02D8
ENCODING 728
SWIDTH 360 0
DWIDTH 6 0
BBX 4 3 1 8
BITMAP
10
90
60
ENDCHAR
STARTCHAR 02D9
ENCODING 729
SWIDTH 360 0
DWIDTH 6 0
BBX 2 1 2 9
BITMAP
C0
ENDCHAR
STARTCHAR 02DA
ENCODING 730
SWIDTH 360 0
DWIDTH 6 0
BBX 4 3 1 8
BITMAP
F0
90
60
ENDCHAR
STARTCHAR 02DB
ENCODING 731
SWIDTH 360 0
DWIDTH 6 0
BBX 2 3 2 -4
BITMAP
80
80
C0
ENDCHAR
STARTCHAR 02DC
ENCODING 732
SWIDTH 240 0
DWIDTH 4 0
BBX 5 1 0 9
BITMAP
F8
ENDCHAR
STARTCHAR 02DD
ENCODING 733
SWIDTH 360 0
DWIDTH 6 0
BBX 5 4 0 8
BITMAP
48
48
90
90
ENDCHAR
STARTCHAR 02DE
ENCODING 734
SWIDTH 180 0
DWIDTH 3 0
BBX 3 3 -1 1
BITMAP
C0
40
20
ENDCHAR
STARTCHAR 02DF
ENCODING 735
SWIDTH 300 0
DWIDTH 5 0
BBX 3 3 1 8
BITMAP
A0
40
A0
ENDCHAR
STARTCHAR 02E0
ENCODING 736
SWIDTH 240 0
DWIDTH 4 0
BBX 4 7 0 2
BITMAP
D0
60
60
20
20
20
60
ENDCHAR
STARTCHAR 02E1
ENCODING 737
SWIDTH 120 0
DWIDTH 2 0
BBX 2 8 0 4
BITMAP
40
40
40
40
40
40
40
C0
ENDCHAR
STARTCHAR 02E2
ENCODING 738
SWIDTH 180 0
DWIDTH 3 0
BBX 3 5 0 4
BITMAP
60
80
60
A0
60
ENDCHAR
STARTCHAR 02E3
ENCODING 739
SWIDTH 240 0
DWIDTH 4 0
BBX 5 5 0 4
BITMAP
D0
60
20
60
D8
ENDCHAR
STARTCHAR 02E4
ENCODING 740
SWIDTH 240 0
DWIDTH 4 0
BBX 4 8 0 4
BITMAP
60
90
90
80
60
20
20
60
ENDCHAR
STARTCHAR 02E5
ENCODING 741
SWIDTH 420 0
DWIDTH 7 0
BBX 7 12 0 -1
BITMAP
FE
02
02
02
02
02
02
02
02
02
02
02
ENDCHAR
STARTCHAR 02E6
ENCODING 742
SWIDTH 420 0
DWIDTH 7 0
BBX 6 12 1 -1
BITMAP
04
04
FC
04
04
04
04
04
04
04
04
04
ENDCHAR
STARTCHAR 02E7
ENCODING 743
SWIDTH 480 0
DWIDTH 8 0
BBX 6 12 1 -1
BITMAP
04
04
04
04
04
FC
04
04
04
04
04
04
ENDCHAR
STARTCHAR 02E8
ENCODING 744
SWIDTH 420 0
DWIDTH 7 0
BBX 6 12 1 -1
BITMAP
04
04
04
04
04
04
04
04
04
FC
04
04
ENDCHAR
STARTCHAR 02E9
ENCODING 745
SWIDTH 420 0
DWIDTH 7 0
BBX 6 12 1 -1
BITMAP
04
04
04
04
04
04
04
04
04
04
04
FC
ENDCHAR
STARTCHAR 02EA
ENCODING 746
SWIDTH 420 0
DWIDTH 7 0
BBX 5 6 0 0
BITMAP
80
80
80
80
80
F8
ENDCHAR
STARTCHAR 02EB
ENCODING 747
SWIDTH 480 0
DWIDTH 8 0
BBX 5 6 1 0
BITMAP
80
80
F8
80
80
80
ENDCHAR
STARTCHAR 02EC
ENCODING 748
SWIDTH 360 0
DWIDTH 6 0
BBX 4 3 1 -4
BITMAP
90
60
20
ENDCHAR
STARTCHAR 02ED
ENCODING 749
SWIDTH 300 0
DWIDTH 5 0
BBX 5 4 0 9
BITMAP
F8
00
00
F8
ENDCHAR
STARTCHAR 02EE
ENCODING 750
SWIDTH 360 0
DWIDTH 6 0
BBX 5 4 1 8
BITMAP
D8
48
90
90
ENDCHAR
STARTCHAR 0300
ENCODING 768
SWIDTH 0 0
DWIDTH 0 0
BBX 2 3 -5 9
BITMAP
80
80
40
ENDCHAR
STARTCHAR 0301
ENCODING 769
SWIDTH 0 0
DWIDTH 0 0
BBX 2 4 -4 8
BITMAP
40
40
80
80
ENDCHAR
STARTCHAR 0302
ENCODING 770
SWIDTH 0 0
DWIDTH 0 0
BBX 4 3 -6 9
BITMAP
20
60
90
ENDCHAR
STARTCHAR 0303
ENCODING 771
SWIDTH 0 0
DWIDTH 0 0
BBX 5 1 -6 9
BITMAP
F8
ENDCHAR
STARTCHAR 0304
ENCODING 772
SWIDTH 0 0
DWIDTH 0 0
BBX 5 1 -6 9
BITMAP
F8
ENDCHAR
STARTCHAR 0305
ENCODING 773
SWIDTH 0 0
DWIDTH 0 0
BBX 7 1 -7 9
BITMAP
FE
ENDCHAR
STARTCHAR 0306
ENCODING 774
SWIDTH 0 0
DWIDTH 0 0
BBX 4 3 -5 8
BITMAP
10
90
60
ENDCHAR
STARTCHAR 0307
ENCODING 775
SWIDTH 0 0
DWIDTH 0 0
BBX 2 1 -4 9
BITMAP
C0
ENDCHAR
STARTCHAR 0308
ENCODING 776
SWIDTH 0 0
DWIDTH 0 0
BBX 5 1 -6 9
BITMAP
D8
ENDCHAR
STARTCHAR 0309
ENCODING 777
SWIDTH 0 0
DWIDTH 0 0
BBX 3 3 -4 9
BITMAP
E0
20
40
ENDCHAR
STARTCHAR 030A
ENCODING 778
SWIDTH 0 0
DWIDTH 0 0
BBX 4 3 -5 8
BITMAP
F0
90
60
ENDCHAR
STARTCHAR 030B
ENCODING 779
SWIDTH 0 0
DWIDTH 0 0
BBX 4 4 -5 8
BITMAP
50
50
A0
A0
ENDCHAR
STARTCHAR 030C
ENCODING 780
SWIDTH 0 0
DWIDTH 0 0
BBX 4 3 -6 9
BITMAP
90
50
60
ENDCHAR
STARTCHAR 030D
ENCODING 781
SWIDTH 0 0
DWIDTH 0 0
BBX 1 4 -4 8
BITMAP
80
80
80
80
ENDCHAR
STARTCHAR 030E
ENCODING 782
SWIDTH 0 0
DWIDTH 0 0
BBX 3 4 -5 8
BITMAP
A0
A0
A0
A0
ENDCHAR
STARTCHAR 030F
ENCODING 783
SWIDTH 0 0
DWIDTH 0 0
BBX 4 3 -6 9
BITMAP
A0
A0
50
ENDCHAR
STARTCHAR 0310
ENCODING 784
SWIDTH 0 0
DWIDTH 0 0
BBX 4 5 -5 8
BITMAP
60
00
10
90
60
ENDCHAR
STARTCHAR 0311
ENCODING 785
SWIDTH 0 0
DWIDTH 0 0
BBX 5 2 -6 8
BITMAP
78
88
ENDCHAR
STARTCHAR 0312
ENCODING 786
SWIDTH 0 0
DWIDTH 0 0
BBX 2 4 -4 8
BITMAP
80
80
80
C0
ENDCHAR
STARTCHAR 0313
ENCODING 787
SWIDTH 0 0
DWIDTH 0 0
BBX 2 4 -3 8
BITMAP
C0
40
80
80
ENDCHAR
STARTCHAR 0314
ENCODING 788
SWIDTH 0 0
DWIDTH 0 0
BBX 3 3 -5 9
BITMAP
60
C0
40
ENDCHAR
STARTCHAR 0315
ENCODING 789
SWIDTH 0 0
DWIDTH 0 0
BBX 2 4 -1 8
BITMAP
C0
40
80
80
ENDCHAR
STARTCHAR 0316
ENCODING 790
SWIDTH 0 0
DWIDTH 0 0
BBX 5 3 -5 -4
BITMAP
C0
60
18
ENDCHAR
STARTCHAR 0317
ENCODING 791
SWIDTH 0 0
DWIDTH 0 0
BBX 5 3 -5 -4
BITMAP
18
20
C0
ENDCHAR
STARTCHAR 0318
ENCODING 792
SWIDTH 0 0
DWIDTH 0 0
BBX 2 3 -4 -4
BITMAP
40
C0
40
ENDCHAR
STARTCHAR 0319
ENCODING 793
SWIDTH 0 0
DWIDTH 0 0
BBX 2 1 -4 -3
BITMAP
C0
ENDCHAR
STARTCHAR 031A
ENCODING 794
SWIDTH 0 0
DWIDTH 0 0
BBX 4 2 -5 8
BITMAP
F0
10
ENDCHAR
STARTCHAR 031B
ENCODING 795
SWIDTH 0 0
DWIDTH 0 0
BBX 3 3 -2 6
BITMAP
60
20
C0
ENDCHAR
STARTCHAR 031C
ENCODING 796
SWIDTH 0 0
DWIDTH 0 0
BBX 2 3 -5 -4
BITMAP
40
80
40
ENDCHAR
STARTCHAR 031D
ENCODING 797
SWIDTH 0 0
DWIDTH 0 0
BBX 1 2 -4 -3
BITMAP
80
80
ENDCHAR
STARTCHAR 031E
ENCODING 798
SWIDTH 0 0
DWIDTH 0 0
BBX 3 2 -5 -3
BITMAP
E0
40
ENDCHAR
STARTCHAR 031F
ENCODING 799
SWIDTH 0 0
DWIDTH 0 0
BBX 3 3 -5 -4
BITMAP
40
E0
40
ENDCHAR
STARTCHAR 0320
ENCODING 800
SWIDTH 0 0
DWIDTH 0 0
BBX 5 1 -6 -3
BITMAP
F8
ENDCHAR
STARTCHAR 0321
ENCODING 801
SWIDTH 0 0
DWIDTH 0 0
BBX 3 5 -4 -3
BITMAP
20
20
20
20
C0
ENDCHAR
STARTCHAR 0322
ENCODING 802
SWIDTH 0 0
DWIDTH 0 0
BBX 2 5 -2 -3
BITMAP
80
80
80
80
40
ENDCHAR
STARTCHAR 0323
ENCODING 803
SWIDTH 0 0
DWIDTH 0 0
BBX 1 2 -4 -3
BITMAP
80
80
ENDCHAR
STARTCHAR 0324
ENCODING 804
SWIDTH 0 0
DWIDTH 0 0
BBX 5 1 -6 -3
BITMAP
D8
ENDCHAR
STARTCHAR 0325
ENCODING 805
SWIDTH 0 0
DWIDTH 0 0
BBX 3 4 -5 -5
BITMAP
E0
A0
A0
40
ENDCHAR
STARTCHAR 0326
ENCODING 806
SWIDTH 0 0
DWIDTH 0 0
BBX 2 5 -4 -6
BITMAP
C0
C0
40
40
80
ENDCHAR
STARTCHAR 0327
ENCODING 807
SWIDTH 0 0
DWIDTH 0 0
BBX 2 3 -4 -4
BITMAP
C0
40
80
ENDCHAR
STARTCHAR 0328
ENCODING 808
SWIDTH 0 0
DWIDTH 0 0
BBX 2 3 -5 -4
BITMAP
80
80
C0
ENDCHAR
STARTCHAR 0329
ENCODING 809
SWIDTH 0 0
DWIDTH 0 0
BBX 1 3 -4 -4
BITMAP
80
80
80
ENDCHAR
STARTCHAR 032A
ENCODING 810
SWIDTH 0 0
DWIDTH 0 0
BBX 4 2 -5 -3
BITMAP
F0
10
ENDCHAR
STARTCHAR 032B
ENCODING 811
SWIDTH 0 0
DWIDTH 0 0
BBX 6 2 -6 -3
BITMAP
24
F8
ENDCHAR
STARTCHAR 032C
ENCODING 812
SWIDTH 0 0
DWIDTH 0 0
BBX 4 3 -6 -3
BITMAP
90
50
60
ENDCHAR
STARTCHAR 032D
ENCODING 813
SWIDTH 0 0
DWIDTH 0 0
BBX 4 3 -6 -3
BITMAP
20
60
90
ENDCHAR
STARTCHAR 032E
ENCODING 814
SWIDTH 0 0
DWIDTH 0 0
BBX 4 3 -5 -4
BITMAP
10
90
60
ENDCHAR
STARTCHAR 032F
ENCODING 815
SWIDTH 0 0
DWIDTH 0 0
BBX 5 3 -6 -4
BITMAP
70
88
80
ENDCHAR
STARTCHAR 0330
ENCODING 816
SWIDTH 0 0
DWIDTH 0 0
BBX 5 1 -6 -2
BITMAP
F8
ENDCHAR
STARTCHAR 0331
ENCODING 817
SWIDTH 0 0
DWIDTH 0 0
BBX 5 1 -6 -2
BITMAP
F8
ENDCHAR
STARTCHAR 0332
ENCODING 818
SWIDTH 0 0
DWIDTH 0 0
BBX 9 1 -8 -2
BITMAP
FF80
ENDCHAR
STARTCHAR 0333
ENCODING 819
SWIDTH 0 0
DWIDTH 0 0
BBX 9 3 -8 -4
BITMAP
FF80
0000
FF80
ENDCHAR
STARTCHAR 0334
ENCODING 820
SWIDTH 0 0
DWIDTH 0 0
BBX 5 1 -6 4
BITMAP
F8
ENDCHAR
STARTCHAR 0335
ENCODING 821
SWIDTH 0 0
DWIDTH 0 0
BBX 5 1 -6 4
BITMAP
F8
ENDCHAR
STARTCHAR 0336
ENCODING 822
SWIDTH 0 0
DWIDTH 0 0
BBX 10 1 -8 3
BITMAP
FFC0
ENDCHAR
STARTCHAR 0337
ENCODING 823
SWIDTH 0 0
DWIDTH 0 0
BBX 6 8 -7 0
BITMAP
04
08
08
10
20
20
40
80
ENDCHAR
STARTCHAR 0338
ENCODING 824
SWIDTH 0 0
DWIDTH 0 0
BBX 9 11 -11 0
BITMAP
0080
0080
0100
0200
0400
0800
1000
2000
2000
4000
8000
ENDCHAR
STARTCHAR 0339
ENCODING 825
SWIDTH 0 0
DWIDTH 0 0
BBX 2 2 -4 -3
BITMAP
80
40
ENDCHAR
STARTCHAR 033A
ENCODING 826
SWIDTH 0 0
DWIDTH 0 0
BBX 5 3 -6 -4
BITMAP
08
88
78
ENDCHAR
STARTCHAR 033B
ENCODING 827
SWIDTH 0 0
DWIDTH 0 0
BBX 3 4 -5 -5
BITMAP
E0
A0
A0
E0
ENDCHAR
STARTCHAR 033C
ENCODING 828
SWIDTH 0 0
DWIDTH 0 0
BBX 6 2 -6 -3
BITMAP
58
A4
ENDCHAR
STARTCHAR 033D
ENCODING 829
SWIDTH 0 0
DWIDTH 0 0
BBX 3 3 -5 8
BITMAP
A0
40
A0
ENDCHAR
STARTCHAR 033E
ENCODING 830
SWIDTH 0 0
DWIDTH 0 0
BBX 1 5 -4 8
BITMAP
80
80
80
80
80
ENDCHAR
STARTCHAR 033F
ENCODING 831
SWIDTH 0 0
DWIDTH 0 0
BBX 7 3 -7 7
BITMAP
FE
00
FE
ENDCHAR
STARTCHAR 0340
ENCODING 832
SWIDTH 0 0
DWIDTH 0 0
BBX 2 3 -5 9
BITMAP
80
80
40
ENDCHAR
STARTCHAR 0341
ENCODING 833
SWIDTH 0 0
DWIDTH 0 0
BBX 2 4 -4 8
BITMAP
40
40
80
80
ENDCHAR
STARTCHAR 0342
ENCODING 834
SWIDTH 0 0
DWIDTH 0 0
BBX 5 1 -6 9
BITMAP
F8
ENDCHAR
STARTCHAR 0343
ENCODING 835
SWIDTH 0 0
DWIDTH 0 0
BBX 2 4 -3 8
BITMAP
C0
40
80
80
ENDCHAR
STARTCHAR 0344
ENCODING 836
SWIDTH 0 0
DWIDTH 0 0
BBX 5 4 -6 8
BITMAP
10
10
20
D8
ENDCHAR
STARTCHAR 0345
ENCODING 837
SWIDTH 0 0
DWIDTH 0 0
BBX 2 4 -4 -5
BITMAP
40
80
80
80
ENDCHAR
STARTCHAR 0346
ENCODING 838
SWIDTH 0 0
DWIDTH 0 0
BBX 4 2 -5 9
BITMAP
F0
10
ENDCHAR
STARTCHAR 0347
ENCODING 839
SWIDTH 0 0
DWIDTH 0 0
BBX 7 3 -7 -4
BITMAP
FE
00
FE
ENDCHAR
STARTCHAR 0348
ENCODING 840
SWIDTH 0 0
DWIDTH 0 0
BBX 3 3 -5 -4
BITMAP
A0
A0
A0
ENDCHAR
STARTCHAR 0349
ENCODING 841
SWIDTH 0 0
DWIDTH 0 0
BBX 2 3 -4 -4
BITMAP
C0
40
40
ENDCHAR
STARTCHAR 034A
ENCODING 842
SWIDTH 0 0
DWIDTH 0 0
BBX 4 2 -5 8
BITMAP
D0
60
ENDCHAR
STARTCHAR 034B
ENCODING 843
SWIDTH 0 0
DWIDTH 0 0
BBX 4 4 -6 8
BITMAP
20
60
B0
20
ENDCHAR
STARTCHAR 034C
ENCODING 844
SWIDTH 0 0
DWIDTH 0 0
BBX 5 3 -6 7
BITMAP
F8
68
10
ENDCHAR
STARTCHAR 034D
ENCODING 845
SWIDTH 0 0
DWIDTH 0 0
BBX 3 2 -5 -4
BITMAP
80
60
ENDCHAR
STARTCHAR 034E
ENCODING 846
SWIDTH 0 0
DWIDTH 0 0
BBX 2 3 -5 -4
BITMAP
40
C0
40
ENDCHAR
STARTCHAR 0350
ENCODING 848
SWIDTH 0 0
DWIDTH 0 0
BBX 1 1 -3 9
BITMAP
80
ENDCHAR
STARTCHAR 0351
ENCODING 849
SWIDTH 0 0
DWIDTH 0 0
BBX 2 3 -5 8
BITMAP
40
80
40
ENDCHAR
STARTCHAR 0352
ENCODING 850
SWIDTH 0 0
DWIDTH 0 0
BBX 5 3 -6 8
BITMAP
78
88
20
ENDCHAR
STARTCHAR 0353
ENCODING 851
SWIDTH 0 0
DWIDTH 0 0
BBX 3 3 -5 -4
BITMAP
A0
40
A0
ENDCHAR
STARTCHAR 0354
ENCODING 852
SWIDTH 0 0
DWIDTH 0 0
BBX 3 3 -5 -4
BITMAP
20
C0
60
ENDCHAR
STARTCHAR 0355
ENCODING 853
SWIDTH 0 0
DWIDTH 0 0
BBX 2 2 -4 -4
BITMAP
40
80
ENDCHAR
STARTCHAR 0356
ENCODING 854
SWIDTH 0 0
DWIDTH 0 0
BBX 5 3 -6 -4
BITMAP
80
78
C0
ENDCHAR
STARTCHAR 0357
ENCODING 855
SWIDTH 0 0
DWIDTH 0 0
BBX 1 3 -4 8
BITMAP
80
80
80
ENDCHAR
STARTCHAR 0359
ENCODING 857
SWIDTH 0 0
DWIDTH 0 0
BBX 3 4 -6 -5
BITMAP
40
E0
40
40
ENDCHAR
STARTCHAR 035B
ENCODING 859
SWIDTH 0 0
DWIDTH 0 0
BBX 4 5 -5 8
BITMAP
40
80
F0
20
20
ENDCHAR
STARTCHAR 035C
ENCODING 860
SWIDTH 0 0
DWIDTH 0 0
BBX 8 3 -4 -4
BITMAP
01
C2
3C
ENDCHAR
STARTCHAR 035D
ENCODING 861
SWIDTH 0 0
DWIDTH 0 0
BBX 10 3 -5 8
BITMAP
8040
4080
3F00
ENDCHAR
STARTCHAR 035E
ENCODING 862
SWIDTH 0 0
DWIDTH 0 0
BBX 9 1 -5 8
BITMAP
FF80
ENDCHAR
STARTCHAR 035F
ENCODING 863
SWIDTH 0 0
DWIDTH 0 0
BBX 9 1 -5 -3
BITMAP
FF80
ENDCHAR
STARTCHAR 0360
ENCODING 864
SWIDTH 0 0
DWIDTH 0 0
BBX 9 1 -5 8
BITMAP
FF80
ENDCHAR
STARTCHAR 0361
ENCODING 865
SWIDTH 0 0
DWIDTH 0 0
BBX 8 2 -4 8
BITMAP
7E
81
ENDCHAR
STARTCHAR 0362
ENCODING 866
SWIDTH 0 0
DWIDTH 0 0
BBX 9 1 -4 -3
BITMAP
FF80
ENDCHAR
STARTCHAR 0363
ENCODING 867
SWIDTH 0 0
DWIDTH 0 0
BBX 2 4 -5 8
BITMAP
C0
40
C0
C0
ENDCHAR
STARTCHAR 0364
ENCODING 868
SWIDTH 0 0
DWIDTH 0 0
BBX 3 5 -5 7
BITMAP
E0
E0
80
80
40
ENDCHAR
STARTCHAR 0365
ENCODING 869
SWIDTH 0 0
DWIDTH 0 0
BBX 2 7 -4 7
BITMAP
80
00
80
80
80
80
40
ENDCHAR
STARTCHAR 0366
ENCODING 870
SWIDTH 0 0
DWIDTH 0 0
BBX 5 5 -6 7
BITMAP
70
50
88
50
20
ENDCHAR
STARTCHAR 0367
ENCODING 871
SWIDTH 0 0
DWIDTH 0 0
BBX 5 5 -6 7
BITMAP
D0
50
50
50
28
ENDCHAR
STARTCHAR 0368
ENCODING 872
SWIDTH 0 0
DWIDTH 0 0
BBX 3 5 -5 7
BITMAP
60
80
80
80
60
ENDCHAR
STARTCHAR 0369
ENCODING 873
SWIDTH 0 0
DWIDTH 0 0
BBX 4 7 -5 7
BITMAP
20
20
E0
A0
A0
A0
50
ENDCHAR
STARTCHAR 036A
ENCODING 874
SWIDTH 0 0
DWIDTH 0 0
BBX 4 7 -5 7
BITMAP
80
80
E0
A0
A0
80
10
ENDCHAR
STARTCHAR 036B
ENCODING 875
SWIDTH 0 0
DWIDTH 0 0
BBX 6 5 -6 7
BITMAP
F8
A8
A8
A0
04
ENDCHAR
STARTCHAR 036C
ENCODING 876
SWIDTH 0 0
DWIDTH 0 0
BBX 2 4 -4 8
BITMAP
C0
80
80
80
ENDCHAR
STARTCHAR 036D
ENCODING 877
SWIDTH 0 0
DWIDTH 0 0
BBX 3 4 -5 8
BITMAP
E0
40
40
40
ENDCHAR
STARTCHAR 036E
ENCODING 878
SWIDTH 0 0
DWIDTH 0 0
BBX 3 4 -5 8
BITMAP
80
A0
40
40
ENDCHAR
STARTCHAR 036F
ENCODING 879
SWIDTH 0 0
DWIDTH 0 0
BBX 3 4 -5 8
BITMAP
80
60
40
A0
ENDCHAR
STARTCHAR 037E
ENCODING 894
SWIDTH 240 0
DWIDTH 4 0
BBX 2 10 2 -3
BITMAP
80
80
00
00
00
C0
C0
40
80
80
ENDCHAR
STARTCHAR 0384
ENCODING 900
SWIDTH 240 0
DWIDTH 4 0
BBX 2 4 2 9
BITMAP
40
40
80
80
ENDCHAR
STARTCHAR 0385
ENCODING 901
SWIDTH 360 0
DWIDTH 6 0
BBX 5 4 1 9
BITMAP
10
20
A0
98
ENDCHAR
STARTCHAR 0386
ENCODING 902
SWIDTH 660 0
DWIDTH 11 0
BBX 11 13 0 0
BITMAP
2000
4000
4600
4A00
0A00
0B00
1100
1100
1F80
2080
2080
40C0
F1E0
ENDCHAR
STARTCHAR 0387
ENCODING 903
SWIDTH 360 0
DWIDTH 6 0
BBX 2 2 2 4
BITMAP
C0
C0
ENDCHAR
STARTCHAR 0388
ENCODING 904
SWIDTH 720 0
DWIDTH 12 0
BBX 11 13 1 0
BITMAP
4000
8000
9FE0
8820
0820
0800
0880
0F80
0880
0880
0800
0820
3FE0
ENDCHAR
STARTCHAR 0389
ENCODING 905
SWIDTH 960 0
DWIDTH 16 0
BBX 15 13 1 0
BITMAP
4000
8000
9C1C
8808
0808
0808
0808
0FF8
0808
0808
0808
0808
3E3E
ENDCHAR
STARTCHAR 038A
ENCODING 906
SWIDTH 480 0
DWIDTH 8 0
BBX 7 13 1 0
BITMAP
40
80
9C
88
08
08
08
08
08
08
08
08
3E
ENDCHAR
STARTCHAR 038C
ENCODING 908
SWIDTH 780 0
DWIDTH 13 0
BBX 12 14 1 -1
BITMAP
4000
8000
8FC0
9060
3030
2030
2010
2010
2010
2030
3020
1860
0CC0
0300
ENDCHAR
STARTCHAR 038E
ENCODING 910
SWIDTH 780 0
DWIDTH 13 0
BBX 11 13 1 0
BITMAP
4000
8000
BCE0
8300
0300
0300
0300
0300
0300
0300
0300
0300
0780
ENDCHAR
STARTCHAR 038F
ENCODING 911
SWIDTH 840 0
DWIDTH 14 0
BBX 13 13 1 0
BITMAP
4000
8000
8FC0
9020
3030
2010
2010
2010
2010
3030
1020
4848
7CF8
ENDCHAR
STARTCHAR 0390
ENCODING 912
SWIDTH 180 0
DWIDTH 3 0
BBX 6 13 0 0
BITMAP
10
10
00
CC
00
00
20
20
40
40
40
E0
C0
ENDCHAR
STARTCHAR 0391
ENCODING 913
SWIDTH 660 0
DWIDTH 11 0
BBX 11 11 0 0
BITMAP
0600
0A00
0A00
0B00
1100
1100
1F80
2080
2080
40C0
F1E0
ENDCHAR
STARTCHAR 0392
ENCODING 914
SWIDTH 600 0
DWIDTH 10 0
BBX 8 12 1 -1
BITMAP
7E
62
63
62
66
7E
63
61
61
63
F6
08
ENDCHAR
STARTCHAR 0393
ENCODING 915
SWIDTH 600 0
DWIDTH 10 0
BBX 8 11 1 0
BITMAP
7F
61
61
60
60
60
60
60
60
60
F0
ENDCHAR
STARTCHAR 0394
ENCODING 916
SWIDTH 540 0
DWIDTH 9 0
BBX 9 11 0 0
BITMAP
0C00
0C00
1600
1200
2200
2300
2100
4100
4180
4180
FF80
ENDCHAR
STARTCHAR 0395
ENCODING 917
SWIDTH 600 0
DWIDTH 10 0
BBX 9 11 1 0
BITMAP
7F00
6100
6100
6000
6400
7C00
6400
6000
6080
6080
FF80
ENDCHAR
STARTCHAR 0396
ENCODING 918
SWIDTH 600 0
DWIDTH 10 0
BBX 9 11 1 0
BITMAP
FF80
8300
8200
0600
0C00
1800
1000
3000
6080
4080
FF80
ENDCHAR
STARTCHAR 0397
ENCODING 919
SWIDTH 780 0
DWIDTH 13 0
BBX 12 11 1 0
BITMAP
60E0
6040
6040
6040
6040
7FC0
6040
6040
6040
6040
F0F0
ENDCHAR
STARTCHAR 0398
ENCODING 920
SWIDTH 720 0
DWIDTH 12 0
BBX 10 12 1 -1
BITMAP
3F00
4080
C0C0
C140
9340
9E40
A240
C040
C0C0
6080
3B00
0400
ENDCHAR
STARTCHAR 0399
ENCODING 921
SWIDTH 300 0
DWIDTH 5 0
BBX 4 11 1 0
BITMAP
60
60
60
60
60
60
60
60
60
60
F0
ENDCHAR
STARTCHAR 039A
ENCODING 922
SWIDTH 660 0
DWIDTH 11 0
BBX 10 11 1 0
BITMAP
6300
6200
6400
6800
7000
7800
6C00
6400
6200
6300
F3C0
ENDCHAR
STARTCHAR 039B
ENCODING 923
SWIDTH 660 0
DWIDTH 11 0
BBX 11 11 0 0
BITMAP
0600
0A00
0A00
0B00
1100
1100
1180
2080
2080
40C0
F1E0
ENDCHAR
STARTCHAR 039C
ENCODING 924
SWIDTH 900 0
DWIDTH 15 0
BBX 14 11 1 0
BITMAP
601C
6030
7030
5050
5850
4890
4890
4510
4510
4610
E23C
ENDCHAR
STARTCHAR 039D
ENCODING 925
SWIDTH 720 0
DWIDTH 12 0
BBX 11 11 1 0
BITMAP
E060
6040
5040
5840
4C40
4640
4240
4340
41C0
40C0
E040
ENDCHAR
STARTCHAR 039E
ENCODING 926
SWIDTH 540 0
DWIDTH 9 0
BBX 8 12 1 -1
BITMAP
FF
FF
00
00
02
7E
42
00
00
00
FF
81
ENDCHAR
STARTCHAR 039F
ENCODING 927
SWIDTH 720 0
DWIDTH 12 0
BBX 10 12 1 -1
BITMAP
3F00
4080
C0C0
C040
8040
8040
8040
C040
40C0
6080
3B00
0400
ENDCHAR
STARTCHAR 03A0
ENCODING 928
SWIDTH 720 0
DWIDTH 12 0
BBX 11 11 1 0
BITMAP
7FC0
6080
6080
6080
6080
6080
6080
6080
6080
6080
F3E0
ENDCHAR
STARTCHAR 03A1
ENCODING 929
SWIDTH 540 0
DWIDTH 9 0
BBX 8 11 1 0
BITMAP
7E
63
61
61
63
6E
70
60
60
60
F0
ENDCHAR
STARTCHAR 03A3
ENCODING 931
SWIDTH 600 0
DWIDTH 10 0
BBX 9 11 0 0
BITMAP
FF80
6080
3080
1000
1800
0C00
0800
1000
2000
4080
7F80
ENDCHAR
STARTCHAR 03A4
ENCODING 932
SWIDTH 600 0
DWIDTH 10 0
BBX 11 11 0 0
BITMAP
FFE0
8420
8420
0400
0400
0400
0400
0400
0400
0400
1F00
ENDCHAR
STARTCHAR 03A5
ENCODING 933
SWIDTH 600 0
DWIDTH 10 0
BBX 9 11 1 0
BITMAP
F780
1800
0800
0800
0800
0800
0800
0800
0800
0800
3E00
ENDCHAR
STARTCHAR 03A6
ENCODING 934
SWIDTH 720 0
DWIDTH 12 0
BBX 10 11 1 0
BITMAP
0C00
0400
3F00
44C0
8440
8440
C440
6480
1F00
0400
1E00
ENDCHAR
STARTCHAR 03A7
ENCODING 935
SWIDTH 660 0
DWIDTH 11 0
BBX 11 11 0 0
BITMAP
70C0
3080
1900
0A00
0C00
0600
0A00
1300
2100
2080
F1E0
ENDCHAR
STARTCHAR 03A8
ENCODING 936
SWIDTH 780 0
DWIDTH 13 0
BBX 10 11 1 0
BITMAP
CC40
CC40
CC40
CC40
CCC0
4C80
7F00
0C00
0C00
0C00
1E00
ENDCHAR
STARTCHAR 03A9
ENCODING 937
SWIDTH 780 0
DWIDTH 13 0
BBX 12 11 1 0
BITMAP
1F80
20C0
4060
4060
4020
4020
4060
6040
2050
9090
F9F0
ENDCHAR
STARTCHAR 03AA
ENCODING 938
SWIDTH 300 0
DWIDTH 5 0
BBX 6 15 0 0
BITMAP
48
CC
00
00
30
30
30
30
30
30
30
30
30
30
78
ENDCHAR
STARTCHAR 03AB
ENCODING 939
SWIDTH 600 0
DWIDTH 10 0
BBX 9 15 1 0
BITMAP
2200
2600
0000
0000
F780
1800
0800
0800
0800
0800
0800
0800
0800
0800
3E00
ENDCHAR
STARTCHAR 03AC
ENCODING 940
SWIDTH 540 0
DWIDTH 9 0
BBX 10 13 0 0
BITMAP
0400
0400
0800
0800
0000
0000
1B00
2700
6600
4600
8C40
9C80
7380
ENDCHAR
STARTCHAR 03AD
ENCODING 941
SWIDTH 300 0
DWIDTH 5 0
BBX 5 13 0 0
BITMAP
10
10
20
20
00
00
38
40
80
70
80
98
70
ENDCHAR
STARTCHAR 03AE
ENCODING 942
SWIDTH 360 0
DWIDTH 6 0
BBX 5 14 1 -1
BITMAP
08
10
10
10
00
00
D8
78
A8
48
C8
88
88
08
ENDCHAR
STARTCHAR 03AF
ENCODING 943
SWIDTH 180 0
DWIDTH 3 0
BBX 4 13 0 0
BITMAP
10
10
20
20
00
00
20
20
40
40
40
E0
C0
ENDCHAR
STARTCHAR 03B0
ENCODING 944
SWIDTH 360 0
DWIDTH 6 0
BBX 7 13 0 0
BITMAP
08
08
08
66
00
00
60
C4
44
44
44
48
78
ENDCHAR
STARTCHAR 03B1
ENCODING 945
SWIDTH 540 0
DWIDTH 9 0
BBX 10 7 0 0
BITMAP
1B00
2700
6600
4600
8C40
9C80
7380
ENDCHAR
STARTCHAR 03B2
ENCODING 946
SWIDTH 600 0
DWIDTH 10 0
BBX 10 14 0 -3
BITMAP
0E00
1900
1100
2100
2100
2300
4680
44C0
4080
6180
9F00
8000
8000
8000
ENDCHAR
STARTCHAR 03B3
ENCODING 947
SWIDTH 600 0
DWIDTH 10 0
BBX 10 11 0 -4
BITMAP
7800
4840
8880
8900
0A00
0600
0C00
1800
3800
7000
2000
ENDCHAR
STARTCHAR 03B4
ENCODING 948
SWIDTH 300 0
DWIDTH 5 0
BBX 5 12 1 0
BITMAP
C0
E0
50
48
20
20
30
70
D0
90
B0
E0
ENDCHAR
STARTCHAR 03B5
ENCODING 949
SWIDTH 300 0
DWIDTH 5 0
BBX 5 7 0 0
BITMAP
38
40
80
70
80
98
70
ENDCHAR
STARTCHAR 03B6
ENCODING 950
SWIDTH 300 0
DWIDTH 5 0
BBX 6 16 0 -4
BITMAP
1C
24
0C
08
18
30
20
40
40
80
80
60
38
04
04
18
ENDCHAR
STARTCHAR 03B7
ENCODING 951
SWIDTH 360 0
DWIDTH 6 0
BBX 5 8 1 -1
BITMAP
D8
78
A8
48
C8
88
88
08
ENDCHAR
STARTCHAR 03B8
ENCODING 952
SWIDTH 420 0
DWIDTH 7 0
BBX 6 13 1 -1
BITMAP
18
24
44
44
44
8C
F8
88
88
90
90
A0
40
ENDCHAR
STARTCHAR 03B9
ENCODING 953
SWIDTH 180 0
DWIDTH 3 0
BBX 3 7 0 0
BITMAP
20
20
40
40
40
E0
C0
ENDCHAR
STARTCHAR 03BA
ENCODING 954
SWIDTH 480 0
DWIDTH 8 0
BBX 8 7 0 0
BITMAP
62
24
28
38
71
52
8E
ENDCHAR
STARTCHAR 03BB
ENCODING 955
SWIDTH 420 0
DWIDTH 7 0
BBX 7 8 0 0
BITMAP
30
08
08
1C
14
24
62
C2
ENDCHAR
STARTCHAR 03BC
ENCODING 956
SWIDTH 540 0
DWIDTH 9 0
BBX 10 11 0 -4
BITMAP
3100
2300
6200
4200
4440
CCC0
FB80
8000
8000
8000
8000
ENDCHAR
STARTCHAR 03BD
ENCODING 957
SWIDTH 300 0
DWIDTH 5 0
BBX 4 7 1 0
BITMAP
90
90
90
A0
E0
C0
80
ENDCHAR
STARTCHAR 03BE
ENCODING 958
SWIDTH 300 0
DWIDTH 5 0
BBX 7 15 0 -2
BITMAP
20
2E
38
30
20
44
3C
10
20
40
40
80
7C
04
0C
ENDCHAR
STARTCHAR 03BF
ENCODING 959
SWIDTH 360 0
DWIDTH 6 0
BBX 6 7 0 0
BITMAP
18
38
64
44
4C
88
70
ENDCHAR
STARTCHAR 03C0
ENCODING 960
SWIDTH 600 0
DWIDTH 10 0
BBX 10 8 0 0
BITMAP
0040
7FC0
8600
CA00
1200
1400
2700
2600
ENDCHAR
STARTCHAR 03C1
ENCODING 961
SWIDTH 360 0
DWIDTH 6 0
BBX 6 12 0 -5
BITMAP
1C
34
64
4C
78
60
80
80
60
38
08
70
ENDCHAR
STARTCHAR 03C2
ENCODING 962
SWIDTH 240 0
DWIDTH 4 0
BBX 6 9 0 -2
BITMAP
3C
60
40
80
80
70
10
10
60
ENDCHAR
STARTCHAR 03C3
ENCODING 963
SWIDTH 420 0
DWIDTH 7 0
BBX 6 8 1 0
BITMAP
04
7C
50
90
98
98
90
E0
ENDCHAR
STARTCHAR 03C4
ENCODING 964
SWIDTH 480 0
DWIDTH 8 0
BBX 8 7 0 0
BITMAP
7F
8C
C8
10
10
18
18
ENDCHAR
STARTCHAR 03C5
ENCODING 965
SWIDTH 360 0
DWIDTH 6 0
BBX 6 7 0 0
BITMAP
60
C4
44
44
44
48
78
ENDCHAR
STARTCHAR 03C6
ENCODING 966
SWIDTH 540 0
DWIDTH 9 0
BBX 9 14 0 -5
BITMAP
1E00
3F80
2480
4880
8880
9080
9100
5300
3E00
1000
1000
1000
1000
1000
ENDCHAR
STARTCHAR 03C7
ENCODING 967
SWIDTH 480 0
DWIDTH 8 0
BBX 10 11 -1 -4
BITMAP
3880
0980
0900
0A00
0600
0C00
1C00
3400
6400
42C0
8380
ENDCHAR
STARTCHAR 03C8
ENCODING 968
SWIDTH 540 0
DWIDTH 9 0
BBX 9 16 0 -4
BITMAP
0200
0600
0600
0600
0600
0400
4400
C400
2400
2480
1500
1E00
0400
0400
0400
0400
ENDCHAR
STARTCHAR 03C9
ENCODING 969
SWIDTH 540 0
DWIDTH 9 0
BBX 9 7 0 0
BITMAP
1880
3080
6480
4480
8C80
9980
7F00
ENDCHAR
STARTCHAR 03CA
ENCODING 970
SWIDTH 180 0
DWIDTH 3 0
BBX 5 10 0 0
BITMAP
D8
00
00
20
20
40
40
40
E0
C0
ENDCHAR
STARTCHAR 03CB
ENCODING 971
SWIDTH 360 0
DWIDTH 6 0
BBX 6 10 0 0
BITMAP
64
00
00
60
C4
44
44
44
48
78
ENDCHAR
STARTCHAR 03CC
ENCODING 972
SWIDTH 360 0
DWIDTH 6 0
BBX 6 13 0 0
BITMAP
08
08
08
10
00
00
18
38
64
44
4C
88
70
ENDCHAR
STARTCHAR 03CD
ENCODING 973
SWIDTH 360 0
DWIDTH 6 0
BBX 6 13 0 0
BITMAP
08
08
08
00
00
00
60
C4
44
44
44
48
78
ENDCHAR
STARTCHAR 03CE
ENCODING 974
SWIDTH 540 0
DWIDTH 9 0
BBX 9 13 0 0
BITMAP
0100
0200
0200
0200
0000
0000
1880
3080
6480
4480
8C80
9980
7F00
ENDCHAR
STARTCHAR 03D0
ENCODING 976
SWIDTH 300 0
DWIDTH 5 0
BBX 7 12 0 0
BITMAP
1C
32
3C
40
40
40
80
80
90
68
48
38
ENDCHAR
STARTCHAR 03D1
ENCODING 977
SWIDTH 540 0
DWIDTH 9 0
BBX 9 11 0 0
BITMAP
7C00
4400
4200
3200
0F80
0200
0200
0200
6200
D600
0C00
ENDCHAR
STARTCHAR 03D5
ENCODING 981
SWIDTH 600 0
DWIDTH 10 0
BBX 9 15 1 -5
BITMAP
0C00
0C00
3E00
4900
8880
8880
8880
9980
9B00
7E00
1000
1000
1000
1000
1000
ENDCHAR
STARTCHAR 03D6
ENCODING 982
SWIDTH 540 0
DWIDTH 9 0
BBX 11 8 -1 0
BITMAP
0020
7FE0
9840
F240
2240
4640
4CC0
3F80
ENDCHAR
STARTCHAR 03D7
ENCODING 983
SWIDTH 600 0
DWIDTH 10 0
BBX 10 18 0 -5
BITMAP
0080
0080
0080
0040
0000
0000
6200
2400
2800
3800
70C0
5140
8E40
0040
0040
0080
0D00
0600
ENDCHAR
STARTCHAR 03DB
ENCODING 987
SWIDTH 480 0
DWIDTH 8 0
BBX 8 10 0 -2
BITMAP
01
3F
60
40
80
80
F0
10
10
E0
ENDCHAR
STARTCHAR 03F0
ENCODING 1008
SWIDTH 480 0
DWIDTH 8 0
BBX 8 7 0 0
BITMAP
62
24
28
38
71
52
8E
ENDCHAR
STARTCHAR 10FB
ENCODING 4347
SWIDTH 480 0
DWIDTH 8 0
BBX 7 7 1 0
BITMAP
C0
C0
04
06
00
C0
C0
ENDCHAR
STARTCHAR 16A0
ENCODING 5792
SWIDTH 420 0
DWIDTH 7 0
BBX 5 12 1 0
BITMAP
88
90
A0
C8
90
A0
C0
80
80
80
80
80
ENDCHAR
STARTCHAR 16A1
ENCODING 5793
SWIDTH 540 0
DWIDTH 9 0
BBX 7 12 1 0
BITMAP
EA
8A
92
E4
88
F0
80
80
80
80
80
80
ENDCHAR
STARTCHAR 16A2
ENCODING 5794
SWIDTH 480 0
DWIDTH 8 0
BBX 7 12 1 0
BITMAP
80
C0
C0
A0
A0
90
90
88
88
84
84
82
ENDCHAR
STARTCHAR 16A3
ENCODING 5795
SWIDTH 480 0
DWIDTH 8 0
BBX 7 12 1 0
BITMAP
80
C0
C0
A0
A0
90
90
88
A8
A4
A4
A2
ENDCHAR
STARTCHAR 16A4
ENCODING 5796
SWIDTH 480 0
DWIDTH 8 0
BBX 7 12 1 0
BITMAP
80
C0
C0
A0
A0
90
90
88
A8
B4
84
82
ENDCHAR
STARTCHAR 16A5
ENCODING 5797
SWIDTH 480 0
DWIDTH 8 0
BBX 7 12 1 0
BITMAP
80
C0
C0
A0
A0
D0
D0
A8
A8
94
94
8A
ENDCHAR
STARTCHAR 16A6
ENCODING 5798
SWIDTH 420 0
DWIDTH 7 0
BBX 5 12 1 0
BITMAP
80
80
C0
A0
90
88
98
A0
C0
80
80
80
ENDCHAR
STARTCHAR 16A7
ENCODING 5799
SWIDTH 420 0
DWIDTH 7 0
BBX 5 12 1 0
BITMAP
80
80
E0
98
88
B8
88
98
E0
80
80
80
ENDCHAR
STARTCHAR 16A8
ENCODING 5800
SWIDTH 300 0
DWIDTH 5 0
BBX 3 12 1 0
BITMAP
C0
A0
80
C0
A0
80
80
80
80
80
80
80
ENDCHAR
STARTCHAR 16A9
ENCODING 5801
SWIDTH 420 0
DWIDTH 7 0
BBX 6 12 1 0
BITMAP
CC
B8
90
CC
B8
90
80
80
80
80
80
80
ENDCHAR
STARTCHAR 16AA
ENCODING 5802
SWIDTH 420 0
DWIDTH 7 0
BBX 6 12 1 0
BITMAP
CC
B8
90
C0
A0
80
80
80
80
80
80
80
ENDCHAR
STARTCHAR 16AB
ENCODING 5803
SWIDTH 420 0
DWIDTH 7 0
BBX 5 12 1 0
BITMAP
C0
A0
90
C8
A0
90
88
80
80
80
80
80
ENDCHAR
STARTCHAR 16AC
ENCODING 5804
SWIDTH 480 0
DWIDTH 8 0
BBX 7 12 1 0
BITMAP
10
10
90
70
1C
D2
30
1E
10
10
10
10
ENDCHAR
STARTCHAR 16AD
ENCODING 5805
SWIDTH 360 0
DWIDTH 6 0
BBX 4 12 1 0
BITMAP
80
80
80
80
F0
80
C0
B0
80
80
80
80
ENDCHAR
STARTCHAR 16AE
ENCODING 5806
SWIDTH 360 0
DWIDTH 6 0
BBX 4 12 1 0
BITMAP
10
10
10
10
F0
10
10
F0
10
10
10
10
ENDCHAR
STARTCHAR 16AF
ENCODING 5807
SWIDTH 480 0
DWIDTH 8 0
BBX 7 12 1 0
BITMAP
10
10
12
1C
F0
16
18
F0
10
10
10
10
ENDCHAR
STARTCHAR 16B0
ENCODING 5808
SWIDTH 480 0
DWIDTH 8 0
BBX 7 12 1 0
BITMAP
10
10
12
1C
F0
10
10
F0
10
10
10
10
ENDCHAR
STARTCHAR 16B1
ENCODING 5809
SWIDTH 360 0
DWIDTH 6 0
BBX 5 12 1 0
BITMAP
C0
A0
90
90
A0
C0
80
C0
A0
A0
90
88
ENDCHAR
STARTCHAR 16B2
ENCODING 5810
SWIDTH 360 0
DWIDTH 6 0
BBX 5 9 1 2
BITMAP
08
10
20
40
80
80
40
20
10
ENDCHAR
STARTCHAR 16B3
ENCODING 5811
SWIDTH 420 0
DWIDTH 7 0
BBX 5 12 1 0
BITMAP
80
80
80
80
80
80
80
C0
E0
B0
98
88
ENDCHAR
STARTCHAR 16B4
ENCODING 5812
SWIDTH 420 0
DWIDTH 7 0
BBX 5 12 1 0
BITMAP
88
90
A0
C0
80
80
80
80
80
80
80
80
ENDCHAR
STARTCHAR 16B5
ENCODING 5813
SWIDTH 540 0
DWIDTH 9 0
BBX 6 12 1 0
BITMAP
A4
88
88
B0
C0
80
80
80
80
80
80
80
ENDCHAR
STARTCHAR 16B6
ENCODING 5814
SWIDTH 480 0
DWIDTH 8 0
BBX 6 12 1 0
BITMAP
44
48
50
E0
E0
E0
40
40
40
40
40
40
ENDCHAR
STARTCHAR 16B7
ENCODING 5815
SWIDTH 480 0
DWIDTH 8 0
BBX 6 12 1 0
BITMAP
84
44
48
48
30
30
30
30
48
48
44
84
ENDCHAR
STARTCHAR 16B8
ENCODING 5816
SWIDTH 480 0
DWIDTH 8 0
BBX 6 12 1 0
BITMAP
84
44
48
48
38
7C
7C
38
48
48
44
84
ENDCHAR
STARTCHAR 16B9
ENCODING 5817
SWIDTH 360 0
DWIDTH 6 0
BBX 4 12 1 0
BITMAP
C0
A0
90
A0
C0
80
80
80
80
80
80
80
ENDCHAR
STARTCHAR 16BA
ENCODING 5818
SWIDTH 540 0
DWIDTH 9 0
BBX 8 12 1 0
BITMAP
81
81
81
81
E1
91
89
87
83
81
81
81
ENDCHAR
STARTCHAR 16BB
ENCODING 5819
SWIDTH 540 0
DWIDTH 9 0
BBX 8 12 1 0
BITMAP
81
81
C1
A1
91
CD
B7
89
85
83
81
81
ENDCHAR
STARTCHAR 16BC
ENCODING 5820
SWIDTH 420 0
DWIDTH 7 0
BBX 5 12 1 0
BITMAP
20
20
20
A8
70
20
70
A8
20
20
20
20
ENDCHAR
STARTCHAR 16BD
ENCODING 5821
SWIDTH 300 0
DWIDTH 5 0
BBX 3 12 1 0
BITMAP
40
40
40
40
E0
E0
E0
40
40
40
40
40
ENDCHAR
STARTCHAR 16BE
ENCODING 5822
SWIDTH 360 0
DWIDTH 6 0
BBX 5 12 1 0
BITMAP
20
20
20
20
E0
30
28
20
20
20
20
20
ENDCHAR
STARTCHAR 16BF
ENCODING 5823
SWIDTH 360 0
DWIDTH 6 0
BBX 3 12 3 0
BITMAP
80
80
80
80
80
C0
A0
80
80
80
80
80
ENDCHAR
STARTCHAR 16C0
ENCODING 5824
SWIDTH 420 0
DWIDTH 7 0
BBX 6 12 1 0
BITMAP
20
20
20
20
F0
78
34
20
20
20
20
20
ENDCHAR
STARTCHAR 16C1
ENCODING 5825
SWIDTH 180 0
DWIDTH 3 0
BBX 1 12 1 0
BITMAP
80
80
80
80
80
80
80
80
80
80
80
80
ENDCHAR
STARTCHAR 16C2
ENCODING 5826
SWIDTH 300 0
DWIDTH 5 0
BBX 3 12 1 0
BITMAP
40
40
40
40
E0
E0
E0
40
40
40
40
40
ENDCHAR
STARTCHAR 16C3
ENCODING 5827
SWIDTH 480 0
DWIDTH 8 0
BBX 7 9 1 1
BITMAP
30
60
90
C8
64
32
06
08
10
ENDCHAR
STARTCHAR 16C4
ENCODING 5828
SWIDTH 420 0
DWIDTH 7 0
BBX 5 12 1 0
BITMAP
20
20
20
30
78
A8
E8
70
20
20
20
20
ENDCHAR
STARTCHAR 16C5
ENCODING 5829
SWIDTH 420 0
DWIDTH 7 0
BBX 4 12 2 0
BITMAP
40
40
40
40
70
C0
40
40
40
40
40
40
ENDCHAR
STARTCHAR 16C6
ENCODING 5830
SWIDTH 300 0
DWIDTH 5 0
BBX 2 12 2 0
BITMAP
40
40
40
40
40
C0
40
40
40
40
40
40
ENDCHAR
STARTCHAR 16C7
ENCODING 5831
SWIDTH 480 0
DWIDTH 8 0
BBX 6 12 1 0
BITMAP
1C
10
10
10
10
10
10
10
10
10
90
70
ENDCHAR
STARTCHAR 16C8
ENCODING 5832
SWIDTH 360 0
DWIDTH 6 0
BBX 5 12 1 0
BITMAP
D0
A0
80
80
80
80
80
80
80
80
F0
98
ENDCHAR
STARTCHAR 16C9
ENCODING 5833
SWIDTH 540 0
DWIDTH 9 0
BBX 7 12 1 0
BITMAP
92
54
38
10
10
10
10
10
10
10
10
10
ENDCHAR
STARTCHAR 16CA
ENCODING 5834
SWIDTH 360 0
DWIDTH 6 0
BBX 4 12 1 0
BITMAP
10
60
C0
80
60
10
30
60
80
C0
20
10
ENDCHAR
STARTCHAR 16CB
ENCODING 5835
SWIDTH 480 0
DWIDTH 8 0
BBX 6 11 1 1
BITMAP
80
80
80
80
8C
94
A4
C4
04
04
04
ENDCHAR
STARTCHAR 16CC
ENCODING 5836
SWIDTH 180 0
DWIDTH 3 0
BBX 1 6 1 6
BITMAP
80
80
80
80
80
80
ENDCHAR
STARTCHAR 16CD
ENCODING 5837
SWIDTH 300 0
DWIDTH 5 0
BBX 3 7 1 5
BITMAP
40
40
40
40
E0
E0
E0
ENDCHAR
STARTCHAR 16CE
ENCODING 5838
SWIDTH 540 0
DWIDTH 9 0
BBX 8 8 1 4
BITMAP
10
10
10
10
10
D3
34
18
ENDCHAR
STARTCHAR 16CF
ENCODING 5839
SWIDTH 540 0
DWIDTH 9 0
BBX 8 12 1 0
BITMAP
3C
56
91
10
10
10
10
10
10
10
10
10
ENDCHAR
STARTCHAR 16D0
ENCODING 5840
SWIDTH 360 0
DWIDTH 6 0
BBX 4 12 1 0
BITMAP
30
50
90
10
10
10
10
10
10
10
10
10
ENDCHAR
STARTCHAR 16D1
ENCODING 5841
SWIDTH 420 0
DWIDTH 7 0
BBX 5 12 1 0
BITMAP
30
50
90
10
18
38
38
18
10
10
10
10
ENDCHAR
STARTCHAR 16D2
ENCODING 5842
SWIDTH 420 0
DWIDTH 7 0
BBX 5 12 1 0
BITMAP
C0
B0
88
98
A0
C0
C0
B0
88
98
A0
C0
ENDCHAR
STARTCHAR 16D3
ENCODING 5843
SWIDTH 360 0
DWIDTH 6 0
BBX 4 12 1 0
BITMAP
80
80
90
E0
80
90
E0
80
80
80
80
80
ENDCHAR
STARTCHAR 16D4
ENCODING 5844
SWIDTH 420 0
DWIDTH 7 0
BBX 5 12 1 0
BITMAP
F0
88
A8
A8
98
E0
F0
88
A8
A8
98
E0
ENDCHAR
STARTCHAR 16D5
ENCODING 5845
SWIDTH 420 0
DWIDTH 7 0
BBX 6 12 1 0
BITMAP
88
88
90
A0
C0
C0
C0
E0
A0
90
88
8C
ENDCHAR
STARTCHAR 16D6
ENCODING 5846
SWIDTH 600 0
DWIDTH 10 0
BBX 9 12 1 0
BITMAP
C180
A280
9480
8880
8080
8080
8080
8080
8080
8080
8080
8080
ENDCHAR
STARTCHAR 16D7
ENCODING 5847
SWIDTH 600 0
DWIDTH 10 0
BBX 9 12 1 0
BITMAP
C180
B680
9880
A680
C180
8080
8080
8080
8080
8080
8080
8080
ENDCHAR
STARTCHAR 16D8
ENCODING 5848
SWIDTH 540 0
DWIDTH 9 0
BBX 8 12 1 0
BITMAP
91
92
76
18
10
10
10
10
10
10
10
10
ENDCHAR
STARTCHAR 16D9
ENCODING 5849
SWIDTH 300 0
DWIDTH 5 0
BBX 3 12 1 0
BITMAP
E0
E0
E0
40
40
40
40
40
40
40
40
40
ENDCHAR
STARTCHAR 16DA
ENCODING 5850
SWIDTH 360 0
DWIDTH 6 0
BBX 5 12 1 0
BITMAP
C0
A0
90
88
80
80
80
80
80
80
80
80
ENDCHAR
STARTCHAR 16DB
ENCODING 5851
SWIDTH 420 0
DWIDTH 7 0
BBX 6 12 1 0
BITMAP
60
50
48
44
40
E0
E0
E0
40
40
40
40
ENDCHAR
STARTCHAR 16DC
ENCODING 5852
SWIDTH 480 0
DWIDTH 8 0
BBX 7 7 1 2
BITMAP
10
28
44
86
44
28
30
ENDCHAR
STARTCHAR 16DD
ENCODING 5853
SWIDTH 600 0
DWIDTH 10 0
BBX 8 12 1 0
BITMAP
43
26
18
14
62
C1
41
26
1C
1C
22
41
ENDCHAR
STARTCHAR 16DE
ENCODING 5854
SWIDTH 600 0
DWIDTH 10 0
BBX 9 12 1 0
BITMAP
C180
C180
A280
B480
9480
8880
8880
9480
A280
A280
C180
C180
ENDCHAR
STARTCHAR 16DF
ENCODING 5855
SWIDTH 600 0
DWIDTH 10 0
BBX 8 12 1 0
BITMAP
18
34
66
C3
81
42
24
18
18
24
42
81
ENDCHAR
STARTCHAR 16E0
ENCODING 5856
SWIDTH 660 0
DWIDTH 11 0
BBX 10 12 1 0
BITMAP
8CC0
5B80
2900
0800
0800
0800
0800
0800
0800
0800
0800
0800
ENDCHAR
STARTCHAR 16E1
ENCODING 5857
SWIDTH 420 0
DWIDTH 7 0
BBX 5 12 1 0
BITMAP
20
20
20
A8
70
20
70
A8
20
20
20
20
ENDCHAR
STARTCHAR 16E2
ENCODING 5858
SWIDTH 600 0
DWIDTH 10 0
BBX 9 12 1 0
BITMAP
0D80
0A00
0800
0800
0800
0800
0800
0800
0800
0800
6800
9800
ENDCHAR
STARTCHAR 16E3
ENCODING 5859
SWIDTH 540 0
DWIDTH 9 0
BBX 7 12 1 0
BITMAP
10
10
10
10
10
10
10
10
18
38
54
92
ENDCHAR
STARTCHAR 16E4
ENCODING 5860
SWIDTH 600 0
DWIDTH 10 0
BBX 8 12 1 0
BITMAP
49
4A
2A
2C
3C
7A
3E
1C
2C
2A
4A
89
ENDCHAR
STARTCHAR 16E5
ENCODING 5861
SWIDTH 600 0
DWIDTH 10 0
BBX 9 12 1 0
BITMAP
C180
B680
9880
A680
C180
8080
8080
C180
B680
9C80
A280
C180
ENDCHAR
STARTCHAR 16E6
ENCODING 5862
SWIDTH 540 0
DWIDTH 9 0
BBX 7 12 1 0
BITMAP
10
10
10
10
10
10
10
10
18
38
54
92
ENDCHAR
STARTCHAR 16E7
ENCODING 5863
SWIDTH 180 0
DWIDTH 3 0
BBX 1 6 1 0
BITMAP
80
80
80
80
80
80
ENDCHAR
STARTCHAR 16E8
ENCODING 5864
SWIDTH 540 0
DWIDTH 9 0
BBX 8 12 1 0
BITMAP
38
56
91
10
10
10
10
10
10
93
74
18
ENDCHAR
STARTCHAR 16E9
ENCODING 5865
SWIDTH 360 0
DWIDTH 6 0
BBX 4 12 1 0
BITMAP
30
50
90
50
30
10
10
10
10
10
10
10
ENDCHAR
STARTCHAR 16EA
ENCODING 5866
SWIDTH 540 0
DWIDTH 9 0
BBX 8 12 1 0
BITMAP
40
E0
40
40
46
4A
72
42
02
02
07
02
ENDCHAR
STARTCHAR 16EB
ENCODING 5867
SWIDTH 180 0
DWIDTH 3 0
BBX 2 2 1 5
BITMAP
C0
C0
ENDCHAR
STARTCHAR 16EC
ENCODING 5868
SWIDTH 180 0
DWIDTH 3 0
BBX 2 8 1 2
BITMAP
C0
C0
00
00
00
00
C0
C0
ENDCHAR
STARTCHAR 16ED
ENCODING 5869
SWIDTH 480 0
DWIDTH 8 0
BBX 6 7 1 3
BITMAP
30
30
10
FC
10
30
30
ENDCHAR
STARTCHAR 16EE
ENCODING 5870
SWIDTH 540 0
DWIDTH 9 0
BBX 7 11 1 1
BITMAP
10
28
26
22
20
20
60
A0
20
20
20
ENDCHAR
STARTCHAR 16EF
ENCODING 5871
SWIDTH 540 0
DWIDTH 9 0
BBX 8 12 1 0
BITMAP
91
92
74
18
10
10
10
10
3C
56
92
91
ENDCHAR
STARTCHAR 16F0
ENCODING 5872
SWIDTH 540 0
DWIDTH 9 0
BBX 8 12 1 0
BITMAP
10
10
18
76
92
91
91
91
52
7C
10
10
ENDCHAR
STARTCHAR 1D00
ENCODING 7424
SWIDTH 420 0
DWIDTH 7 0
BBX 7 7 0 0
BITMAP
10
28
28
2C
54
44
C6
ENDCHAR
STARTCHAR 1D01
ENCODING 7425
SWIDTH 600 0
DWIDTH 10 0
BBX 10 8 0 -1
BITMAP
0F80
1C00
2C00
3F00
4C00
4C40
8CC0
0300
ENDCHAR
STARTCHAR 1D02
ENCODING 7426
SWIDTH 540 0
DWIDTH 9 0
BBX 8 8 1 -1
BITMAP
F7
19
1B
0C
38
D9
AE
40
ENDCHAR
STARTCHAR 1D03
ENCODING 7427
SWIDTH 420 0
DWIDTH 7 0
BBX 7 8 0 -1
BITMAP
78
64
64
FE
64
64
6C
10
ENDCHAR
STARTCHAR 1D04
ENCODING 7428
SWIDTH 420 0
DWIDTH 7 0
BBX 7 8 0 -1
BITMAP
3E
42
40
C0
40
42
26
18
ENDCHAR
STARTCHAR 1D05
ENCODING 7429
SWIDTH 480 0
DWIDTH 8 0
BBX 7 8 1 -1
BITMAP
F8
C6
C2
C2
C2
C4
C8
30
ENDCHAR
STARTCHAR 1D06
ENCODING 7430
SWIDTH 480 0
DWIDTH 8 0
BBX 8 8 0 -1
BITMAP
7C
63
61
F1
61
62
64
18
ENDCHAR
STARTCHAR 1D07
ENCODING 7431
SWIDTH 360 0
DWIDTH 6 0
BBX 5 8 1 -1
BITMAP
F8
C0
C0
F0
C0
C0
C8
30
ENDCHAR
STARTCHAR 1D08
ENCODING 7432
SWIDTH 360 0
DWIDTH 6 0
BBX 5 8 1 -1
BITMAP
F0
18
18
30
10
18
90
60
ENDCHAR
STARTCHAR 1D09
ENCODING 7433
SWIDTH 240 0
DWIDTH 4 0
BBX 1 12 2 -5
BITMAP
80
80
80
80
80
80
80
00
00
00
80
80
ENDCHAR
STARTCHAR 1D0A
ENCODING 7434
SWIDTH 240 0
DWIDTH 4 0
BBX 5 9 -1 -2
BITMAP
38
10
10
10
10
10
10
30
E0
ENDCHAR
STARTCHAR 1D0B
ENCODING 7435
SWIDTH 420 0
DWIDTH 7 0
BBX 7 8 1 -1
BITMAP
C8
D0
E0
E0
D0
D8
CC
02
ENDCHAR
STARTCHAR 1D0C
ENCODING 7436
SWIDTH 420 0
DWIDTH 7 0
BBX 7 8 0 -1
BITMAP
60
60
70
60
E0
62
66
18
ENDCHAR
STARTCHAR 1D0D
ENCODING 7437
SWIDTH 540 0
DWIDTH 9 0
BBX 9 8 1 -1
BITMAP
8100
C300
C300
A700
AB00
9B00
9300
0080
ENDCHAR
STARTCHAR 1D0E
ENCODING 7438
SWIDTH 480 0
DWIDTH 8 0
BBX 6 7 1 0
BITMAP
84
8C
94
A4
E4
C4
84
ENDCHAR
STARTCHAR 1D0F
ENCODING 7439
SWIDTH 480 0
DWIDTH 8 0
BBX 8 8 0 -1
BITMAP
3C
42
42
C3
42
42
24
18
ENDCHAR
STARTCHAR 1D10
ENCODING 7440
SWIDTH 420 0
DWIDTH 7 0
BBX 7 8 0 -1
BITMAP
78
04
02
02
02
84
48
30
ENDCHAR
STARTCHAR 1D11
ENCODING 7441
SWIDTH 480 0
DWIDTH 8 0
BBX 8 7 0 0
BITMAP
1C
3E
41
81
81
63
3E
ENDCHAR
STARTCHAR 1D12
ENCODING 7442
SWIDTH 480 0
DWIDTH 8 0
BBX 7 5 1 0
BITMAP
7C
C2
82
82
82
ENDCHAR
STARTCHAR 1D13
ENCODING 7443
SWIDTH 480 0
DWIDTH 8 0
BBX 8 7 0 0
BITMAP
1C
7E
61
99
85
63
3E
ENDCHAR
STARTCHAR 1D14
ENCODING 7444
SWIDTH 720 0
DWIDTH 12 0
BBX 11 8 1 -1
BITMAP
F780
1C40
0820
0820
0820
FC40
D680
2100
ENDCHAR
STARTCHAR 1D15
ENCODING 7445
SWIDTH 360 0
DWIDTH 6 0
BBX 6 7 0 -1
BITMAP
48
78
48
CC
C8
48
30
ENDCHAR
STARTCHAR 1D16
ENCODING 7446
SWIDTH 480 0
DWIDTH 8 0
BBX 7 4 1 3
BITMAP
78
C4
86
86
ENDCHAR
STARTCHAR 1D17
ENCODING 7447
SWIDTH 480 0
DWIDTH 8 0
BBX 7 4 1 -1
BITMAP
86
C4
68
10
ENDCHAR
STARTCHAR 1D18
ENCODING 7448
SWIDTH 360 0
DWIDTH 6 0
BBX 5 7 1 0
BITMAP
F8
C8
C8
F8
C0
C0
C0
ENDCHAR
STARTCHAR 1D19
ENCODING 7449
SWIDTH 420 0
DWIDTH 7 0
BBX 6 7 1 0
BITMAP
7C
CC
CC
6C
3C
4C
8C
ENDCHAR
STARTCHAR 1D1A
ENCODING 7450
SWIDTH 420 0
DWIDTH 7 0
BBX 6 8 1 -1
BITMAP
8C
4C
2C
3C
4C
4C
6C
10
ENDCHAR
STARTCHAR 1D1B
ENCODING 7451
SWIDTH 480 0
DWIDTH 8 0
BBX 9 7 0 0
BITMAP
FF80
8880
0800
0800
0800
0800
1C00
ENDCHAR
STARTCHAR 1D1C
ENCODING 7452
SWIDTH 480 0
DWIDTH 8 0
BBX 7 8 1 -1
BITMAP
C6
84
84
84
84
C4
68
10
ENDCHAR
STARTCHAR 1D1D
ENCODING 7453
SWIDTH 480 0
DWIDTH 8 0
BBX 8 6 0 0
BITMAP
FF
7F
02
01
03
7E
ENDCHAR
STARTCHAR 1D1E
ENCODING 7454
SWIDTH 600 0
DWIDTH 10 0
BBX 10 8 0 -1
BITMAP
0040
1FC0
DFC0
1040
0040
C040
1F80
1000
ENDCHAR
STARTCHAR 1D1F
ENCODING 7455
SWIDTH 480 0
DWIDTH 8 0
BBX 7 11 1 -2
BITMAP
FC
FE
02
02
02
FC
04
02
02
FE
FC
ENDCHAR
STARTCHAR 1D20
ENCODING 7456
SWIDTH 420 0
DWIDTH 7 0
BBX 6 7 1 0
BITMAP
84
88
48
50
50
20
20
ENDCHAR
STARTCHAR 1D21
ENCODING 7457
SWIDTH 600 0
DWIDTH 10 0
BBX 10 7 1 0
BITMAP
94C0
9480
4900
4900
2E00
3600
2400
ENDCHAR
STARTCHAR 1D22
ENCODING 7458
SWIDTH 420 0
DWIDTH 7 0
BBX 6 8 1 -1
BITMAP
FC
08
10
20
60
C4
8C
70
ENDCHAR
STARTCHAR 1D23
ENCODING 7459
SWIDTH 300 0
DWIDTH 5 0
BBX 4 8 1 -1
BITMAP
F0
20
40
30
10
10
A0
40
ENDCHAR
STARTCHAR 1D24
ENCODING 7460
SWIDTH 360 0
DWIDTH 6 0
BBX 6 14 0 -3
BITMAP
78
8C
C4
04
0C
18
10
60
40
C0
8C
C4
68
10
ENDCHAR
STARTCHAR 1D25
ENCODING 7461
SWIDTH 600 0
DWIDTH 10 0
BBX 10 8 0 -1
BITMAP
1F00
3F00
3F80
3F80
9F40
4E40
6E80
1100
ENDCHAR
STARTCHAR 1D26
ENCODING 7462
SWIDTH 420 0
DWIDTH 7 0
BBX 6 7 1 0
BITMAP
FC
C4
C0
C0
C0
C0
C0
ENDCHAR
STARTCHAR 1D27
ENCODING 7463
SWIDTH 420 0
DWIDTH 7 0
BBX 6 6 1 0
BITMAP
30
50
48
48
88
8C
ENDCHAR
STARTCHAR 1D28
ENCODING 7464
SWIDTH 480 0
DWIDTH 8 0
BBX 7 7 1 0
BITMAP
FE
C4
C4
C4
C4
C4
C6
ENDCHAR
STARTCHAR 1D29
ENCODING 7465
SWIDTH 360 0
DWIDTH 6 0
BBX 5 7 1 0
BITMAP
F8
C8
C8
F8
C0
C0
C0
ENDCHAR
STARTCHAR 1D2A
ENCODING 7466
SWIDTH 420 0
DWIDTH 7 0
BBX 7 7 0 0
BITMAP
1A
92
92
52
34
18
18
ENDCHAR
STARTCHAR 1D2B
ENCODING 7467
SWIDTH 420 0
DWIDTH 7 0
BBX 7 8 0 -1
BITMAP
7C
64
64
64
64
64
4C
82
ENDCHAR
STARTCHAR 1D2C
ENCODING 7468
SWIDTH 360 0
DWIDTH 6 0
BBX 7 7 0 4
BITMAP
10
30
28
48
78
44
CE
ENDCHAR
STARTCHAR 1D2D
ENCODING 7469
SWIDTH 480 0
DWIDTH 8 0
BBX 9 7 -1 4
BITMAP
0F80
1480
1500
1F00
2500
4400
EF80
ENDCHAR
STARTCHAR 1D2E
ENCODING 7470
SWIDTH 360 0
DWIDTH 6 0
BBX 6 7 0 4
BITMAP
78
48
48
78
44
44
F8
ENDCHAR
STARTCHAR 1D2F
ENCODING 7471
SWIDTH 360 0
DWIDTH 6 0
BBX 6 7 0 4
BITMAP
78
48
48
78
44
44
F8
ENDCHAR
STARTCHAR 1D30
ENCODING 7472
SWIDTH 420 0
DWIDTH 7 0
BBX 7 7 0 4
BITMAP
7C
42
42
42
42
44
F8
ENDCHAR
STARTCHAR 1D31
ENCODING 7473
SWIDTH 360 0
DWIDTH 6 0
BBX 6 7 0 4
BITMAP
78
40
40
70
40
44
FC
ENDCHAR
STARTCHAR 1D32
ENCODING 7474
SWIDTH 360 0
DWIDTH 6 0
BBX 6 7 0 4
BITMAP
F8
88
08
18
08
08
7C
ENDCHAR
STARTCHAR 1D33
ENCODING 7475
SWIDTH 420 0
DWIDTH 7 0
BBX 7 7 0 4
BITMAP
3C
40
80
80
46
44
3C
ENDCHAR
STARTCHAR 1D34
ENCODING 7476
SWIDTH 480 0
DWIDTH 8 0
BBX 8 7 0 4
BITMAP
42
42
42
7E
42
42
E7
ENDCHAR
STARTCHAR 1D35
ENCODING 7477
SWIDTH 180 0
DWIDTH 3 0
BBX 3 7 0 4
BITMAP
40
40
40
40
40
40
E0
ENDCHAR
STARTCHAR 1D36
ENCODING 7478
SWIDTH 180 0
DWIDTH 3 0
BBX 3 9 0 2
BITMAP
60
40
40
40
40
40
40
40
80
ENDCHAR
STARTCHAR 1D37
ENCODING 7479
SWIDTH 360 0
DWIDTH 6 0
BBX 7 7 0 4
BITMAP
48
50
60
70
50
48
EE
ENDCHAR
STARTCHAR 1D38
ENCODING 7480
SWIDTH 360 0
DWIDTH 6 0
BBX 6 7 0 4
BITMAP
40
40
40
40
40
40
FC
ENDCHAR
STARTCHAR 1D39
ENCODING 7481
SWIDTH 540 0
DWIDTH 9 0
BBX 9 7 0 4
BITMAP
4100
6100
6700
5500
5500
4900
CB80
ENDCHAR
STARTCHAR 1D3A
ENCODING 7482
SWIDTH 420 0
DWIDTH 7 0
BBX 6 7 0 4
BITMAP
40
64
54
4C
4C
44
E0
ENDCHAR
STARTCHAR 1D3B
ENCODING 7483
SWIDTH 420 0
DWIDTH 7 0
BBX 7 7 0 4
BITMAP
04
8C
8C
94
A4
44
06
ENDCHAR
STARTCHAR 1D3C
ENCODING 7484
SWIDTH 420 0
DWIDTH 7 0
BBX 7 7 0 4
BITMAP
7C
44
82
82
42
44
38
ENDCHAR
STARTCHAR 1D3D
ENCODING 7485
SWIDTH 300 0
DWIDTH 5 0
BBX 5 7 0 4
BITMAP
08
50
68
88
88
48
30
ENDCHAR
STARTCHAR 1D3E
ENCODING 7486
SWIDTH 300 0
DWIDTH 5 0
BBX 6 7 0 4
BITMAP
78
44
48
70
40
40
E0
ENDCHAR
STARTCHAR 1D3F
ENCODING 7487
SWIDTH 420 0
DWIDTH 7 0
BBX 7 7 0 4
BITMAP
78
44
44
78
48
4C
E2
ENDCHAR
STARTCHAR 1D40
ENCODING 7488
SWIDTH 420 0
DWIDTH 7 0
BBX 8 7 0 4
BITMAP
FF
91
10
10
10
10
18
ENDCHAR
STARTCHAR 1D41
ENCODING 7489
SWIDTH 420 0
DWIDTH 7 0
BBX 6 7 1 4
BITMAP
84
88
88
88
88
88
70
ENDCHAR
STARTCHAR 1D42
ENCODING 7490
SWIDTH 540 0
DWIDTH 9 0
BBX 9 7 1 4
BITMAP
A180
9900
5A00
4A00
5C00
2400
2400
ENDCHAR
STARTCHAR 1D43
ENCODING 7491
SWIDTH 180 0
DWIDTH 3 0
BBX 4 5 0 4
BITMAP
60
A0
20
E0
50
ENDCHAR
STARTCHAR 1D44
ENCODING 7492
SWIDTH 180 0
DWIDTH 3 0
BBX 4 5 0 4
BITMAP
A0
50
60
50
60
ENDCHAR
STARTCHAR 1D45
ENCODING 7493
SWIDTH 300 0
DWIDTH 5 0
BBX 5 5 0 4
BITMAP
20
D0
90
90
68
ENDCHAR
STARTCHAR 1D46
ENCODING 7494
SWIDTH 300 0
DWIDTH 5 0
BBX 5 5 1 4
BITMAP
D0
70
60
C8
B0
ENDCHAR
STARTCHAR 1D47
ENCODING 7495
SWIDTH 240 0
DWIDTH 4 0
BBX 4 8 1 4
BITMAP
80
80
80
C0
A0
90
A0
60
ENDCHAR
STARTCHAR 1D48
ENCODING 7496
SWIDTH 300 0
DWIDTH 5 0
BBX 5 7 0 4
BITMAP
10
10
30
D0
90
90
78
ENDCHAR
STARTCHAR 1D49
ENCODING 7497
SWIDTH 240 0
DWIDTH 4 0
BBX 4 5 0 4
BITMAP
20
D0
E0
80
60
ENDCHAR
STARTCHAR 1D4A
ENCODING 7498
SWIDTH 240 0
DWIDTH 4 0
BBX 4 5 0 4
BITMAP
60
10
10
F0
60
ENDCHAR
STARTCHAR 1D4B
ENCODING 7499
SWIDTH 180 0
DWIDTH 3 0
BBX 3 5 0 4
BITMAP
60
80
40
80
60
ENDCHAR
STARTCHAR 1D4C
ENCODING 7500
SWIDTH 180 0
DWIDTH 3 0
BBX 2 5 1 4
BITMAP
C0
40
40
40
C0
ENDCHAR
STARTCHAR 1D4D
ENCODING 7501
SWIDTH 240 0
DWIDTH 4 0
BBX 5 8 0 1
BITMAP
60
90
90
E0
70
88
90
60
ENDCHAR
STARTCHAR 1D4E
ENCODING 7502
SWIDTH 120 0
DWIDTH 2 0
BBX 2 7 0 2
BITMAP
C0
40
40
40
00
00
40
ENDCHAR
STARTCHAR 1D4F
ENCODING 7503
SWIDTH 300 0
DWIDTH 5 0
BBX 5 8 0 4
BITMAP
40
40
40
58
60
60
50
D8
ENDCHAR
STARTCHAR 1D50
ENCODING 7504
SWIDTH 480 0
DWIDTH 8 0
BBX 8 5 0 4
BITMAP
76
4A
52
52
DB
ENDCHAR
STARTCHAR 1D51
ENCODING 7505
SWIDTH 300 0
DWIDTH 5 0
BBX 4 8 0 1
BITMAP
70
50
50
50
D0
10
00
10
ENDCHAR
STARTCHAR 1D52
ENCODING 7506
SWIDTH 240 0
DWIDTH 4 0
BBX 5 5 0 4
BITMAP
20
D0
88
90
70
ENDCHAR
STARTCHAR 1D53
ENCODING 7507
SWIDTH 240 0
DWIDTH 4 0
BBX 3 5 1 4
BITMAP
C0
20
20
20
C0
ENDCHAR
STARTCHAR 1D54
ENCODING 7508
SWIDTH 240 0
DWIDTH 4 0
BBX 5 3 0 6
BITMAP
20
D0
88
ENDCHAR
STARTCHAR 1D55
ENCODING 7509
SWIDTH 240 0
DWIDTH 4 0
BBX 3 1 1 4
BITMAP
E0
ENDCHAR
STARTCHAR 1D56
ENCODING 7510
SWIDTH 240 0
DWIDTH 4 0
BBX 3 7 1 2
BITMAP
E0
A0
A0
A0
E0
80
80
ENDCHAR
STARTCHAR 1D57
ENCODING 7511
SWIDTH 180 0
DWIDTH 3 0
BBX 2 5 1 4
BITMAP
C0
80
80
80
C0
ENDCHAR
STARTCHAR 1D58
ENCODING 7512
SWIDTH 300 0
DWIDTH 5 0
BBX 5 5 0 4
BITMAP
D0
50
50
50
28
ENDCHAR
STARTCHAR 1D59
ENCODING 7513
SWIDTH 240 0
DWIDTH 4 0
BBX 5 4 0 4
BITMAP
F8
90
08
F0
ENDCHAR
STARTCHAR 1D5A
ENCODING 7514
SWIDTH 480 0
DWIDTH 8 0
BBX 8 5 0 4
BITMAP
DB
52
52
52
2E
ENDCHAR
STARTCHAR 1D5B
ENCODING 7515
SWIDTH 240 0
DWIDTH 4 0
BBX 4 4 0 5
BITMAP
D0
60
60
20
ENDCHAR
STARTCHAR 1D5C
ENCODING 7516
SWIDTH 360 0
DWIDTH 6 0
BBX 6 5 0 3
BITMAP
78
78
BC
94
68
ENDCHAR
STARTCHAR 1D5D
ENCODING 7517
SWIDTH 240 0
DWIDTH 4 0
BBX 4 9 0 2
BITMAP
70
90
A0
90
90
90
E0
80
40
ENDCHAR
STARTCHAR 1D5E
ENCODING 7518
SWIDTH 180 0
DWIDTH 3 0
BBX 4 6 0 3
BITMAP
D0
60
60
20
40
40
ENDCHAR
STARTCHAR 1D5F
ENCODING 7519
SWIDTH 240 0
DWIDTH 4 0
BBX 4 6 0 4
BITMAP
40
40
B0
90
90
60
ENDCHAR
STARTCHAR 1D60
ENCODING 7520
SWIDTH 420 0
DWIDTH 7 0
BBX 7 6 0 3
BITMAP
24
DA
92
92
6C
10
ENDCHAR
STARTCHAR 1D61
ENCODING 7521
SWIDTH 300 0
DWIDTH 5 0
BBX 5 7 0 2
BITMAP
48
D0
30
20
20
60
58
ENDCHAR
STARTCHAR 1D62
ENCODING 7522
SWIDTH 120 0
DWIDTH 2 0
BBX 1 7 1 -2
BITMAP
80
00
00
80
80
80
80
ENDCHAR
STARTCHAR 1D63
ENCODING 7523
SWIDTH 180 0
DWIDTH 3 0
BBX 1 4 1 -2
BITMAP
80
80
80
80
ENDCHAR
STARTCHAR 1D64
ENCODING 7524
SWIDTH 300 0
DWIDTH 5 0
BBX 4 5 1 -3
BITMAP
80
A0
A0
B0
40
ENDCHAR
STARTCHAR 1D65
ENCODING 7525
SWIDTH 240 0
DWIDTH 4 0
BBX 3 4 1 -2
BITMAP
A0
C0
C0
40
ENDCHAR
STARTCHAR 1D66
ENCODING 7526
SWIDTH 240 0
DWIDTH 4 0
BBX 4 9 0 -4
BITMAP
20
D0
90
B0
90
90
90
E0
C0
ENDCHAR
STARTCHAR 1D67
ENCODING 7527
SWIDTH 180 0
DWIDTH 3 0
BBX 2 5 1 -3
BITMAP
80
C0
40
80
80
ENDCHAR
STARTCHAR 1D68
ENCODING 7528
SWIDTH 240 0
DWIDTH 4 0
BBX 4 7 0 -5
BITMAP
F0
90
90
90
E0
80
80
ENDCHAR
STARTCHAR 1D69
ENCODING 7529
SWIDTH 420 0
DWIDTH 7 0
BBX 7 6 0 -4
BITMAP
5E
92
92
72
1C
10
ENDCHAR
STARTCHAR 1D6A
ENCODING 7530
SWIDTH 300 0
DWIDTH 5 0
BBX 4 6 0 -4
BITMAP
C0
30
20
20
60
50
ENDCHAR
STARTCHAR 1D6B
ENCODING 7531
SWIDTH 720 0
DWIDTH 12 0
BBX 10 7 1 0
BITMAP
CFC0
C440
C780
C400
C400
4600
7BC0
ENDCHAR
STARTCHAR 1E00
ENCODING 7680
SWIDTH 660 0
DWIDTH 11 0
BBX 11 15 0 -4
BITMAP
0600
0A00
0A00
0B00
1100
1100
1F80
2080
2080
40C0
F1E0
0000
0F00
0900
0600
ENDCHAR
STARTCHAR 1E01
ENCODING 7681
SWIDTH 360 0
DWIDTH 6 0
BBX 6 11 1 -4
BITMAP
F0
90
10
30
D0
90
FC
00
F0
90
60
ENDCHAR
STARTCHAR 1E02
ENCODING 7682
SWIDTH 600 0
DWIDTH 10 0
BBX 8 15 1 -1
BITMAP
18
00
00
7E
62
63
62
66
7E
63
61
61
63
F6
08
ENDCHAR
STARTCHAR 1E03
ENCODING 7683
SWIDTH 480 0
DWIDTH 8 0
BBX 7 13 1 -1
BITMAP
C0
C0
D8
C0
C0
F8
C4
C6
C6
C6
C4
E8
10
ENDCHAR
STARTCHAR 1E04
ENCODING 7684
SWIDTH 600 0
DWIDTH 10 0
BBX 8 14 1 -3
BITMAP
7E
62
63
62
66
7E
63
61
61
63
F6
08
10
10
ENDCHAR
STARTCHAR 1E05
ENCODING 7685
SWIDTH 480 0
DWIDTH 8 0
BBX 7 15 1 -3
BITMAP
C0
C0
C0
C0
C0
F8
C4
C6
C6
C6
C4
E8
10
10
10
ENDCHAR
STARTCHAR 1E06
ENCODING 7686
SWIDTH 600 0
DWIDTH 10 0
BBX 8 14 1 -3
BITMAP
7E
62
63
62
66
7E
63
61
61
63
F6
08
00
3E
ENDCHAR
STARTCHAR 1E07
ENCODING 7687
SWIDTH 480 0
DWIDTH 8 0
BBX 7 15 1 -3
BITMAP
C0
C0
C0
C0
C0
F8
C4
C6
C6
C6
C4
E8
10
00
F8
ENDCHAR
STARTCHAR 1E08
ENCODING 7688
SWIDTH 660 0
DWIDTH 11 0
BBX 10 20 1 -4
BITMAP
0100
0300
0400
0000
0000
3F80
6080
C000
C000
8000
8000
8000
C000
C040
6040
1980
0600
0C00
0400
0C00
ENDCHAR
STARTCHAR 1E09
ENCODING 7689
SWIDTH 360 0
DWIDTH 6 0
BBX 5 16 1 -4
BITMAP
10
10
20
20
00
78
C0
80
80
80
C0
78
20
60
20
60
ENDCHAR
STARTCHAR 1E0A
ENCODING 7690
SWIDTH 720 0
DWIDTH 12 0
BBX 11 15 1 -1
BITMAP
0C00
0000
0000
7F00
60C0
6040
6060
6060
6060
6060
6040
60C0
6080
F700
0800
ENDCHAR
STARTCHAR 1E0B
ENCODING 7691
SWIDTH 480 0
DWIDTH 8 0
BBX 7 12 1 0
BITMAP
0C
04
64
04
04
7C
84
84
84
84
C4
7E
ENDCHAR
STARTCHAR 1E0C
ENCODING 7692
SWIDTH 720 0
DWIDTH 12 0
BBX 11 14 1 -3
BITMAP
7F00
60C0
6040
6060
6060
6060
6060
6040
60C0
6080
F700
0800
0800
0800
ENDCHAR
STARTCHAR 1E0D
ENCODING 7693
SWIDTH 480 0
DWIDTH 8 0
BBX 7 15 1 -3
BITMAP
0C
04
04
04
04
7C
84
84
84
84
C4
7E
00
10
10
ENDCHAR
STARTCHAR 1E0E
ENCODING 7694
SWIDTH 720 0
DWIDTH 12 0
BBX 11 14 1 -3
BITMAP
7F00
60C0
6040
6060
6060
6060
6060
6040
60C0
6080
F700
0800
0000
3E00
ENDCHAR
STARTCHAR 1E0F
ENCODING 7695
SWIDTH 480 0
DWIDTH 8 0
BBX 7 15 1 -3
BITMAP
0C
04
04
04
04
7C
84
84
84
84
C4
7E
00
00
7C
ENDCHAR
STARTCHAR 1E10
ENCODING 7696
SWIDTH 720 0
DWIDTH 12 0
BBX 11 15 1 -4
BITMAP
7F00
60C0
6040
6060
6060
6060
6060
6040
60C0
6080
F700
0800
1800
0800
1800
ENDCHAR
STARTCHAR 1E11
ENCODING 7697
SWIDTH 480 0
DWIDTH 8 0
BBX 7 16 1 -4
BITMAP
0C
04
04
04
04
7C
84
84
84
84
C4
7E
20
60
20
60
ENDCHAR
STARTCHAR 1E12
ENCODING 7698
SWIDTH 720 0
DWIDTH 12 0
BBX 11 14 1 -3
BITMAP
7F00
60C0
6040
6060
6060
6060
6060
6040
60C0
6080
F700
0C00
0C00
1200
ENDCHAR
STARTCHAR 1E13
ENCODING 7699
SWIDTH 480 0
DWIDTH 8 0
BBX 7 15 1 -3
BITMAP
0C
04
04
04
04
7C
84
84
84
84
C4
7E
10
30
48
ENDCHAR
STARTCHAR 1E14
ENCODING 7700
SWIDTH 600 0
DWIDTH 10 0
BBX 9 18 1 0
BITMAP
4000
2000
1800
0000
7E00
0000
0000
7F00
6100
6100
6000
6400
7C00
6400
6000
6080
6080
FF80
ENDCHAR
STARTCHAR 1E15
ENCODING 7701
SWIDTH 360 0
DWIDTH 6 0
BBX 5 14 1 0
BITMAP
40
40
20
00
F8
00
00
78
88
F0
80
80
C0
78
ENDCHAR
STARTCHAR 1E16
ENCODING 7702
SWIDTH 600 0
DWIDTH 10 0
BBX 9 18 1 0
BITMAP
0200
0600
0800
0000
7E00
0000
0000
7F00
6100
6100
6000
6400
7C00
6400
6000
6080
6080
FF80
ENDCHAR
STARTCHAR 1E17
ENCODING 7703
SWIDTH 360 0
DWIDTH 6 0
BBX 5 14 1 0
BITMAP
10
10
20
20
F8
00
00
78
88
F0
80
80
C0
78
ENDCHAR
STARTCHAR 1E18
ENCODING 7704
SWIDTH 600 0
DWIDTH 10 0
BBX 9 14 1 -3
BITMAP
7F00
6100
6100
6000
6400
7C00
6400
6000
6080
6080
FF80
0800
1800
2400
ENDCHAR
STARTCHAR 1E19
ENCODING 7705
SWIDTH 360 0
DWIDTH 6 0
BBX 5 10 1 -3
BITMAP
78
88
F0
80
80
C0
78
20
60
90
ENDCHAR
STARTCHAR 1E1A
ENCODING 7706
SWIDTH 600 0
DWIDTH 10 0
BBX 9 14 1 -3
BITMAP
7F00
6100
6100
6000
6400
7C00
6400
6000
6080
6080
FF80
0000
0000
7C00
ENDCHAR
STARTCHAR 1E1B
ENCODING 7707
SWIDTH 360 0
DWIDTH 6 0
BBX 5 10 1 -3
BITMAP
78
88
F0
80
80
C0
78
00
00
F8
ENDCHAR
STARTCHAR 1E1C
ENCODING 7708
SWIDTH 600 0
DWIDTH 10 0
BBX 9 19 1 -4
BITMAP
0400
2400
1800
0000
7F00
6100
6100
6000
6400
7C00
6400
6000
6080
6080
FF80
1000
3000
1000
3000
ENDCHAR
STARTCHAR 1E1D
ENCODING 7709
SWIDTH 360 0
DWIDTH 6 0
BBX 5 15 1 -4
BITMAP
08
48
30
00
78
88
F0
80
80
C0
78
20
60
20
60
ENDCHAR
STARTCHAR 1E1E
ENCODING 7710
SWIDTH 540 0
DWIDTH 9 0
BBX 8 14 1 0
BITMAP
18
00
00
7F
61
60
64
64
7C
64
64
60
60
F0
ENDCHAR
STARTCHAR 1E1F
ENCODING 7711
SWIDTH 240 0
DWIDTH 4 0
BBX 6 15 1 0
BITMAP
18
00
00
3C
40
40
40
40
F0
40
40
40
40
40
C0
ENDCHAR
STARTCHAR 1E20
ENCODING 7712
SWIDTH 660 0
DWIDTH 11 0
BBX 10 15 1 -1
BITMAP
3F00
0000
0000
3F80
6080
4000
C000
8000
8000
83C0
C080
4080
6080
19C0
0600
ENDCHAR
STARTCHAR 1E21
ENCODING 7713
SWIDTH 420 0
DWIDTH 7 0
BBX 8 15 0 -5
BITMAP
7C
00
00
3F
46
44
44
38
40
7C
27
41
C1
62
3C
ENDCHAR
STARTCHAR 1E22
ENCODING 7714
SWIDTH 780 0
DWIDTH 13 0
BBX 12 14 1 0
BITMAP
0600
0000
0000
60E0
6040
6040
6040
6040
7FC0
6040
6040
6040
6040
F0F0
ENDCHAR
STARTCHAR 1E23
ENCODING 7715
SWIDTH 540 0
DWIDTH 9 0
BBX 7 15 1 0
BITMAP
18
00
00
C0
40
40
40
40
7C
44
46
46
46
46
C6
ENDCHAR
STARTCHAR 1E24
ENCODING 7716
SWIDTH 780 0
DWIDTH 13 0
BBX 12 14 1 -3
BITMAP
60E0
6040
6040
6040
6040
7FC0
6040
6040
6040
6040
F0F0
0000
0400
0400
ENDCHAR
STARTCHAR 1E25
ENCODING 7717
SWIDTH 540 0
DWIDTH 9 0
BBX 7 15 1 -3
BITMAP
C0
40
40
40
40
7C
44
46
46
46
46
C6
00
10
10
ENDCHAR
STARTCHAR 1E26
ENCODING 7718
SWIDTH 780 0
DWIDTH 13 0
BBX 12 15 1 0
BITMAP
1100
1B00
0000
0000
60E0
6040
6040
6040
6040
7FC0
6040
6040
6040
6040
F0F0
ENDCHAR
STARTCHAR 1E27
ENCODING 7719
SWIDTH 540 0
DWIDTH 9 0
BBX 7 15 1 0
BITMAP
6C
00
00
C0
40
40
40
40
7C
44
46
46
46
46
C6
ENDCHAR
STARTCHAR 1E28
ENCODING 7720
SWIDTH 780 0
DWIDTH 13 0
BBX 12 15 1 -4
BITMAP
60E0
6040
6040
6040
6040
7FC0
6040
6040
6040
6040
F0F0
1000
3000
1000
3000
ENDCHAR
STARTCHAR 1E29
ENCODING 7721
SWIDTH 540 0
DWIDTH 9 0
BBX 7 16 1 -4
BITMAP
C0
40
40
40
40
7C
44
46
46
46
46
C6
20
60
20
60
ENDCHAR
STARTCHAR 1E2A
ENCODING 7722
SWIDTH 780 0
DWIDTH 13 0
BBX 12 15 1 -4
BITMAP
60E0
6040
6040
6040
6040
7FC0
6040
6040
6040
6040
F0F0
0000
0100
0900
0600
ENDCHAR
STARTCHAR 1E2B
ENCODING 7723
SWIDTH 540 0
DWIDTH 9 0
BBX 7 16 1 -4
BITMAP
C0
40
40
40
40
7C
44
46
46
46
46
C6
00
04
24
18
ENDCHAR
STARTCHAR 1E2C
ENCODING 7724
SWIDTH 300 0
DWIDTH 5 0
BBX 5 14 1 -3
BITMAP
60
60
60
60
60
60
60
60
60
60
F0
00
00
F8
ENDCHAR
STARTCHAR 1E2D
ENCODING 7725
SWIDTH 240 0
DWIDTH 4 0
BBX 5 13 0 -3
BITMAP
60
00
00
60
20
20
20
20
20
60
10
00
F8
ENDCHAR
STARTCHAR 1E2E
ENCODING 7726
SWIDTH 300 0
DWIDTH 5 0
BBX 5 18 1 0
BITMAP
08
18
20
00
D8
00
00
60
60
60
60
60
60
60
60
60
60
F0
ENDCHAR
STARTCHAR 1E2F
ENCODING 7727
SWIDTH 240 0
DWIDTH 4 0
BBX 5 15 0 -1
BITMAP
10
10
20
20
D8
00
00
20
20
20
20
20
20
60
10
ENDCHAR
STARTCHAR 1E30
ENCODING 7728
SWIDTH 660 0
DWIDTH 11 0
BBX 10 16 1 0
BITMAP
0200
0600
0800
0000
0000
6300
6200
6400
6800
7000
7800
6C00
6400
6200
6300
F3C0
ENDCHAR
STARTCHAR 1E31
ENCODING 7729
SWIDTH 480 0
DWIDTH 8 0
BBX 7 17 1 0
BITMAP
10
30
40
00
00
C0
40
40
40
40
44
48
50
70
58
4C
C6
ENDCHAR
STARTCHAR 1E32
ENCODING 7730
SWIDTH 660 0
DWIDTH 11 0
BBX 10 14 1 -3
BITMAP
6300
6200
6400
6800
7000
7800
6C00
6400
6200
6300
F3C0
0000
0800
0800
ENDCHAR
STARTCHAR 1E33
ENCODING 7731
SWIDTH 480 0
DWIDTH 8 0
BBX 7 15 1 -3
BITMAP
C0
40
40
40
40
44
48
50
70
58
4C
C6
00
10
10
ENDCHAR
STARTCHAR 1E34
ENCODING 7732
SWIDTH 660 0
DWIDTH 11 0
BBX 10 14 1 -3
BITMAP
6300
6200
6400
6800
7000
7800
6C00
6400
6200
6300
F3C0
0000
0000
3E00
ENDCHAR
STARTCHAR 1E35
ENCODING 7733
SWIDTH 480 0
DWIDTH 8 0
BBX 7 15 1 -3
BITMAP
C0
40
40
40
40
44
48
50
70
58
4C
C6
00
00
7C
ENDCHAR
STARTCHAR 1E36
ENCODING 7734
SWIDTH 660 0
DWIDTH 11 0
BBX 10 14 1 -3
BITMAP
6000
6000
6000
6000
6000
6000
6000
6000
6040
60C0
FFC0
0000
0800
0800
ENDCHAR
STARTCHAR 1E37
ENCODING 7735
SWIDTH 240 0
DWIDTH 4 0
BBX 2 15 1 -3
BITMAP
C0
40
40
40
40
40
40
40
40
40
40
C0
00
40
40
ENDCHAR
STARTCHAR 1E38
ENCODING 7736
SWIDTH 660 0
DWIDTH 11 0
BBX 11 17 0 -3
BITMAP
F800
0000
0000
3000
3000
3000
3000
3000
3000
3000
3000
3020
3060
7FE0
0000
0000
0600
ENDCHAR
STARTCHAR 1E39
ENCODING 7737
SWIDTH 240 0
DWIDTH 4 0
BBX 5 18 0 -3
BITMAP
F8
00
00
60
20
20
20
20
20
20
20
20
20
20
60
00
00
60
ENDCHAR
STARTCHAR 1E3A
ENCODING 7738
SWIDTH 660 0
DWIDTH 11 0
BBX 10 14 1 -3
BITMAP
6000
6000
6000
6000
6000
6000
6000
6000
6040
60C0
FFC0
0000
0000
3E00
ENDCHAR
STARTCHAR 1E3B
ENCODING 7739
SWIDTH 240 0
DWIDTH 4 0
BBX 5 15 0 -3
BITMAP
60
20
20
20
20
20
20
20
20
20
20
60
00
00
F8
ENDCHAR
STARTCHAR 1E3C
ENCODING 7740
SWIDTH 660 0
DWIDTH 11 0
BBX 10 14 1 -3
BITMAP
6000
6000
6000
6000
6000
6000
6000
6000
6040
60C0
FFC0
0400
0C00
1200
ENDCHAR
STARTCHAR 1E3D
ENCODING 7741
SWIDTH 240 0
DWIDTH 4 0
BBX 4 15 0 -3
BITMAP
60
20
20
20
20
20
20
20
20
20
20
60
20
60
90
ENDCHAR
STARTCHAR 1E3E
ENCODING 7742
SWIDTH 900 0
DWIDTH 15 0
BBX 14 16 1 0
BITMAP
0080
0180
0200
0000
0000
6018
6030
7030
5050
5850
4890
4890
4510
4510
4610
E23C
ENDCHAR
STARTCHAR 1E3F
ENCODING 7743
SWIDTH 780 0
DWIDTH 13 0
BBX 12 13 1 -1
BITMAP
0100
0100
0200
0200
0000
7DC0
4620
4420
4420
4420
4420
C660
0010
ENDCHAR
STARTCHAR 1E40
ENCODING 7744
SWIDTH 900 0
DWIDTH 15 0
BBX 14 14 1 0
BITMAP
0300
0000
0000
6018
6030
7030
5050
5850
4890
4890
4510
4510
4610
E23C
ENDCHAR
STARTCHAR 1E41
ENCODING 7745
SWIDTH 780 0
DWIDTH 13 0
BBX 12 11 1 -1
BITMAP
0600
0000
0000
7DC0
4620
4420
4420
4420
4420
C660
0010
ENDCHAR
STARTCHAR 1E42
ENCODING 7746
SWIDTH 900 0
DWIDTH 15 0
BBX 14 14 1 -3
BITMAP
6018
6030
7030
5050
5850
4890
4890
4510
4510
4610
E23C
0000
0200
0200
ENDCHAR
STARTCHAR 1E43
ENCODING 7747
SWIDTH 780 0
DWIDTH 13 0
BBX 12 10 1 -3
BITMAP
7DC0
4620
4420
4420
4420
4420
C660
0010
0400
0400
ENDCHAR
STARTCHAR 1E44
ENCODING 7748
SWIDTH 720 0
DWIDTH 12 0
BBX 10 14 1 0
BITMAP
0C00
0000
0000
E040
6040
5040
5840
4C40
4640
4240
4340
41C0
40C0
E040
ENDCHAR
STARTCHAR 1E45
ENCODING 7749
SWIDTH 480 0
DWIDTH 8 0
BBX 7 10 1 0
BITMAP
30
00
00
7C
44
44
44
44
44
C6
ENDCHAR
STARTCHAR 1E46
ENCODING 7750
SWIDTH 720 0
DWIDTH 12 0
BBX 10 14 1 -3
BITMAP
E040
6040
5040
5840
4C40
4640
4240
4340
41C0
40C0
E040
0000
0400
0400
ENDCHAR
STARTCHAR 1E47
ENCODING 7751
SWIDTH 480 0
DWIDTH 8 0
BBX 7 10 1 -3
BITMAP
7C
44
44
44
44
44
C6
00
10
10
ENDCHAR
STARTCHAR 1E48
ENCODING 7752
SWIDTH 720 0
DWIDTH 12 0
BBX 10 14 1 -3
BITMAP
E040
6040
5040
5840
4C40
4640
4240
4340
41C0
40C0
E040
0000
0000
1F00
ENDCHAR
STARTCHAR 1E49
ENCODING 7753
SWIDTH 480 0
DWIDTH 8 0
BBX 7 10 1 -3
BITMAP
7C
44
44
44
44
44
C6
00
00
7C
ENDCHAR
STARTCHAR 1E4A
ENCODING 7754
SWIDTH 720 0
DWIDTH 12 0
BBX 10 14 1 -3
BITMAP
E040
6040
5040
5840
4C40
4640
4240
4340
41C0
40C0
E040
0200
0600
0900
ENDCHAR
STARTCHAR 1E4B
ENCODING 7755
SWIDTH 480 0
DWIDTH 8 0
BBX 7 10 1 -3
BITMAP
7C
44
44
44
44
44
C6
10
30
48
ENDCHAR
STARTCHAR 1E4C
ENCODING 7756
SWIDTH 720 0
DWIDTH 12 0
BBX 10 19 1 -1
BITMAP
0100
0300
0400
0000
1F00
0000
0000
3F00
4080
C0C0
C040
8040
8040
8040
C040
C0C0
6080
3B00
0400
ENDCHAR
STARTCHAR 1E4D
ENCODING 7757
SWIDTH 480 0
DWIDTH 8 0
BBX 7 15 1 -1
BITMAP
08
08
10
10
7C
00
00
78
84
86
86
86
C4
68
10
ENDCHAR
STARTCHAR 1E4E
ENCODING 7758
SWIDTH 720 0
DWIDTH 12 0
BBX 10 18 1 -1
BITMAP
1100
1B00
0000
1F00
0000
0000
3F00
4080
C0C0
C040
8040
8040
8040
C040
C0C0
6080
3B00
0400
ENDCHAR
STARTCHAR 1E4F
ENCODING 7759
SWIDTH 480 0
DWIDTH 8 0
BBX 7 13 1 -1
BITMAP
6C
00
7C
00
00
78
84
86
86
86
C4
68
10
ENDCHAR
STARTCHAR 1E50
ENCODING 7760
SWIDTH 720 0
DWIDTH 12 0
BBX 10 19 1 -1
BITMAP
2000
1000
0C00
0000
3F00
0000
0000
3F00
4080
C0C0
C040
8040
8040
8040
C040
C0C0
6080
3B00
0400
ENDCHAR
STARTCHAR 1E51
ENCODING 7761
SWIDTH 480 0
DWIDTH 8 0
BBX 7 15 1 -1
BITMAP
20
20
10
00
7C
00
00
78
84
86
86
86
C4
68
10
ENDCHAR
STARTCHAR 1E52
ENCODING 7762
SWIDTH 720 0
DWIDTH 12 0
BBX 10 19 1 -1
BITMAP
0100
0300
0400
0000
3F00
0000
0000
3F00
4080
C0C0
C040
8040
8040
8040
C040
C0C0
6080
3B00
0400
ENDCHAR
STARTCHAR 1E53
ENCODING 7763
SWIDTH 480 0
DWIDTH 8 0
BBX 7 15 1 -1
BITMAP
08
08
10
10
7C
00
00
78
84
86
86
86
C4
68
10
ENDCHAR
STARTCHAR 1E54
ENCODING 7764
SWIDTH 540 0
DWIDTH 9 0
BBX 8 16 1 0
BITMAP
04
0C
10
00
00
7E
63
61
61
63
6E
70
60
60
60
F0
ENDCHAR
STARTCHAR 1E55
ENCODING 7765
SWIDTH 480 0
DWIDTH 8 0
BBX 8 17 0 -5
BITMAP
04
04
08
08
00
7C
62
63
63
63
62
66
78
60
60
60
F0
ENDCHAR
STARTCHAR 1E56
ENCODING 7766
SWIDTH 540 0
DWIDTH 9 0
BBX 8 14 1 0
BITMAP
18
00
00
7E
63
61
61
63
6E
70
60
60
60
F0
ENDCHAR
STARTCHAR 1E57
ENCODING 7767
SWIDTH 480 0
DWIDTH 8 0
BBX 8 15 0 -5
BITMAP
0C
00
00
7C
62
63
63
63
62
66
78
60
60
60
F0
ENDCHAR
STARTCHAR 1E58
ENCODING 7768
SWIDTH 660 0
DWIDTH 11 0
BBX 10 14 1 0
BITMAP
1800
0000
0000
7E00
6100
6100
6100
6100
6E00
7400
6600
6300
6180
F0C0
ENDCHAR
STARTCHAR 1E59
ENCODING 7769
SWIDTH 300 0
DWIDTH 5 0
BBX 5 10 1 0
BITMAP
60
00
00
F8
C0
C0
C0
C0
C0
C0
ENDCHAR
STARTCHAR 1E5A
ENCODING 7770
SWIDTH 660 0
DWIDTH 11 0
BBX 10 14 1 -3
BITMAP
7E00
6100
6100
6100
6100
6E00
7400
6600
6300
6180
F0C0
0000
0800
0800
ENDCHAR
STARTCHAR 1E5B
ENCODING 7771
SWIDTH 300 0
DWIDTH 5 0
BBX 5 10 1 -3
BITMAP
F8
C0
C0
C0
C0
C0
C0
00
40
40
ENDCHAR
STARTCHAR 1E5C
ENCODING 7772
SWIDTH 660 0
DWIDTH 11 0
BBX 10 17 1 -3
BITMAP
7E00
0000
0000
7E00
6100
6100
6100
6100
6E00
7400
6600
6300
6180
F0C0
0000
0000
1800
ENDCHAR
STARTCHAR 1E5D
ENCODING 7773
SWIDTH 300 0
DWIDTH 5 0
BBX 5 13 1 -3
BITMAP
F8
00
00
F8
C0
C0
C0
C0
C0
C0
00
00
C0
ENDCHAR
STARTCHAR 1E5E
ENCODING 7774
SWIDTH 660 0
DWIDTH 11 0
BBX 10 14 1 -3
BITMAP
7E00
6100
6100
6100
6100
6E00
7400
6600
6300
6180
F0C0
0000
0000
3E00
ENDCHAR
STARTCHAR 1E5F
ENCODING 7775
SWIDTH 300 0
DWIDTH 5 0
BBX 6 10 0 -3
BITMAP
7C
60
60
60
60
60
60
00
00
F8
ENDCHAR
STARTCHAR 1E60
ENCODING 7776
SWIDTH 480 0
DWIDTH 8 0
BBX 7 15 1 -1
BITMAP
30
00
00
7C
84
80
C0
70
3C
06
02
82
84
6C
10
ENDCHAR
STARTCHAR 1E61
ENCODING 7777
SWIDTH 300 0
DWIDTH 5 0
BBX 4 11 1 -1
BITMAP
60
00
00
F0
80
80
70
10
10
90
60
ENDCHAR
STARTCHAR 1E62
ENCODING 7778
SWIDTH 480 0
DWIDTH 8 0
BBX 7 14 1 -3
BITMAP
7C
84
80
C0
70
3C
06
02
82
84
6C
10
10
10
ENDCHAR
STARTCHAR 1E63
ENCODING 7779
SWIDTH 300 0
DWIDTH 5 0
BBX 4 10 1 -3
BITMAP
F0
80
80
70
10
10
90
60
40
40
ENDCHAR
STARTCHAR 1E64
ENCODING 7780
SWIDTH 480 0
DWIDTH 8 0
BBX 7 18 1 -1
BITMAP
30
04
0C
10
00
00
7C
84
80
C0
70
3C
06
02
82
84
6C
10
ENDCHAR
STARTCHAR 1E65
ENCODING 7781
SWIDTH 300 0
DWIDTH 5 0
BBX 4 13 1 -1
BITMAP
70
10
20
20
00
F0
80
80
70
10
10
90
60
ENDCHAR
STARTCHAR 1E66
ENCODING 7782
SWIDTH 480 0
DWIDTH 8 0
BBX 7 18 1 -1
BITMAP
30
00
4C
30
00
00
7C
84
80
C0
70
3C
06
02
82
84
6C
10
ENDCHAR
STARTCHAR 1E67
ENCODING 7783
SWIDTH 300 0
DWIDTH 5 0
BBX 4 13 1 -1
BITMAP
F0
50
60
00
00
F0
80
80
70
10
10
90
60
ENDCHAR
STARTCHAR 1E68
ENCODING 7784
SWIDTH 480 0
DWIDTH 8 0
BBX 7 17 1 -3
BITMAP
30
00
00
7C
84
80
C0
70
3C
06
02
82
84
6C
10
00
18
ENDCHAR
STARTCHAR 1E69
ENCODING 7785
SWIDTH 300 0
DWIDTH 5 0
BBX 4 13 1 -3
BITMAP
60
00
00
F0
80
80
70
10
10
90
60
00
60
ENDCHAR
STARTCHAR 1E6A
ENCODING 7786
SWIDTH 780 0
DWIDTH 13 0
BBX 13 14 0 0
BITMAP
0300
0000
0000
FFF8
8208
8208
0200
0200
0200
0200
0200
0200
0200
0F80
ENDCHAR
STARTCHAR 1E6B
ENCODING 7787
SWIDTH 300 0
DWIDTH 5 0
BBX 4 11 1 0
BITMAP
60
00
00
40
F0
40
40
40
40
40
70
ENDCHAR
STARTCHAR 1E6C
ENCODING 7788
SWIDTH 780 0
DWIDTH 13 0
BBX 13 14 0 -3
BITMAP
FFF8
8208
8208
0200
0200
0200
0200
0200
0200
0200
0F80
0000
0200
0200
ENDCHAR
STARTCHAR 1E6D
ENCODING 7789
SWIDTH 300 0
DWIDTH 5 0
BBX 4 11 1 -3
BITMAP
40
F0
40
40
40
40
40
70
00
40
40
ENDCHAR
STARTCHAR 1E6E
ENCODING 7790
SWIDTH 780 0
DWIDTH 13 0
BBX 13 14 0 -3
BITMAP
FFF8
8208
8208
0200
0200
0200
0200
0200
0200
0200
0F80
0000
0000
0F80
ENDCHAR
STARTCHAR 1E6F
ENCODING 7791
SWIDTH 300 0
DWIDTH 5 0
BBX 5 11 1 -3
BITMAP
40
F0
40
40
40
40
40
70
00
00
F8
ENDCHAR
STARTCHAR 1E70
ENCODING 7792
SWIDTH 780 0
DWIDTH 13 0
BBX 13 14 0 -3
BITMAP
FFF8
8208
8208
0200
0200
0200
0200
0200
0200
0200
0F80
0200
0600
0900
ENDCHAR
STARTCHAR 1E71
ENCODING 7793
SWIDTH 300 0
DWIDTH 5 0
BBX 4 11 1 -3
BITMAP
40
F0
40
40
40
40
40
70
20
60
90
ENDCHAR
STARTCHAR 1E72
ENCODING 7794
SWIDTH 720 0
DWIDTH 12 0
BBX 10 14 1 -3
BITMAP
E0C0
4040
4040
4040
4040
4040
4040
6040
6080
2080
3B00
0400
0000
1B00
ENDCHAR
STARTCHAR 1E73
ENCODING 7795
SWIDTH 480 0
DWIDTH 8 0
BBX 7 10 1 -3
BITMAP
CC
C4
C4
C4
C4
44
7E
00
00
6C
ENDCHAR
STARTCHAR 1E74
ENCODING 7796
SWIDTH 720 0
DWIDTH 12 0
BBX 10 14 1 -3
BITMAP
E0C0
4040
4040
4040
4040
4040
4040
6040
6080
2080
3B00
0400
0000
1F00
ENDCHAR
STARTCHAR 1E75
ENCODING 7797
SWIDTH 480 0
DWIDTH 8 0
BBX 7 10 1 -3
BITMAP
CC
C4
C4
C4
C4
44
7E
00
00
7C
ENDCHAR
STARTCHAR 1E76
ENCODING 7798
SWIDTH 720 0
DWIDTH 12 0
BBX 10 14 1 -3
BITMAP
E0C0
4040
4040
4040
4040
4040
4040
6040
6080
2080
3B00
0400
0C00
1200
ENDCHAR
STARTCHAR 1E77
ENCODING 7799
SWIDTH 480 0
DWIDTH 8 0
BBX 7 10 1 -3
BITMAP
CC
C4
C4
C4
C4
44
7E
10
30
48
ENDCHAR
STARTCHAR 1E78
ENCODING 7800
SWIDTH 720 0
DWIDTH 12 0
BBX 10 19 1 -1
BITMAP
0100
0300
0400
0000
1F00
0000
0000
E0C0
4040
4040
4040
4040
4040
4040
6040
6080
2080
3B00
0400
ENDCHAR
STARTCHAR 1E79
ENCODING 7801
SWIDTH 480 0
DWIDTH 8 0
BBX 7 14 1 0
BITMAP
08
08
10
10
7C
00
00
CC
C4
C4
C4
C4
44
7E
ENDCHAR
STARTCHAR 1E7A
ENCODING 7802
SWIDTH 720 0
DWIDTH 12 0
BBX 10 18 1 -1
BITMAP
1100
1B00
0000
3F00
0000
0000
E0C0
4040
4040
4040
4040
4040
4040
6040
6080
2080
3B00
0400
ENDCHAR
STARTCHAR 1E7B
ENCODING 7803
SWIDTH 480 0
DWIDTH 8 0
BBX 7 12 1 0
BITMAP
6C
00
7C
00
00
CC
C4
C4
C4
C4
44
7E
ENDCHAR
STARTCHAR 1E7C
ENCODING 7804
SWIDTH 600 0
DWIDTH 10 0
BBX 9 14 1 0
BITMAP
1F00
0000
0000
C180
4100
4100
6200
2200
2200
3400
1400
1800
1800
0800
ENDCHAR
STARTCHAR 1E7D
ENCODING 7805
SWIDTH 360 0
DWIDTH 6 0
BBX 5 10 1 0
BITMAP
F8
00
00
C8
C8
50
50
70
20
20
ENDCHAR
STARTCHAR 1E7E
ENCODING 7806
SWIDTH 600 0
DWIDTH 10 0
BBX 9 14 1 -3
BITMAP
C180
4100
4100
6200
2200
2200
3400
1400
1800
1800
0800
0000
0800
0800
ENDCHAR
STARTCHAR 1E7F
ENCODING 7807
SWIDTH 360 0
DWIDTH 6 0
BBX 5 10 1 -3
BITMAP
C8
C8
50
50
70
20
20
00
20
20
ENDCHAR
STARTCHAR 1E80
ENCODING 7808
SWIDTH 960 0
DWIDTH 16 0
BBX 15 16 1 0
BITMAP
0400
0200
0180
0000
0000
CE46
4684
6284
6388
2308
3110
1190
1AA0
0CE0
0C40
0040
ENDCHAR
STARTCHAR 1E81
ENCODING 7809
SWIDTH 660 0
DWIDTH 11 0
BBX 10 12 1 0
BITMAP
1000
1000
0800
0000
0000
CC40
CC80
5480
5500
7300
2300
2200
ENDCHAR
STARTCHAR 1E82
ENCODING 7810
SWIDTH 960 0
DWIDTH 16 0
BBX 15 16 1 0
BITMAP
0040
00C0
0100
0000
0000
CE46
4684
6284
6388
2308
3110
1190
1AA0
0CE0
0C40
0040
ENDCHAR
STARTCHAR 1E83
ENCODING 7811
SWIDTH 660 0
DWIDTH 11 0
BBX 10 12 1 0
BITMAP
0400
0400
0800
0800
0000
CC40
CC80
5480
5500
7300
2300
2200
ENDCHAR
STARTCHAR 1E84
ENCODING 7812
SWIDTH 960 0
DWIDTH 16 0
BBX 15 15 1 0
BITMAP
0440
06C0
0000
0000
CE46
4684
6284
6388
2308
3110
1190
1AA0
0CE0
0C40
0040
ENDCHAR
STARTCHAR 1E85
ENCODING 7813
SWIDTH 660 0
DWIDTH 11 0
BBX 10 10 1 0
BITMAP
3600
0000
0000
CC40
CC80
5480
5500
7300
2300
2200
ENDCHAR
STARTCHAR 1E86
ENCODING 7814
SWIDTH 960 0
DWIDTH 16 0
BBX 15 14 1 0
BITMAP
0300
0000
0000
CE46
4684
6284
6388
2308
3110
1190
1AA0
0CE0
0C40
0040
ENDCHAR
STARTCHAR 1E87
ENCODING 7815
SWIDTH 660 0
DWIDTH 11 0
BBX 10 10 1 0
BITMAP
0C00
0000
0000
CC40
CC80
5480
5500
7300
2300
2200
ENDCHAR
STARTCHAR 1E88
ENCODING 7816
SWIDTH 960 0
DWIDTH 16 0
BBX 15 14 1 -3
BITMAP
CE46
4684
6284
6388
2308
3110
1190
1AA0
0CE0
0C40
0040
0000
0100
0100
ENDCHAR
STARTCHAR 1E89
ENCODING 7817
SWIDTH 660 0
DWIDTH 11 0
BBX 10 10 1 -3
BITMAP
CC40
CC80
5480
5500
7300
2300
2200
0000
0800
0800
ENDCHAR
STARTCHAR 1E8A
ENCODING 7818
SWIDTH 660 0
DWIDTH 11 0
BBX 11 14 0 0
BITMAP
0600
0000
0000
70C0
3080
1900
0A00
0C00
0600
0A00
1300
2100
2080
F1E0
ENDCHAR
STARTCHAR 1E8B
ENCODING 7819
SWIDTH 420 0
DWIDTH 7 0
BBX 6 10 1 0
BITMAP
30
00
00
CC
48
30
30
50
48
8C
ENDCHAR
STARTCHAR 1E8C
ENCODING 7820
SWIDTH 660 0
DWIDTH 11 0
BBX 11 15 0 0
BITMAP
1100
1B00
0000
0000
70C0
3080
1900
0A00
0C00
0600
0A00
1300
2100
2080
F1E0
ENDCHAR
STARTCHAR 1E8D
ENCODING 7821
SWIDTH 420 0
DWIDTH 7 0
BBX 6 10 1 0
BITMAP
6C
00
00
CC
48
30
30
50
48
8C
ENDCHAR
STARTCHAR 1E8E
ENCODING 7822
SWIDTH 600 0
DWIDTH 10 0
BBX 9 14 1 0
BITMAP
1800
0000
0000
C180
4100
6200
2400
3400
1800
1800
1800
1800
1800
3C00
ENDCHAR
STARTCHAR 1E8F
ENCODING 7823
SWIDTH 360 0
DWIDTH 6 0
BBX 7 14 0 -4
BITMAP
18
00
00
C6
44
64
28
28
30
10
10
20
20
C0
ENDCHAR
STARTCHAR 1E90
ENCODING 7824
SWIDTH 600 0
DWIDTH 10 0
BBX 9 15 1 0
BITMAP
1800
2400
0000
0000
FF80
8300
8200
0600
0C00
1800
1000
3000
6080
4080
FF80
ENDCHAR
STARTCHAR 1E91
ENCODING 7825
SWIDTH 360 0
DWIDTH 6 0
BBX 5 12 1 0
BITMAP
20
60
90
00
00
F0
30
20
60
40
C8
F8
ENDCHAR
STARTCHAR 1E92
ENCODING 7826
SWIDTH 600 0
DWIDTH 10 0
BBX 9 14 1 -3
BITMAP
FF80
8300
8200
0600
0C00
1800
1000
3000
6080
4080
FF80
0000
0800
0800
ENDCHAR
STARTCHAR 1E93
ENCODING 7827
SWIDTH 360 0
DWIDTH 6 0
BBX 5 10 1 -3
BITMAP
F0
30
20
60
40
C8
F8
00
20
20
ENDCHAR
STARTCHAR 1E94
ENCODING 7828
SWIDTH 600 0
DWIDTH 10 0
BBX 9 14 1 -3
BITMAP
FF80
8300
8200
0600
0C00
1800
1000
3000
6080
4080
FF80
0000
0000
3E00
ENDCHAR
STARTCHAR 1E95
ENCODING 7829
SWIDTH 360 0
DWIDTH 6 0
BBX 6 10 0 -3
BITMAP
78
18
10
30
20
64
7C
00
00
F8
ENDCHAR
STARTCHAR 1E96
ENCODING 7830
SWIDTH 540 0
DWIDTH 9 0
BBX 7 15 1 -3
BITMAP
C0
40
40
40
40
7C
44
46
46
46
46
C6
00
00
7C
ENDCHAR
STARTCHAR 1E97
ENCODING 7831
SWIDTH 300 0
DWIDTH 5 0
BBX 5 11 0 0
BITMAP
D8
00
00
20
78
20
20
20
20
20
38
ENDCHAR
STARTCHAR 1E98
ENCODING 7832
SWIDTH 660 0
DWIDTH 11 0
BBX 10 11 1 0
BITMAP
1E00
1200
0C00
0000
CC40
CC80
5480
5500
7300
2300
2200
ENDCHAR
STARTCHAR 1E99
ENCODING 7833
SWIDTH 360 0
DWIDTH 6 0
BBX 7 15 0 -4
BITMAP
78
48
30
00
C6
44
64
28
28
30
10
10
20
20
C0
ENDCHAR
STARTCHAR 1E9A
ENCODING 7834
SWIDTH 360 0
DWIDTH 6 0
BBX 6 13 1 0
BITMAP
20
10
10
10
20
00
F0
90
10
30
D0
90
FC
ENDCHAR
STARTCHAR 1E9B
ENCODING 7835
SWIDTH 240 0
DWIDTH 4 0
BBX 6 15 1 0
BITMAP
18
00
00
3C
40
40
40
40
C0
40
40
40
40
40
C0
ENDCHAR
STARTCHAR 1EA0
ENCODING 7840
SWIDTH 660 0
DWIDTH 11 0
BBX 11 14 0 -3
BITMAP
0600
0A00
0A00
0B00
1100
1100
1F80
2080
2080
40C0
F1E0
0000
0400
0400
ENDCHAR
STARTCHAR 1EA1
ENCODING 7841
SWIDTH 360 0
DWIDTH 6 0
BBX 6 10 1 -3
BITMAP
F0
90
10
30
D0
90
FC
00
20
20
ENDCHAR
STARTCHAR 1EA2
ENCODING 7842
SWIDTH 660 0
DWIDTH 11 0
BBX 11 16 0 0
BITMAP
0700
0100
0200
0000
0000
0600
0A00
0A00
0B00
1100
1100
1F80
2080
2080
40C0
F1E0
ENDCHAR
STARTCHAR 1EA3
ENCODING 7843
SWIDTH 360 0
DWIDTH 6 0
BBX 6 12 1 0
BITMAP
70
10
20
00
00
F0
90
10
30
D0
90
FC
ENDCHAR
STARTCHAR 1EA4
ENCODING 7844
SWIDTH 660 0
DWIDTH 11 0
BBX 11 19 0 0
BITMAP
0080
0080
0100
0300
0600
0900
0000
0000
0600
0A00
0A00
0B00
1100
1100
1F80
2080
2080
40C0
F1E0
ENDCHAR
STARTCHAR 1EA5
ENCODING 7845
SWIDTH 360 0
DWIDTH 6 0
BBX 6 14 1 0
BITMAP
04
04
28
68
90
00
00
F0
90
10
30
D0
90
FC
ENDCHAR
STARTCHAR 1EA6
ENCODING 7846
SWIDTH 660 0
DWIDTH 11 0
BBX 11 19 0 0
BITMAP
2000
2000
1000
0200
0600
0900
0000
0000
0600
0A00
0A00
0B00
1100
1100
1F80
2080
2080
40C0
F1E0
ENDCHAR
STARTCHAR 1EA7
ENCODING 7847
SWIDTH 360 0
DWIDTH 6 0
BBX 7 14 0 0
BITMAP
80
80
50
30
48
00
00
78
48
08
18
68
48
7E
ENDCHAR
STARTCHAR 1EA8
ENCODING 7848
SWIDTH 660 0
DWIDTH 11 0
BBX 11 18 0 0
BITMAP
01C0
0040
0080
0600
0900
0000
0000
0600
0A00
0A00
0B00
1100
1100
1F80
2080
2080
40C0
F1E0
ENDCHAR
STARTCHAR 1EA9
ENCODING 7849
SWIDTH 360 0
DWIDTH 6 0
BBX 7 14 1 0
BITMAP
0E
02
24
60
90
00
00
F0
90
10
30
D0
90
FC
ENDCHAR
STARTCHAR 1EAA
ENCODING 7850
SWIDTH 660 0
DWIDTH 11 0
BBX 11 17 0 0
BITMAP
1F00
0000
0600
0900
0000
0000
0600
0A00
0A00
0B00
1100
1100
1F80
2080
2080
40C0
F1E0
ENDCHAR
STARTCHAR 1EAB
ENCODING 7851
SWIDTH 360 0
DWIDTH 6 0
BBX 6 14 1 0
BITMAP
F8
00
20
60
90
00
00
F0
90
10
30
D0
90
FC
ENDCHAR
STARTCHAR 1EAC
ENCODING 7852
SWIDTH 660 0
DWIDTH 11 0
BBX 11 18 0 -3
BITMAP
0600
0900
0000
0000
0600
0A00
0A00
0B00
1100
1100
1F80
2080
2080
40C0
F1E0
0000
0000
0600
ENDCHAR
STARTCHAR 1EAD
ENCODING 7853
SWIDTH 360 0
DWIDTH 6 0
BBX 6 15 1 -3
BITMAP
20
60
90
00
00
F0
90
10
30
D0
90
FC
00
00
30
ENDCHAR
STARTCHAR 1EAE
ENCODING 7854
SWIDTH 660 0
DWIDTH 11 0
BBX 11 18 0 0
BITMAP
0080
0180
0200
0100
0900
0600
0000
0600
0A00
0A00
0B00
1100
1100
1F80
2080
2080
40C0
F1E0
ENDCHAR
STARTCHAR 1EAF
ENCODING 7855
SWIDTH 360 0
DWIDTH 6 0
BBX 6 14 1 0
BITMAP
10
10
20
30
90
60
00
F0
90
10
30
D0
90
FC
ENDCHAR
STARTCHAR 1EB0
ENCODING 7856
SWIDTH 660 0
DWIDTH 11 0
BBX 11 18 0 0
BITMAP
1000
0800
0600
0100
0900
0600
0000
0600
0A00
0A00
0B00
1100
1100
1F80
2080
2080
40C0
F1E0
ENDCHAR
STARTCHAR 1EB1
ENCODING 7857
SWIDTH 360 0
DWIDTH 6 0
BBX 6 14 1 0
BITMAP
40
40
20
10
90
60
00
F0
90
10
30
D0
90
FC
ENDCHAR
STARTCHAR 1EB2
ENCODING 7858
SWIDTH 660 0
DWIDTH 11 0
BBX 11 19 0 0
BITMAP
0700
0100
0200
0000
0100
0900
0600
0000
0600
0A00
0A00
0B00
1100
1100
1F80
2080
2080
40C0
F1E0
ENDCHAR
STARTCHAR 1EB3
ENCODING 7859
SWIDTH 360 0
DWIDTH 6 0
BBX 6 14 1 0
BITMAP
38
08
10
10
90
60
00
F0
90
10
30
D0
90
FC
ENDCHAR
STARTCHAR 1EB4
ENCODING 7860
SWIDTH 660 0
DWIDTH 11 0
BBX 11 16 0 0
BITMAP
0F80
0100
0900
0600
0000
0600
0A00
0A00
0B00
1100
1100
1F80
2080
2080
40C0
F1E0
ENDCHAR
STARTCHAR 1EB5
ENCODING 7861
SWIDTH 360 0
DWIDTH 6 0
BBX 6 12 1 0
BITMAP
F8
10
90
60
00
F0
90
10
30
D0
90
FC
ENDCHAR
STARTCHAR 1EB6
ENCODING 7862
SWIDTH 660 0
DWIDTH 11 0
BBX 11 18 0 -3
BITMAP
0100
0900
0600
0000
0600
0A00
0A00
0B00
1100
1100
1F80
2080
2080
40C0
F1E0
0000
0000
0600
ENDCHAR
STARTCHAR 1EB7
ENCODING 7863
SWIDTH 360 0
DWIDTH 6 0
BBX 6 14 1 -3
BITMAP
10
90
60
00
F0
90
10
30
D0
90
FC
00
00
60
ENDCHAR
STARTCHAR 1EB8
ENCODING 7864
SWIDTH 600 0
DWIDTH 10 0
BBX 9 14 1 -3
BITMAP
7F00
6100
6100
6000
6400
7C00
6400
6000
6080
6080
FF80
0000
0800
0800
ENDCHAR
STARTCHAR 1EB9
ENCODING 7865
SWIDTH 360 0
DWIDTH 6 0
BBX 5 10 1 -3
BITMAP
78
88
F0
80
80
C0
78
00
20
20
ENDCHAR
STARTCHAR 1EBA
ENCODING 7866
SWIDTH 600 0
DWIDTH 10 0
BBX 9 16 1 0
BITMAP
0E00
0200
0400
0000
0000
7F00
6100
6100
6000
6400
7C00
6400
6000
6080
6080
FF80
ENDCHAR
STARTCHAR 1EBB
ENCODING 7867
SWIDTH 360 0
DWIDTH 6 0
BBX 5 12 1 0
BITMAP
38
08
10
00
00
78
88
F0
80
80
C0
78
ENDCHAR
STARTCHAR 1EBC
ENCODING 7868
SWIDTH 600 0
DWIDTH 10 0
BBX 9 14 1 0
BITMAP
3E00
0000
0000
7F00
6100
6100
6000
6400
7C00
6400
6000
6080
6080
FF80
ENDCHAR
STARTCHAR 1EBD
ENCODING 7869
SWIDTH 360 0
DWIDTH 6 0
BBX 5 10 1 0
BITMAP
F8
00
00
78
88
F0
80
80
C0
78
ENDCHAR
STARTCHAR 1EBE
ENCODING 7870
SWIDTH 600 0
DWIDTH 10 0
BBX 9 19 1 0
BITMAP
0100
0100
0200
0A00
1800
2400
0000
0000
7F00
6100
6100
6000
6400
7C00
6400
6000
6080
6080
FF80
ENDCHAR
STARTCHAR 1EBF
ENCODING 7871
SWIDTH 360 0
DWIDTH 6 0
BBX 6 14 1 0
BITMAP
04
04
18
38
48
00
00
78
88
F0
80
80
C0
78
ENDCHAR
STARTCHAR 1EC0
ENCODING 7872
SWIDTH 600 0
DWIDTH 10 0
BBX 9 19 1 0
BITMAP
4000
4000
2000
0800
1800
2400
0000
0000
7F00
6100
6100
6000
6400
7C00
6400
6000
6080
6080
FF80
ENDCHAR
STARTCHAR 1EC1
ENCODING 7873
SWIDTH 360 0
DWIDTH 6 0
BBX 6 14 0 0
BITMAP
80
80
48
18
24
00
00
3C
44
78
40
40
60
3C
ENDCHAR
STARTCHAR 1EC2
ENCODING 7874
SWIDTH 600 0
DWIDTH 10 0
BBX 9 18 1 0
BITMAP
0380
0080
0100
1800
2400
0000
0000
7F00
6100
6100
6000
6400
7C00
6400
6000
6080
6080
FF80
ENDCHAR
STARTCHAR 1EC3
ENCODING 7875
SWIDTH 360 0
DWIDTH 6 0
BBX 8 14 1 0
BITMAP
07
01
12
30
48
00
00
78
88
F0
80
80
C0
78
ENDCHAR
STARTCHAR 1EC4
ENCODING 7876
SWIDTH 600 0
DWIDTH 10 0
BBX 9 16 1 0
BITMAP
3E00
1800
2400
0000
0000
7F00
6100
6100
6000
6400
7C00
6400
6000
6080
6080
FF80
ENDCHAR
STARTCHAR 1EC5
ENCODING 7877
SWIDTH 360 0
DWIDTH 6 0
BBX 5 14 1 0
BITMAP
F8
00
10
30
48
00
00
78
88
F0
80
80
C0
78
ENDCHAR
STARTCHAR 1EC6
ENCODING 7878
SWIDTH 600 0
DWIDTH 10 0
BBX 9 18 1 -3
BITMAP
1800
2400
0000
0000
7F00
6100
6100
6000
6400
7C00
6400
6000
6080
6080
FF80
0000
0000
1800
ENDCHAR
STARTCHAR 1EC7
ENCODING 7879
SWIDTH 360 0
DWIDTH 6 0
BBX 5 15 1 -3
BITMAP
20
60
90
00
00
78
88
F0
80
80
C0
78
00
00
30
ENDCHAR
STARTCHAR 1EC8
ENCODING 7880
SWIDTH 300 0
DWIDTH 5 0
BBX 4 16 1 0
BITMAP
70
10
20
00
00
60
60
60
60
60
60
60
60
60
60
F0
ENDCHAR
STARTCHAR 1EC9
ENCODING 7881
SWIDTH 240 0
DWIDTH 4 0
BBX 3 13 1 -1
BITMAP
E0
20
40
00
00
40
40
40
40
40
40
C0
20
ENDCHAR
STARTCHAR 1ECA
ENCODING 7882
SWIDTH 300 0
DWIDTH 5 0
BBX 4 14 1 -3
BITMAP
60
60
60
60
60
60
60
60
60
60
F0
00
40
40
ENDCHAR
STARTCHAR 1ECB
ENCODING 7883
SWIDTH 240 0
DWIDTH 4 0
BBX 3 13 1 -3
BITMAP
C0
00
00
C0
40
40
40
40
40
C0
20
40
40
ENDCHAR
STARTCHAR 1ECC
ENCODING 7884
SWIDTH 720 0
DWIDTH 12 0
BBX 10 14 1 -3
BITMAP
3F00
4080
C0C0
C040
8040
8040
8040
C040
C0C0
6080
3B00
0400
0400
0400
ENDCHAR
STARTCHAR 1ECD
ENCODING 7885
SWIDTH 480 0
DWIDTH 8 0
BBX 7 10 1 -3
BITMAP
78
84
86
86
86
C4
68
10
10
10
ENDCHAR
STARTCHAR 1ECE
ENCODING 7886
SWIDTH 720 0
DWIDTH 12 0
BBX 10 17 1 -1
BITMAP
0E00
0200
0400
0000
0000
3F00
4080
C0C0
C040
8040
8040
8040
C040
C0C0
6080
3B00
0400
ENDCHAR
STARTCHAR 1ECF
ENCODING 7887
SWIDTH 480 0
DWIDTH 8 0
BBX 7 13 1 -1
BITMAP
38
08
10
00
00
78
84
86
86
86
C4
68
10
ENDCHAR
STARTCHAR 1ED0
ENCODING 7888
SWIDTH 720 0
DWIDTH 12 0
BBX 10 20 1 -1
BITMAP
0080
0080
0100
0500
0C00
1200
0000
0000
3F00
4080
C0C0
C040
8040
8040
8040
C040
C0C0
6080
3B00
0400
ENDCHAR
STARTCHAR 1ED1
ENCODING 7889
SWIDTH 480 0
DWIDTH 8 0
BBX 7 15 1 -1
BITMAP
02
02
14
34
48
00
00
78
84
86
86
86
C4
68
10
ENDCHAR
STARTCHAR 1ED2
ENCODING 7890
SWIDTH 720 0
DWIDTH 12 0
BBX 10 20 1 -1
BITMAP
2000
2000
1000
0400
0C00
1200
0000
0000
3F00
4080
C0C0
C040
8040
8040
8040
C040
C0C0
6080
3B00
0400
ENDCHAR
STARTCHAR 1ED3
ENCODING 7891
SWIDTH 480 0
DWIDTH 8 0
BBX 7 15 1 -1
BITMAP
80
80
50
30
48
00
00
78
84
86
86
86
C4
68
10
ENDCHAR
STARTCHAR 1ED4
ENCODING 7892
SWIDTH 720 0
DWIDTH 12 0
BBX 10 19 1 -1
BITMAP
01C0
0040
0080
0C00
1200
0000
0000
3F00
4080
C0C0
C040
8040
8040
8040
C040
C0C0
6080
3B00
0400
ENDCHAR
STARTCHAR 1ED5
ENCODING 7893
SWIDTH 480 0
DWIDTH 8 0
BBX 8 15 1 -1
BITMAP
07
01
12
30
48
00
00
78
84
86
86
86
C4
68
10
ENDCHAR
STARTCHAR 1ED6
ENCODING 7894
SWIDTH 720 0
DWIDTH 12 0
BBX 10 17 1 -1
BITMAP
1F00
0C00
1200
0000
0000
3F00
4080
C0C0
C040
8040
8040
8040
C040
C0C0
6080
3B00
0400
ENDCHAR
STARTCHAR 1ED7
ENCODING 7895
SWIDTH 480 0
DWIDTH 8 0
BBX 7 15 1 -1
BITMAP
7C
00
10
30
48
00
00
78
84
86
86
86
C4
68
10
ENDCHAR
STARTCHAR 1ED8
ENCODING 7896
SWIDTH 720 0
DWIDTH 12 0
BBX 10 18 1 -3
BITMAP
0C00
1200
0000
0000
3F00
4080
C0C0
C040
8040
8040
8040
C040
C0C0
6080
3B00
0400
0000
0C00
ENDCHAR
STARTCHAR 1ED9
ENCODING 7897
SWIDTH 480 0
DWIDTH 8 0
BBX 7 15 1 -3
BITMAP
10
30
48
00
00
78
84
86
86
86
C4
68
10
00
30
ENDCHAR
STARTCHAR 1EDA
ENCODING 7898
SWIDTH 720 0
DWIDTH 12 0
BBX 10 17 1 -1
BITMAP
0100
0300
0400
0000
0040
3F40
4080
C0C0
C040
8040
8040
8040
C040
40C0
6080
3B00
0400
ENDCHAR
STARTCHAR 1EDB
ENCODING 7899
SWIDTH 480 0
DWIDTH 8 0
BBX 7 13 1 -1
BITMAP
10
10
20
20
02
7A
C4
86
86
86
C4
68
10
ENDCHAR
STARTCHAR 1EDC
ENCODING 7900
SWIDTH 720 0
DWIDTH 12 0
BBX 10 17 1 -1
BITMAP
2000
1000
0C00
0000
0040
3F40
4080
C0C0
C040
8040
8040
8040
C040
40C0
6080
3B00
0400
ENDCHAR
STARTCHAR 1EDD
ENCODING 7901
SWIDTH 480 0
DWIDTH 8 0
BBX 7 13 1 -1
BITMAP
20
20
10
00
02
7A
C4
86
86
86
C4
68
10
ENDCHAR
STARTCHAR 1EDE
ENCODING 7902
SWIDTH 720 0
DWIDTH 12 0
BBX 10 17 1 -1
BITMAP
0E00
0200
0400
0000
0040
3F40
4080
C0C0
C040
8040
8040
8040
C040
40C0
6080
3B00
0400
ENDCHAR
STARTCHAR 1EDF
ENCODING 7903
SWIDTH 480 0
DWIDTH 8 0
BBX 7 13 1 -1
BITMAP
38
08
10
00
02
7A
C4
86
86
86
C4
68
10
ENDCHAR
STARTCHAR 1EE0
ENCODING 7904
SWIDTH 720 0
DWIDTH 12 0
BBX 10 15 1 -1
BITMAP
1F00
0000
0040
3F40
4080
C0C0
C040
8040
8040
8040
C040
40C0
6080
3B00
0400
ENDCHAR
STARTCHAR 1EE1
ENCODING 7905
SWIDTH 480 0
DWIDTH 8 0
BBX 7 11 1 -1
BITMAP
7C
00
02
7A
C4
86
86
86
C4
68
10
ENDCHAR
STARTCHAR 1EE2
ENCODING 7906
SWIDTH 720 0
DWIDTH 12 0
BBX 10 15 1 -3
BITMAP
0040
3F40
4080
C0C0
C040
8040
8040
8040
C040
40C0
6080
3B00
0400
0000
0C00
ENDCHAR
STARTCHAR 1EE3
ENCODING 7907
SWIDTH 480 0
DWIDTH 8 0
BBX 7 11 1 -3
BITMAP
02
7A
C4
86
86
86
C4
68
10
00
30
ENDCHAR
STARTCHAR 1EE4
ENCODING 7908
SWIDTH 720 0
DWIDTH 12 0
BBX 10 14 1 -3
BITMAP
E0C0
4040
4040
4040
4040
4040
4040
6040
6080
2080
3B00
0400
0400
0400
ENDCHAR
STARTCHAR 1EE5
ENCODING 7909
SWIDTH 480 0
DWIDTH 8 0
BBX 7 10 1 -3
BITMAP
CC
C4
C4
C4
C4
44
7E
00
20
20
ENDCHAR
STARTCHAR 1EE6
ENCODING 7910
SWIDTH 720 0
DWIDTH 12 0
BBX 10 17 1 -1
BITMAP
0700
0100
0200
0000
0000
E0C0
4040
4040
4040
4040
4040
4040
6040
6080
2080
3B00
0400
ENDCHAR
STARTCHAR 1EE7
ENCODING 7911
SWIDTH 480 0
DWIDTH 8 0
BBX 7 12 1 0
BITMAP
1C
04
08
00
00
CC
C4
C4
C4
C4
44
7E
ENDCHAR
STARTCHAR 1EE8
ENCODING 7912
SWIDTH 720 0
DWIDTH 12 0
BBX 12 17 1 -1
BITMAP
0100
0300
0400
0010
0010
E0E0
4040
4040
4040
4040
4040
4040
6040
6080
2080
3B00
0400
ENDCHAR
STARTCHAR 1EE9
ENCODING 7913
SWIDTH 480 0
DWIDTH 8 0
BBX 8 12 1 0
BITMAP
10
10
20
21
01
CE
C4
C4
C4
C4
44
7E
ENDCHAR
STARTCHAR 1EEA
ENCODING 7914
SWIDTH 720 0
DWIDTH 12 0
BBX 12 17 1 -1
BITMAP
1000
0800
0600
0010
0010
E0E0
4040
4040
4040
4040
4040
4040
6040
6080
2080
3B00
0400
ENDCHAR
STARTCHAR 1EEB
ENCODING 7915
SWIDTH 480 0
DWIDTH 8 0
BBX 8 12 1 0
BITMAP
20
20
10
01
01
CE
C4
C4
C4
C4
44
7E
ENDCHAR
STARTCHAR 1EEC
ENCODING 7916
SWIDTH 720 0
DWIDTH 12 0
BBX 12 17 1 -1
BITMAP
0700
0100
0200
0010
0010
E0E0
4040
4040
4040
4040
4040
4040
6040
6080
2080
3B00
0400
ENDCHAR
STARTCHAR 1EED
ENCODING 7917
SWIDTH 480 0
DWIDTH 8 0
BBX 8 12 1 0
BITMAP
1C
04
08
01
01
CE
C4
C4
C4
C4
44
7E
ENDCHAR
STARTCHAR 1EEE
ENCODING 7918
SWIDTH 720 0
DWIDTH 12 0
BBX 12 15 1 -1
BITMAP
0F80
0010
0010
E0E0
4040
4040
4040
4040
4040
4040
6040
6080
2080
3B00
0400
ENDCHAR
STARTCHAR 1EEF
ENCODING 7919
SWIDTH 480 0
DWIDTH 8 0
BBX 8 10 1 0
BITMAP
7C
01
01
CE
C4
C4
C4
C4
44
7E
ENDCHAR
STARTCHAR 1EF0
ENCODING 7920
SWIDTH 720 0
DWIDTH 12 0
BBX 12 16 1 -3
BITMAP
0010
0010
E0E0
4040
4040
4040
4040
4040
4040
6040
6080
2080
3B00
0400
0000
0C00
ENDCHAR
STARTCHAR 1EF1
ENCODING 7921
SWIDTH 480 0
DWIDTH 8 0
BBX 8 12 1 -3
BITMAP
01
01
CE
C4
C4
C4
C4
44
7E
00
00
30
ENDCHAR
STARTCHAR 1EF2
ENCODING 7922
SWIDTH 600 0
DWIDTH 10 0
BBX 9 16 1 0
BITMAP
4000
2000
1800
0000
0000
C180
4100
6200
2400
3400
1800
1800
1800
1800
1800
3C00
ENDCHAR
STARTCHAR 1EF3
ENCODING 7923
SWIDTH 360 0
DWIDTH 6 0
BBX 7 16 0 -4
BITMAP
20
20
10
00
00
C6
44
64
28
28
30
10
10
20
20
C0
ENDCHAR
STARTCHAR 1EF4
ENCODING 7924
SWIDTH 600 0
DWIDTH 10 0
BBX 9 14 1 -3
BITMAP
C180
4100
6200
2400
3400
1800
1800
1800
1800
1800
3C00
0000
1000
1000
ENDCHAR
STARTCHAR 1EF5
ENCODING 7925
SWIDTH 360 0
DWIDTH 6 0
BBX 7 11 0 -4
BITMAP
C6
44
64
28
28
30
10
10
28
28
C0
ENDCHAR
STARTCHAR 1EF6
ENCODING 7926
SWIDTH 600 0
DWIDTH 10 0
BBX 9 16 1 0
BITMAP
0E00
0200
0400
0000
0000
C180
4100
6200
2400
3400
1800
1800
1800
1800
1800
3C00
ENDCHAR
STARTCHAR 1EF7
ENCODING 7927
SWIDTH 360 0
DWIDTH 6 0
BBX 7 16 0 -4
BITMAP
1C
04
08
00
00
C6
44
64
28
28
30
10
10
20
20
C0
ENDCHAR
STARTCHAR 1EF8
ENCODING 7928
SWIDTH 600 0
DWIDTH 10 0
BBX 9 14 1 0
BITMAP
3E00
0000
0000
C180
4100
6200
2400
3400
1800
1800
1800
1800
1800
3C00
ENDCHAR
STARTCHAR 1EF9
ENCODING 7929
SWIDTH 360 0
DWIDTH 6 0
BBX 7 14 0 -4
BITMAP
7C
00
00
C6
44
64
28
28
30
10
10
20
20
C0
ENDCHAR
STARTCHAR 1F00
ENCODING 7936
SWIDTH 540 0
DWIDTH 9 0
BBX 10 12 0 0
BITMAP
0800
0400
0800
0000
0000
1B00
2700
6600
4600
8C40
9C80
7380
ENDCHAR
STARTCHAR 1F01
ENCODING 7937
SWIDTH 540 0
DWIDTH 9 0
BBX 10 12 0 0
BITMAP
0800
1000
0800
0000
0000
1B00
2700
6600
4600
8C40
9C80
7380
ENDCHAR
STARTCHAR 1F02
ENCODING 7938
SWIDTH 540 0
DWIDTH 9 0
BBX 10 13 0 0
BITMAP
0400
1A00
0A00
0200
0000
0000
1B00
2700
6600
4600
8C40
9C80
7380
ENDCHAR
STARTCHAR 1F03
ENCODING 7939
SWIDTH 540 0
DWIDTH 9 0
BBX 10 13 0 0
BITMAP
0200
0A00
1200
0800
0000
0000
1B00
2700
6600
4600
8C40
9C80
7380
ENDCHAR
STARTCHAR 1F04
ENCODING 7940
SWIDTH 540 0
DWIDTH 9 0
BBX 10 13 0 0
BITMAP
0100
0A00
0A00
0A00
0000
0000
1B00
2700
6600
4600
8C40
9C80
7380
ENDCHAR
STARTCHAR 1F05
ENCODING 7941
SWIDTH 540 0
DWIDTH 9 0
BBX 10 13 0 0
BITMAP
0200
0A00
1200
0800
0000
0000
1B00
2700
6600
4600
8C40
9C80
7380
ENDCHAR
STARTCHAR 1F06
ENCODING 7942
SWIDTH 540 0
DWIDTH 9 0
BBX 10 14 0 0
BITMAP
1E00
0000
0C00
0400
0000
0000
0000
1B00
2700
6600
4600
8C40
9C80
7380
ENDCHAR
STARTCHAR 1F07
ENCODING 7943
SWIDTH 540 0
DWIDTH 9 0
BBX 10 14 0 0
BITMAP
1C00
0000
0C00
0800
0000
0000
0000
1B00
2700
6600
4600
8C40
9C80
7380
ENDCHAR
STARTCHAR 1F08
ENCODING 7944
SWIDTH 660 0
DWIDTH 11 0
BBX 11 12 0 0
BITMAP
6000
2600
0A00
0A00
0B00
1100
1100
1F80
2080
2080
40C0
F1E0
ENDCHAR
STARTCHAR 1F09
ENCODING 7945
SWIDTH 660 0
DWIDTH 11 0
BBX 11 12 0 0
BITMAP
6000
4600
0A00
0A00
0B00
1100
1100
1F80
2080
2080
40C0
F1E0
ENDCHAR
STARTCHAR 1F0A
ENCODING 7946
SWIDTH 720 0
DWIDTH 12 0
BBX 12 13 0 0
BITMAP
1000
D000
5300
4500
0500
0580
0880
0880
0FC0
1040
1040
2060
78F0
ENDCHAR
STARTCHAR 1F0B
ENCODING 7947
SWIDTH 720 0
DWIDTH 12 0
BBX 12 13 0 0
BITMAP
1000
5000
9300
4500
0500
0580
0880
0880
0FC0
1040
1040
2060
78F0
ENDCHAR
STARTCHAR 1F0C
ENCODING 7948
SWIDTH 720 0
DWIDTH 12 0
BBX 11 13 1 0
BITMAP
1000
A000
A600
AA00
0A00
0B00
1100
1100
1F80
2080
2080
40C0
F1E0
ENDCHAR
STARTCHAR 1F0D
ENCODING 7949
SWIDTH 720 0
DWIDTH 12 0
BBX 12 13 0 0
BITMAP
0800
5000
9300
5500
0500
0580
0880
0880
0FC0
1040
1040
2060
78F0
ENDCHAR
STARTCHAR 1F0E
ENCODING 7950
SWIDTH 720 0
DWIDTH 12 0
BBX 11 14 1 0
BITMAP
F000
0000
4000
2C00
4E00
0A00
1200
1300
1100
3F00
2180
4080
4080
E1E0
ENDCHAR
STARTCHAR 1F0F
ENCODING 7951
SWIDTH 720 0
DWIDTH 12 0
BBX 11 14 1 0
BITMAP
C000
2000
6000
4C00
4E00
0A00
1200
1300
1100
3F00
2180
4080
4080
E1E0
ENDCHAR
STARTCHAR 1F10
ENCODING 7952
SWIDTH 300 0
DWIDTH 5 0
BBX 5 12 0 0
BITMAP
30
10
10
00
00
38
40
80
70
80
98
70
ENDCHAR
STARTCHAR 1F11
ENCODING 7953
SWIDTH 300 0
DWIDTH 5 0
BBX 5 12 0 0
BITMAP
30
20
00
00
00
38
40
80
70
80
98
70
ENDCHAR
STARTCHAR 1F12
ENCODING 7954
SWIDTH 300 0
DWIDTH 5 0
BBX 5 13 0 0
BITMAP
10
70
28
08
00
00
38
40
80
70
80
98
70
ENDCHAR
STARTCHAR 1F13
ENCODING 7955
SWIDTH 300 0
DWIDTH 5 0
BBX 5 13 0 0
BITMAP
10
70
48
08
00
00
38
40
80
70
80
98
70
ENDCHAR
STARTCHAR 1F14
ENCODING 7956
SWIDTH 300 0
DWIDTH 5 0
BBX 5 13 0 0
BITMAP
08
68
28
40
00
00
38
40
80
70
80
98
70
ENDCHAR
STARTCHAR 1F15
ENCODING 7957
SWIDTH 300 0
DWIDTH 5 0
BBX 5 13 0 0
BITMAP
08
68
48
00
00
00
38
40
80
70
80
98
70
ENDCHAR
STARTCHAR 1F18
ENCODING 7960
SWIDTH 780 0
DWIDTH 13 0
BBX 11 12 1 0
BITMAP
8000
9FE0
8820
0820
0800
0880
0F80
0880
0880
0800
0820
3FE0
ENDCHAR
STARTCHAR 1F19
ENCODING 7961
SWIDTH 720 0
DWIDTH 12 0
BBX 11 12 1 0
BITMAP
8000
9FE0
8820
0820
0800
0880
0F80
0880
0880
0800
0820
3FE0
ENDCHAR
STARTCHAR 1F1A
ENCODING 7962
SWIDTH 840 0
DWIDTH 14 0
BBX 13 13 1 0
BITMAP
2000
A000
A7F8
8208
1208
0200
0220
03E0
0220
0200
0208
0208
0FF8
ENDCHAR
STARTCHAR 1F1B
ENCODING 7963
SWIDTH 840 0
DWIDTH 14 0
BBX 14 13 0 0
BITMAP
1000
5000
93F8
4108
0100
0100
0100
01E0
0120
0100
0104
0104
07FC
ENDCHAR
STARTCHAR 1F1C
ENCODING 7964
SWIDTH 840 0
DWIDTH 14 0
BBX 13 13 1 0
BITMAP
1000
9000
A7F8
A208
0208
0200
0220
03E0
0220
0220
0200
0208
0FF8
ENDCHAR
STARTCHAR 1F1D
ENCODING 7965
SWIDTH 840 0
DWIDTH 14 0
BBX 13 13 1 0
BITMAP
1000
A000
A7F8
A208
0208
0200
0220
03E0
0220
0200
0208
0208
0FF8
ENDCHAR
STARTCHAR 1F20
ENCODING 7968
SWIDTH 360 0
DWIDTH 6 0
BBX 5 13 1 -1
BITMAP
30
10
00
00
00
D8
78
A8
48
C8
88
88
08
ENDCHAR
STARTCHAR 1F21
ENCODING 7969
SWIDTH 360 0
DWIDTH 6 0
BBX 5 13 1 -1
BITMAP
30
20
10
00
00
D8
78
A8
48
C8
88
88
08
ENDCHAR
STARTCHAR 1F22
ENCODING 7970
SWIDTH 360 0
DWIDTH 6 0
BBX 5 14 1 -1
BITMAP
08
28
28
20
00
00
D8
78
A8
48
C8
88
88
08
ENDCHAR
STARTCHAR 1F23
ENCODING 7971
SWIDTH 360 0
DWIDTH 6 0
BBX 5 13 1 -1
BITMAP
28
48
28
00
00
D8
78
A8
48
C8
88
88
08
ENDCHAR
STARTCHAR 1F24
ENCODING 7972
SWIDTH 360 0
DWIDTH 6 0
BBX 6 14 1 -1
BITMAP
04
24
18
28
00
00
D8
78
A8
48
C8
88
88
08
ENDCHAR
STARTCHAR 1F25
ENCODING 7973
SWIDTH 360 0
DWIDTH 6 0
BBX 6 14 1 -1
BITMAP
04
34
28
08
00
00
D8
78
A8
48
C8
88
88
08
ENDCHAR
STARTCHAR 1F26
ENCODING 7974
SWIDTH 360 0
DWIDTH 6 0
BBX 6 15 1 -1
BITMAP
3C
00
18
08
00
00
00
D8
78
A8
48
C8
88
88
08
ENDCHAR
STARTCHAR 1F27
ENCODING 7975
SWIDTH 360 0
DWIDTH 6 0
BBX 6 15 1 -1
BITMAP
38
04
18
10
00
00
00
D8
78
A8
48
C8
88
88
08
ENDCHAR
STARTCHAR 1F28
ENCODING 7976
SWIDTH 900 0
DWIDTH 15 0
BBX 14 12 1 0
BITMAP
8000
9C1C
8808
0808
0808
0808
0FF8
0808
0808
0808
0808
3E3C
ENDCHAR
STARTCHAR 1F29
ENCODING 7977
SWIDTH 960 0
DWIDTH 16 0
BBX 15 11 1 0
BITMAP
9C1C
8808
0808
0808
0808
0FF8
0808
0808
0808
0808
3E3E
ENDCHAR
STARTCHAR 1F2A
ENCODING 7978
SWIDTH 1080 0
DWIDTH 18 0
BBX 17 13 1 0
BITMAP
200000
A00000
A70700
820200
120200
020200
020200
03FE00
020200
020200
020200
020200
0F8F80
ENDCHAR
STARTCHAR 1F2B
ENCODING 7979
SWIDTH 1080 0
DWIDTH 18 0
BBX 17 13 1 0
BITMAP
200000
A00000
A70700
820200
120200
020200
020200
03FE00
020200
020200
020200
020200
0F8F80
ENDCHAR
STARTCHAR 1F2C
ENCODING 7980
SWIDTH 1080 0
DWIDTH 18 0
BBX 17 13 1 0
BITMAP
100000
900000
A70700
A20200
020200
020200
020200
03FE00
020200
020200
020200
020200
078F80
ENDCHAR
STARTCHAR 1F2D
ENCODING 7981
SWIDTH 1080 0
DWIDTH 18 0
BBX 17 13 1 0
BITMAP
100000
A00000
A70700
A20200
020200
020200
020200
03FE00
020200
020200
020200
020200
0F8F80
ENDCHAR
STARTCHAR 1F2E
ENCODING 7982
SWIDTH 1020 0
DWIDTH 17 0
BBX 16 14 1 0
BITMAP
F000
0000
4000
460E
4604
0604
0604
0604
07FC
0604
0604
0604
0604
0F0F
ENDCHAR
STARTCHAR 1F2F
ENCODING 7983
SWIDTH 780 0
DWIDTH 13 0
BBX 16 14 1 0
BITMAP
C000
2000
6000
460E
4604
0604
0604
0604
07FC
0604
0604
0604
0604
0F0F
ENDCHAR
STARTCHAR 1F30
ENCODING 7984
SWIDTH 180 0
DWIDTH 3 0
BBX 4 12 0 0
BITMAP
20
10
20
00
00
20
20
40
40
40
E0
C0
ENDCHAR
STARTCHAR 1F31
ENCODING 7985
SWIDTH 180 0
DWIDTH 3 0
BBX 4 12 0 0
BITMAP
30
20
00
00
00
20
20
40
40
40
E0
C0
ENDCHAR
STARTCHAR 1F32
ENCODING 7986
SWIDTH 180 0
DWIDTH 3 0
BBX 4 13 0 0
BITMAP
10
50
50
40
00
00
20
20
40
40
40
E0
C0
ENDCHAR
STARTCHAR 1F33
ENCODING 7987
SWIDTH 180 0
DWIDTH 3 0
BBX 4 12 0 0
BITMAP
50
90
50
00
00
20
20
40
40
40
E0
C0
ENDCHAR
STARTCHAR 1F34
ENCODING 7988
SWIDTH 180 0
DWIDTH 3 0
BBX 5 13 0 0
BITMAP
08
48
30
50
00
00
20
20
40
40
40
E0
C0
ENDCHAR
STARTCHAR 1F35
ENCODING 7989
SWIDTH 180 0
DWIDTH 3 0
BBX 5 13 0 0
BITMAP
08
68
50
50
00
00
20
20
40
40
40
E0
C0
ENDCHAR
STARTCHAR 1F36
ENCODING 7990
SWIDTH 180 0
DWIDTH 3 0
BBX 5 14 0 0
BITMAP
78
00
30
10
20
00
00
20
20
40
40
40
E0
C0
ENDCHAR
STARTCHAR 1F37
ENCODING 7991
SWIDTH 180 0
DWIDTH 3 0
BBX 4 14 0 0
BITMAP
60
90
30
20
00
00
00
20
20
40
40
40
E0
C0
ENDCHAR
STARTCHAR 1F38
ENCODING 7992
SWIDTH 480 0
DWIDTH 8 0
BBX 7 11 1 0
BITMAP
9C
88
08
08
08
08
08
08
08
08
3E
ENDCHAR
STARTCHAR 1F39
ENCODING 7993
SWIDTH 420 0
DWIDTH 7 0
BBX 7 11 0 0
BITMAP
CE
04
04
04
04
04
04
04
04
04
1E
ENDCHAR
STARTCHAR 1F3A
ENCODING 7994
SWIDTH 600 0
DWIDTH 10 0
BBX 9 13 1 0
BITMAP
2000
A000
A700
8200
0200
0200
0200
0200
0200
0200
0200
0200
0F80
ENDCHAR
STARTCHAR 1F3B
ENCODING 7995
SWIDTH 600 0
DWIDTH 10 0
BBX 10 13 0 0
BITMAP
1000
5000
9380
4100
0100
0100
0100
0100
0100
0100
0100
0100
07C0
ENDCHAR
STARTCHAR 1F3C
ENCODING 7996
SWIDTH 600 0
DWIDTH 10 0
BBX 10 13 0 0
BITMAP
0800
D000
5380
5100
0100
0100
0100
0100
0100
0100
0100
0100
07C0
ENDCHAR
STARTCHAR 1F3D
ENCODING 7997
SWIDTH 600 0
DWIDTH 10 0
BBX 10 13 0 0
BITMAP
0800
5000
9380
5100
0100
0100
0100
0100
0100
0100
0100
0100
07C0
ENDCHAR
STARTCHAR 1F3E
ENCODING 7998
SWIDTH 540 0
DWIDTH 9 0
BBX 8 14 1 0
BITMAP
F0
00
40
46
46
06
06
06
06
06
06
06
06
0F
ENDCHAR
STARTCHAR 1F3F
ENCODING 7999
SWIDTH 540 0
DWIDTH 9 0
BBX 8 14 1 0
BITMAP
D0
20
40
4E
44
04
04
04
04
04
04
04
04
1F
ENDCHAR
STARTCHAR 1F40
ENCODING 8000
SWIDTH 360 0
DWIDTH 6 0
BBX 6 12 0 0
BITMAP
08
08
08
00
00
18
38
64
44
4C
88
70
ENDCHAR
STARTCHAR 1F41
ENCODING 8001
SWIDTH 360 0
DWIDTH 6 0
BBX 6 12 0 0
BITMAP
08
08
08
00
00
18
38
64
44
4C
88
70
ENDCHAR
STARTCHAR 1F42
ENCODING 8002
SWIDTH 360 0
DWIDTH 6 0
BBX 6 13 0 0
BITMAP
08
34
14
04
00
00
18
38
64
44
4C
88
70
ENDCHAR
STARTCHAR 1F43
ENCODING 8003
SWIDTH 360 0
DWIDTH 6 0
BBX 6 13 0 0
BITMAP
08
38
24
04
00
00
18
38
64
44
4C
88
70
ENDCHAR
STARTCHAR 1F44
ENCODING 8004
SWIDTH 360 0
DWIDTH 6 0
BBX 7 13 0 0
BITMAP
02
12
14
14
00
00
18
38
64
44
4C
88
70
ENDCHAR
STARTCHAR 1F45
ENCODING 8005
SWIDTH 360 0
DWIDTH 6 0
BBX 7 13 0 0
BITMAP
02
14
14
14
00
00
18
38
64
44
4C
88
70
ENDCHAR
STARTCHAR 1F48
ENCODING 8008
SWIDTH 720 0
DWIDTH 12 0
BBX 11 13 1 -1
BITMAP
8000
9F80
A0C0
6060
4060
4020
4020
4020
6020
6060
3040
1980
0600
ENDCHAR
STARTCHAR 1F49
ENCODING 8009
SWIDTH 780 0
DWIDTH 13 0
BBX 12 13 1 -1
BITMAP
8000
9F80
B040
2060
6020
6030
6030
6030
6020
2020
3040
0D80
0200
ENDCHAR
STARTCHAR 1F4A
ENCODING 8010
SWIDTH 960 0
DWIDTH 16 0
BBX 14 14 1 -1
BITMAP
2000
A000
A3F0
8418
0C0C
080C
0804
0804
0804
0C04
0C0C
0608
0330
00C0
ENDCHAR
STARTCHAR 1F4B
ENCODING 8011
SWIDTH 960 0
DWIDTH 16 0
BBX 14 14 1 -1
BITMAP
2000
A000
A3F0
8418
0C0C
080C
0804
0804
0804
0C04
0C0C
0608
0330
00C0
ENDCHAR
STARTCHAR 1F4C
ENCODING 8012
SWIDTH 840 0
DWIDTH 14 0
BBX 13 14 1 -1
BITMAP
1000
A000
A7E0
A830
1818
1018
1008
1008
1008
1818
1810
0C10
0660
0180
ENDCHAR
STARTCHAR 1F4D
ENCODING 8013
SWIDTH 900 0
DWIDTH 15 0
BBX 14 14 1 -1
BITMAP
1000
A000
A7E0
A810
0818
1808
1008
100C
1808
1808
0818
0C10
0760
0080
ENDCHAR
STARTCHAR 1F50
ENCODING 8016
SWIDTH 360 0
DWIDTH 6 0
BBX 6 12 0 0
BITMAP
18
08
00
00
00
60
C4
44
44
44
48
78
ENDCHAR
STARTCHAR 1F51
ENCODING 8017
SWIDTH 360 0
DWIDTH 6 0
BBX 6 12 0 0
BITMAP
18
10
00
00
00
60
C4
44
44
44
48
78
ENDCHAR
STARTCHAR 1F52
ENCODING 8018
SWIDTH 360 0
DWIDTH 6 0
BBX 6 13 0 0
BITMAP
08
28
14
24
00
00
60
C4
44
44
44
48
78
ENDCHAR
STARTCHAR 1F53
ENCODING 8019
SWIDTH 360 0
DWIDTH 6 0
BBX 6 13 0 0
BITMAP
08
28
28
24
00
00
60
C4
44
44
44
48
78
ENDCHAR
STARTCHAR 1F54
ENCODING 8020
SWIDTH 360 0
DWIDTH 6 0
BBX 6 13 0 0
BITMAP
04
34
14
00
00
00
60
C4
44
44
44
48
78
ENDCHAR
STARTCHAR 1F55
ENCODING 8021
SWIDTH 360 0
DWIDTH 6 0
BBX 6 13 0 0
BITMAP
04
34
24
00
00
00
60
C4
44
44
44
48
78
ENDCHAR
STARTCHAR 1F56
ENCODING 8022
SWIDTH 360 0
DWIDTH 6 0
BBX 7 14 0 0
BITMAP
1E
00
08
08
08
00
00
60
C4
44
44
44
48
78
ENDCHAR
STARTCHAR 1F57
ENCODING 8023
SWIDTH 360 0
DWIDTH 6 0
BBX 6 14 0 0
BITMAP
38
00
18
10
00
00
00
60
C4
44
44
44
48
78
ENDCHAR
STARTCHAR 1F59
ENCODING 8025
SWIDTH 780 0
DWIDTH 13 0
BBX 11 12 1 0
BITMAP
8000
BCE0
8300
0300
0300
0300
0300
0300
0300
0300
0300
0780
ENDCHAR
STARTCHAR 1F5B
ENCODING 8027
SWIDTH 900 0
DWIDTH 15 0
BBX 14 13 1 0
BITMAP
2000
A000
A73C
80C0
1040
0040
0040
0040
0040
0040
0040
0040
01F0
ENDCHAR
STARTCHAR 1F5D
ENCODING 8029
SWIDTH 840 0
DWIDTH 14 0
BBX 13 13 1 0
BITMAP
1000
A000
AF38
A140
0080
0080
0080
0080
0080
0080
0080
0080
01E0
ENDCHAR
STARTCHAR 1F5F
ENCODING 8031
SWIDTH 780 0
DWIDTH 13 0
BBX 12 14 0 0
BITMAP
D000
2000
4000
9E70
4180
0180
0180
0180
0180
0180
0180
0180
0180
03C0
ENDCHAR
STARTCHAR 1F60
ENCODING 8032
SWIDTH 540 0
DWIDTH 9 0
BBX 9 12 0 0
BITMAP
0200
0200
0200
0000
0000
1880
3080
6480
4480
8C80
9980
7F00
ENDCHAR
STARTCHAR 1F61
ENCODING 8033
SWIDTH 540 0
DWIDTH 9 0
BBX 9 12 0 0
BITMAP
0200
0400
0200
0000
0000
1880
3080
6480
4480
8C80
9980
7F00
ENDCHAR
STARTCHAR 1F62
ENCODING 8034
SWIDTH 540 0
DWIDTH 9 0
BBX 9 13 0 0
BITMAP
0100
0500
0500
0400
0080
0000
1880
3080
6480
4480
8C80
9980
7F00
ENDCHAR
STARTCHAR 1F63
ENCODING 8035
SWIDTH 540 0
DWIDTH 9 0
BBX 9 13 0 0
BITMAP
0200
0500
0900
0500
0000
0000
1880
3080
6480
4480
8C80
9980
7F00
ENDCHAR
STARTCHAR 1F64
ENCODING 8036
SWIDTH 540 0
DWIDTH 9 0
BBX 9 13 0 0
BITMAP
0080
0480
0500
0500
0000
0000
1880
3080
6480
4480
8C80
9980
7F00
ENDCHAR
STARTCHAR 1F65
ENCODING 8037
SWIDTH 540 0
DWIDTH 9 0
BBX 9 13 0 0
BITMAP
0080
0500
0500
0500
0000
0000
1880
3080
6480
4480
8C80
9980
7F00
ENDCHAR
STARTCHAR 1F66
ENCODING 8038
SWIDTH 540 0
DWIDTH 9 0
BBX 9 14 0 0
BITMAP
0780
0000
0200
0200
0200
0000
0000
1880
3080
6480
4480
8C80
9980
7F00
ENDCHAR
STARTCHAR 1F67
ENCODING 8039
SWIDTH 540 0
DWIDTH 9 0
BBX 9 14 0 0
BITMAP
0680
0100
0200
0200
0200
0000
0000
1880
3080
6480
4480
8C80
9980
7F00
ENDCHAR
STARTCHAR 1F68
ENCODING 8040
SWIDTH 840 0
DWIDTH 14 0
BBX 13 12 1 0
BITMAP
8000
8FC0
B060
2020
6030
6030
6030
6030
2020
B068
9048
FCF8
ENDCHAR
STARTCHAR 1F69
ENCODING 8041
SWIDTH 840 0
DWIDTH 14 0
BBX 13 12 1 0
BITMAP
8000
8FC0
9020
3030
2010
2010
2010
2010
3030
1020
4848
7CF8
ENDCHAR
STARTCHAR 1F6A
ENCODING 8042
SWIDTH 1020 0
DWIDTH 17 0
BBX 16 13 1 0
BITMAP
2000
A000
51F8
920C
0404
0C06
0C06
0C06
0406
0404
120D
1309
1F9F
ENDCHAR
STARTCHAR 1F6B
ENCODING 8043
SWIDTH 1020 0
DWIDTH 17 0
BBX 16 13 1 0
BITMAP
2000
A000
A3F0
9408
040C
0C04
0C06
0C06
0C04
0404
1609
1211
1F3F
ENDCHAR
STARTCHAR 1F6C
ENCODING 8044
SWIDTH 960 0
DWIDTH 16 0
BBX 15 13 1 0
BITMAP
1000
9000
63F0
A418
080C
080C
1804
1804
080C
0C08
240A
2212
3F3E
ENDCHAR
STARTCHAR 1F6D
ENCODING 8045
SWIDTH 960 0
DWIDTH 16 0
BBX 15 13 1 0
BITMAP
1000
D000
A3F0
2418
0808
180C
180C
180C
080C
0808
241A
2612
3F3E
ENDCHAR
STARTCHAR 1F6E
ENCODING 8046
SWIDTH 900 0
DWIDTH 15 0
BBX 14 14 1 0
BITMAP
F000
0000
4000
4FE0
5830
1010
3018
3018
3018
3018
1010
5824
4824
7C7C
ENDCHAR
STARTCHAR 1F6F
ENCODING 8047
SWIDTH 960 0
DWIDTH 16 0
BBX 15 14 0 0
BITMAP
6000
9000
3000
23F0
0408
0C0C
0804
0806
0804
0C04
0C0C
1408
1212
1F3E
ENDCHAR
STARTCHAR 1F70
ENCODING 8048
SWIDTH 540 0
DWIDTH 9 0
BBX 10 13 0 0
BITMAP
1000
1000
0800
0800
0000
0000
1B00
2700
6600
4600
8C40
9C80
7380
ENDCHAR
STARTCHAR 1F71
ENCODING 8049
SWIDTH 540 0
DWIDTH 9 0
BBX 10 13 0 0
BITMAP
0400
0400
0800
0800
0000
0000
1B00
2700
6600
4600
8C40
9C80
7380
ENDCHAR
STARTCHAR 1F72
ENCODING 8050
SWIDTH 300 0
DWIDTH 5 0
BBX 5 13 0 0
BITMAP
20
20
20
10
00
00
38
40
80
70
80
98
70
ENDCHAR
STARTCHAR 1F73
ENCODING 8051
SWIDTH 300 0
DWIDTH 5 0
BBX 5 13 0 0
BITMAP
10
10
20
20
00
00
38
40
80
70
80
98
70
ENDCHAR
STARTCHAR 1F74
ENCODING 8052
SWIDTH 360 0
DWIDTH 6 0
BBX 5 14 1 -1
BITMAP
20
20
20
10
00
00
D8
78
A8
48
C8
88
88
08
ENDCHAR
STARTCHAR 1F75
ENCODING 8053
SWIDTH 360 0
DWIDTH 6 0
BBX 5 14 1 -1
BITMAP
08
10
10
10
00
00
D8
78
A8
48
C8
88
88
08
ENDCHAR
STARTCHAR 1F76
ENCODING 8054
SWIDTH 180 0
DWIDTH 3 0
BBX 3 13 0 0
BITMAP
40
20
20
20
00
00
20
20
40
40
40
E0
C0
ENDCHAR
STARTCHAR 1F77
ENCODING 8055
SWIDTH 180 0
DWIDTH 3 0
BBX 4 13 0 0
BITMAP
10
10
20
20
00
00
20
20
40
40
40
E0
C0
ENDCHAR
STARTCHAR 1F78
ENCODING 8056
SWIDTH 360 0
DWIDTH 6 0
BBX 6 13 0 0
BITMAP
10
10
10
08
00
00
18
38
64
44
4C
88
70
ENDCHAR
STARTCHAR 1F79
ENCODING 8057
SWIDTH 360 0
DWIDTH 6 0
BBX 6 13 0 0
BITMAP
08
08
08
10
00
00
18
38
64
44
4C
88
70
ENDCHAR
STARTCHAR 1F7A
ENCODING 8058
SWIDTH 360 0
DWIDTH 6 0
BBX 6 13 0 0
BITMAP
10
10
10
00
08
00
60
C4
44
44
44
48
78
ENDCHAR
STARTCHAR 1F7B
ENCODING 8059
SWIDTH 360 0
DWIDTH 6 0
BBX 6 13 0 0
BITMAP
08
08
08
00
00
00
60
C4
44
44
44
48
78
ENDCHAR
STARTCHAR 1F7C
ENCODING 8060
SWIDTH 540 0
DWIDTH 9 0
BBX 9 13 0 0
BITMAP
0400
0400
0400
0200
0000
0000
1880
3080
6480
4480
8C80
9980
7F00
ENDCHAR
STARTCHAR 1F7D
ENCODING 8061
SWIDTH 540 0
DWIDTH 9 0
BBX 9 13 0 0
BITMAP
0100
0200
0200
0200
0000
0000
1880
3080
6480
4480
8C80
9980
7F00
ENDCHAR
STARTCHAR 1F80
ENCODING 8064
SWIDTH 540 0
DWIDTH 9 0
BBX 10 17 0 -5
BITMAP
0800
0400
0800
0000
0000
1B00
2700
6600
4600
8C40
9C80
7380
0000
0000
2000
4000
2000
ENDCHAR
STARTCHAR 1F81
ENCODING 8065
SWIDTH 540 0
DWIDTH 9 0
BBX 10 17 0 -5
BITMAP
0800
1000
0800
0000
0000
1B00
2700
6600
4600
8C40
9C80
7380
0000
0000
2000
4000
2000
ENDCHAR
STARTCHAR 1F82
ENCODING 8066
SWIDTH 540 0
DWIDTH 9 0
BBX 10 18 0 -5
BITMAP
0400
1A00
0A00
0200
0000
0000
1B00
2700
6600
4600
8C40
9C80
7380
0000
0000
2000
4000
2000
ENDCHAR
STARTCHAR 1F83
ENCODING 8067
SWIDTH 540 0
DWIDTH 9 0
BBX 10 18 0 -5
BITMAP
0200
0A00
1200
0800
0000
0000
1B00
2700
6600
4600
8C40
9C80
7380
0000
0000
2000
4000
2000
ENDCHAR
STARTCHAR 1F84
ENCODING 8068
SWIDTH 540 0
DWIDTH 9 0
BBX 10 18 0 -5
BITMAP
0100
0A00
0A00
0A00
0000
0000
1B00
2700
6600
4600
8C40
9C80
7380
0000
0000
2000
4000
2000
ENDCHAR
STARTCHAR 1F85
ENCODING 8069
SWIDTH 540 0
DWIDTH 9 0
BBX 10 18 0 -5
BITMAP
0200
0A00
1200
0800
0000
0000
1B00
2700
6600
4600
8C40
9C80
7380
0000
0000
2000
4000
2000
ENDCHAR
STARTCHAR 1F86
ENCODING 8070
SWIDTH 540 0
DWIDTH 9 0
BBX 10 19 0 -5
BITMAP
1E00
0000
0C00
0400
0000
0000
0000
1B00
2700
6600
4600
8C40
9C80
7380
0000
0000
2000
4000
2000
ENDCHAR
STARTCHAR 1F87
ENCODING 8071
SWIDTH 540 0
DWIDTH 9 0
BBX 10 19 0 -5
BITMAP
1C00
0000
0C00
0800
0000
0000
0000
1B00
2700
6600
4600
8C40
9C80
7380
0000
0000
2000
4000
2000
ENDCHAR
STARTCHAR 1F88
ENCODING 8072
SWIDTH 840 0
DWIDTH 14 0
BBX 14 12 0 0
BITMAP
6000
2600
0A00
0A00
0B00
1100
1100
1F80
2080
2084
40C8
F1EC
ENDCHAR
STARTCHAR 1F89
ENCODING 8073
SWIDTH 840 0
DWIDTH 14 0
BBX 13 12 0 0
BITMAP
6000
4600
0A00
0A00
0B00
1100
1100
1F80
2080
2080
40C8
F1E8
ENDCHAR
STARTCHAR 1F8A
ENCODING 8074
SWIDTH 900 0
DWIDTH 15 0
BBX 14 13 0 0
BITMAP
1000
D000
5300
4500
0500
0580
0880
0880
0FC0
1040
1040
2064
78F4
ENDCHAR
STARTCHAR 1F8B
ENCODING 8075
SWIDTH 900 0
DWIDTH 15 0
BBX 14 13 0 0
BITMAP
1000
5000
9300
4500
0500
0580
0880
0880
0FC0
1040
1040
2064
78F4
ENDCHAR
STARTCHAR 1F8C
ENCODING 8076
SWIDTH 900 0
DWIDTH 15 0
BBX 13 13 1 0
BITMAP
1000
A000
A600
AA00
0A00
0B00
1100
1100
1F80
2080
2080
40C8
F1E8
ENDCHAR
STARTCHAR 1F8D
ENCODING 8077
SWIDTH 900 0
DWIDTH 15 0
BBX 14 13 0 0
BITMAP
0800
5000
9300
5500
0500
0580
0880
0880
0FC0
1040
1040
2064
78F4
ENDCHAR
STARTCHAR 1F8E
ENCODING 8078
SWIDTH 900 0
DWIDTH 15 0
BBX 13 14 1 0
BITMAP
F000
0000
4000
2C00
4E00
0A00
1200
1300
1100
3F00
2180
4088
4088
E1E8
ENDCHAR
STARTCHAR 1F8F
ENCODING 8079
SWIDTH 900 0
DWIDTH 15 0
BBX 13 14 1 0
BITMAP
C000
2000
6000
4C00
4E00
0A00
1200
1300
1100
3F00
2180
4088
4088
E1E8
ENDCHAR
STARTCHAR 1F90
ENCODING 8080
SWIDTH 360 0
DWIDTH 6 0
BBX 5 17 1 -5
BITMAP
30
10
00
00
00
D8
78
A8
48
C8
88
88
08
00
40
40
40
ENDCHAR
STARTCHAR 1F91
ENCODING 8081
SWIDTH 360 0
DWIDTH 6 0
BBX 5 17 1 -5
BITMAP
30
20
10
00
00
D8
78
A8
48
C8
88
88
08
00
40
40
40
ENDCHAR
STARTCHAR 1F92
ENCODING 8082
SWIDTH 360 0
DWIDTH 6 0
BBX 5 18 1 -5
BITMAP
08
28
28
20
00
00
D8
78
A8
48
C8
88
88
08
00
40
40
40
ENDCHAR
STARTCHAR 1F93
ENCODING 8083
SWIDTH 360 0
DWIDTH 6 0
BBX 5 17 1 -5
BITMAP
28
48
28
00
00
D8
78
A8
48
C8
88
88
08
00
40
40
40
ENDCHAR
STARTCHAR 1F94
ENCODING 8084
SWIDTH 360 0
DWIDTH 6 0
BBX 6 18 1 -5
BITMAP
04
24
18
28
00
00
D8
78
A8
48
C8
88
88
08
00
40
40
40
ENDCHAR
STARTCHAR 1F95
ENCODING 8085
SWIDTH 360 0
DWIDTH 6 0
BBX 6 18 1 -5
BITMAP
04
34
28
08
00
00
D8
78
A8
48
C8
88
88
08
00
40
40
40
ENDCHAR
STARTCHAR 1F96
ENCODING 8086
SWIDTH 360 0
DWIDTH 6 0
BBX 6 19 1 -5
BITMAP
3C
00
18
08
00
00
00
D8
78
A8
48
C8
88
88
08
00
40
40
40
ENDCHAR
STARTCHAR 1F97
ENCODING 8087
SWIDTH 360 0
DWIDTH 6 0
BBX 6 19 1 -5
BITMAP
38
04
18
10
00
00
00
D8
78
A8
48
C8
88
88
08
00
40
40
40
ENDCHAR
STARTCHAR 1F98
ENCODING 8088
SWIDTH 1080 0
DWIDTH 18 0
BBX 16 12 1 0
BITMAP
8000
9C1C
8808
0808
0808
0808
0FF8
0808
0808
0808
0809
3E3D
ENDCHAR
STARTCHAR 1F99
ENCODING 8089
SWIDTH 1080 0
DWIDTH 18 0
BBX 16 11 1 0
BITMAP
9C1C
8808
0808
0808
0808
0FF8
0808
0808
0808
0809
3E3F
ENDCHAR
STARTCHAR 1F9A
ENCODING 8090
SWIDTH 1200 0
DWIDTH 20 0
BBX 19 13 1 0
BITMAP
200000
A00000
A70700
820200
120200
020200
020200
03FE00
020200
020200
020220
020240
0F8FC0
ENDCHAR
STARTCHAR 1F9B
ENCODING 8091
SWIDTH 1200 0
DWIDTH 20 0
BBX 19 13 1 0
BITMAP
200000
A00000
A70700
820200
120200
020200
020200
03FE00
020200
020220
020240
020240
0F8FC0
ENDCHAR
STARTCHAR 1F9C
ENCODING 8092
SWIDTH 1200 0
DWIDTH 20 0
BBX 19 13 1 0
BITMAP
100000
900000
A70700
A20200
020200
020200
020200
03FE00
020200
020200
020220
020240
078FA0
ENDCHAR
STARTCHAR 1F9D
ENCODING 8093
SWIDTH 1200 0
DWIDTH 20 0
BBX 19 13 1 0
BITMAP
100000
A00000
A70700
A20200
020200
020200
020200
03FE00
020200
020200
020220
020240
0F8FE0
ENDCHAR
STARTCHAR 1F9E
ENCODING 8094
SWIDTH 1200 0
DWIDTH 20 0
BBX 18 14 1 0
BITMAP
F00000
000000
400000
460E00
460400
060400
060400
060400
07FC00
060400
060400
060440
060440
0F0F40
ENDCHAR
STARTCHAR 1F9F
ENCODING 8095
SWIDTH 1200 0
DWIDTH 20 0
BBX 18 14 1 0
BITMAP
C00000
200000
600000
460E00
460400
060400
060400
060400
07FC00
060400
060400
060440
060440
0F0F40
ENDCHAR
STARTCHAR 1FA0
ENCODING 8096
SWIDTH 540 0
DWIDTH 9 0
BBX 9 17 0 -5
BITMAP
0200
0200
0200
0000
0000
1880
3080
6480
4480
8C80
9980
7F00
0000
1000
2000
2000
2000
ENDCHAR
STARTCHAR 1FA1
ENCODING 8097
SWIDTH 540 0
DWIDTH 9 0
BBX 9 17 0 -5
BITMAP
0200
0400
0200
0000
0000
1880
3080
6480
4480
8C80
9980
7F00
0000
1000
2000
2000
2000
ENDCHAR
STARTCHAR 1FA2
ENCODING 8098
SWIDTH 540 0
DWIDTH 9 0
BBX 9 18 0 -5
BITMAP
0100
0500
0500
0400
0080
0000
1880
3080
6480
4480
8C80
9980
7F00
0000
1000
2000
2000
2000
ENDCHAR
STARTCHAR 1FA3
ENCODING 8099
SWIDTH 540 0
DWIDTH 9 0
BBX 9 18 0 -5
BITMAP
0200
0500
0900
0500
0000
0000
1880
3080
6480
4480
8C80
9980
7F00
0000
1000
2000
2000
2000
ENDCHAR
STARTCHAR 1FA4
ENCODING 8100
SWIDTH 540 0
DWIDTH 9 0
BBX 9 18 0 -5
BITMAP
0080
0480
0500
0500
0000
0000
1880
3080
6480
4480
8C80
9980
7F00
0000
1000
2000
2000
2000
ENDCHAR
STARTCHAR 1FA5
ENCODING 8101
SWIDTH 540 0
DWIDTH 9 0
BBX 9 18 0 -5
BITMAP
0080
0500
0500
0500
0000
0000
1880
3080
6480
4480
8C80
9980
7F00
0000
1000
2000
2000
2000
ENDCHAR
STARTCHAR 1FA6
ENCODING 8102
SWIDTH 540 0
DWIDTH 9 0
BBX 9 19 0 -5
BITMAP
0780
0000
0200
0200
0200
0000
0000
1880
3080
6480
4480
8C80
9980
7F00
0000
1000
2000
2000
2000
ENDCHAR
STARTCHAR 1FA7
ENCODING 8103
SWIDTH 540 0
DWIDTH 9 0
BBX 9 19 0 -5
BITMAP
0680
0100
0200
0200
0200
0000
0000
1880
3080
6480
4480
8C80
9980
7F00
0000
1000
2000
2000
2000
ENDCHAR
STARTCHAR 1FA8
ENCODING 8104
SWIDTH 1020 0
DWIDTH 17 0
BBX 15 12 1 0
BITMAP
8000
8FC0
B060
2020
6030
6030
6030
6030
2020
B06A
904C
FCFA
ENDCHAR
STARTCHAR 1FA9
ENCODING 8105
SWIDTH 1020 0
DWIDTH 17 0
BBX 15 12 1 0
BITMAP
8000
8FC0
9020
3030
2010
2010
2010
2010
3030
1020
484A
7CFA
ENDCHAR
STARTCHAR 1FAA
ENCODING 8106
SWIDTH 1200 0
DWIDTH 20 0
BBX 18 13 1 0
BITMAP
200000
A00000
51F800
920C00
040400
0C0600
0C0600
0C0600
040600
040400
120D40
130940
1F9F40
ENDCHAR
STARTCHAR 1FAB
ENCODING 8107
SWIDTH 1140 0
DWIDTH 19 0
BBX 18 13 1 0
BITMAP
200000
A00000
A3F000
940800
040C00
0C0400
0C0600
0C0600
0C0400
040400
160940
121180
1F3F40
ENDCHAR
STARTCHAR 1FAC
ENCODING 8108
SWIDTH 1140 0
DWIDTH 19 0
BBX 17 13 1 0
BITMAP
100000
900000
63F000
A41800
080C00
080C00
180400
180400
080C00
0C0800
240A00
221280
3F3E80
ENDCHAR
STARTCHAR 1FAD
ENCODING 8109
SWIDTH 1140 0
DWIDTH 19 0
BBX 17 13 1 0
BITMAP
100000
D00000
A3F000
241800
080800
180C00
180C00
180C00
080C00
080800
241A80
261280
3F3E80
ENDCHAR
STARTCHAR 1FAE
ENCODING 8110
SWIDTH 1080 0
DWIDTH 18 0
BBX 16 14 1 0
BITMAP
F000
0000
4000
4FE0
5830
1010
3018
3018
3018
3018
1010
5825
4826
7C7D
ENDCHAR
STARTCHAR 1FAF
ENCODING 8111
SWIDTH 1080 0
DWIDTH 18 0
BBX 18 14 0 0
BITMAP
600000
900000
300000
23F000
040800
0C0C00
080400
080600
080400
0C0400
0C0C00
140840
121280
1F3E80
ENDCHAR
STARTCHAR 1FB0
ENCODING 8112
SWIDTH 540 0
DWIDTH 9 0
BBX 10 11 0 0
BITMAP
0200
1200
0C00
0000
1B00
2700
6600
4600
8C40
9C80
7380
ENDCHAR
STARTCHAR 1FB1
ENCODING 8113
SWIDTH 540 0
DWIDTH 9 0
BBX 10 10 0 0
BITMAP
1E00
0000
0000
1B00
2700
6600
4600
8C40
9C80
7380
ENDCHAR
STARTCHAR 1FB2
ENCODING 8114
SWIDTH 540 0
DWIDTH 9 0
BBX 10 18 0 -5
BITMAP
1000
1000
0800
0800
0000
0000
1B00
2700
6600
4600
8C40
9C80
7380
0000
0000
1000
2000
1000
ENDCHAR
STARTCHAR 1FB3
ENCODING 8115
SWIDTH 540 0
DWIDTH 9 0
BBX 10 12 0 -5
BITMAP
1B00
2700
6600
4600
8C40
9C80
7380
0000
0000
1000
2000
1000
ENDCHAR
STARTCHAR 1FB4
ENCODING 8116
SWIDTH 540 0
DWIDTH 9 0
BBX 10 18 0 -5
BITMAP
0400
0400
0800
0800
0000
0000
1B00
2700
6600
4600
8C40
9C80
7380
0000
0000
1000
2000
1000
ENDCHAR
STARTCHAR 1FB6
ENCODING 8118
SWIDTH 540 0
DWIDTH 9 0
BBX 10 10 0 0
BITMAP
0F00
0000
0000
1B00
2700
6600
4600
8C40
9C80
7380
ENDCHAR
STARTCHAR 1FB7
ENCODING 8119
SWIDTH 540 0
DWIDTH 9 0
BBX 10 15 0 -5
BITMAP
0F00
0000
0000
1B00
2700
6600
4600
8C40
9C80
7380
0000
0000
1000
2000
1000
ENDCHAR
STARTCHAR 1FB8
ENCODING 8120
SWIDTH 660 0
DWIDTH 11 0
BBX 11 15 0 0
BITMAP
0100
0F00
0000
0000
0600
0A00
0A00
0B00
1100
1100
1F80
2080
2080
40C0
F1E0
ENDCHAR
STARTCHAR 1FB9
ENCODING 8121
SWIDTH 660 0
DWIDTH 11 0
BBX 11 14 0 0
BITMAP
1F00
0000
0000
0600
0A00
0A00
0B00
1100
1100
1F80
2080
2080
40C0
F1E0
ENDCHAR
STARTCHAR 1FBA
ENCODING 8122
SWIDTH 660 0
DWIDTH 11 0
BBX 11 13 0 0
BITMAP
4000
4000
4600
2A00
0A00
0B00
1100
1100
1F80
2080
2080
40C0
F1E0
ENDCHAR
STARTCHAR 1FBB
ENCODING 8123
SWIDTH 660 0
DWIDTH 11 0
BBX 11 13 0 0
BITMAP
2000
2000
4600
4A00
0A00
0B00
1100
1100
1F80
2080
2080
40C0
F1E0
ENDCHAR
STARTCHAR 1FBC
ENCODING 8124
SWIDTH 780 0
DWIDTH 13 0
BBX 13 11 0 0
BITMAP
0600
0A00
0A00
0B00
1100
1100
1F80
2080
2080
40C8
F1E8
ENDCHAR
STARTCHAR 1FBE
ENCODING 8126
SWIDTH 240 0
DWIDTH 4 0
BBX 2 3 1 0
BITMAP
40
80
C0
ENDCHAR
STARTCHAR 1FBF
ENCODING 8127
SWIDTH 240 0
DWIDTH 4 0
BBX 2 3 1 9
BITMAP
C0
40
40
ENDCHAR
STARTCHAR 1FC0
ENCODING 8128
SWIDTH 240 0
DWIDTH 4 0
BBX 5 1 0 9
BITMAP
F8
ENDCHAR
STARTCHAR 1FC1
ENCODING 8129
SWIDTH 360 0
DWIDTH 6 0
BBX 5 4 1 9
BITMAP
F8
00
00
D8
ENDCHAR
STARTCHAR 1FC2
ENCODING 8130
SWIDTH 360 0
DWIDTH 6 0
BBX 5 18 1 -5
BITMAP
20
20
20
10
00
00
D8
78
A8
48
C8
88
88
08
00
40
40
40
ENDCHAR
STARTCHAR 1FC3
ENCODING 8131
SWIDTH 360 0
DWIDTH 6 0
BBX 5 12 1 -5
BITMAP
D8
78
A8
48
C8
88
88
08
00
40
40
40
ENDCHAR
STARTCHAR 1FC4
ENCODING 8132
SWIDTH 360 0
DWIDTH 6 0
BBX 5 18 1 -5
BITMAP
08
10
10
10
00
00
D8
78
A8
48
C8
88
88
08
00
40
40
40
ENDCHAR
STARTCHAR 1FC6
ENCODING 8134
SWIDTH 360 0
DWIDTH 6 0
BBX 5 11 1 -1
BITMAP
78
00
00
D8
78
A8
48
C8
88
88
08
ENDCHAR
STARTCHAR 1FC7
ENCODING 8135
SWIDTH 360 0
DWIDTH 6 0
BBX 5 15 1 -5
BITMAP
78
00
00
D8
78
A8
48
C8
88
88
08
00
40
40
40
ENDCHAR
STARTCHAR 1FC8
ENCODING 8136
SWIDTH 780 0
DWIDTH 13 0
BBX 11 13 1 0
BITMAP
8000
8000
9FE0
0820
4820
0800
0880
0F80
0880
0880
0800
0820
3FE0
ENDCHAR
STARTCHAR 1FC9
ENCODING 8137
SWIDTH 780 0
DWIDTH 13 0
BBX 12 13 1 0
BITMAP
4000
8000
8FE0
8C20
0C20
0C00
0C00
0F80
0C80
0C00
0C10
0C10
1FF0
ENDCHAR
STARTCHAR 1FCA
ENCODING 8138
SWIDTH 960 0
DWIDTH 16 0
BBX 15 13 1 0
BITMAP
8000
8000
9C1C
4808
0808
0808
0808
0FF8
0808
0808
0808
0808
1E3E
ENDCHAR
STARTCHAR 1FCB
ENCODING 8139
SWIDTH 960 0
DWIDTH 16 0
BBX 15 13 1 0
BITMAP
4000
8000
9C1C
8808
0808
0808
0808
0FF8
0808
0808
0808
0808
3E3E
ENDCHAR
STARTCHAR 1FCC
ENCODING 8140
SWIDTH 900 0
DWIDTH 15 0
BBX 14 11 1 0
BITMAP
60E0
6040
6040
6040
6040
7FC0
6040
6040
6044
6048
F0F4
ENDCHAR
STARTCHAR 1FCD
ENCODING 8141
SWIDTH 360 0
DWIDTH 6 0
BBX 4 4 1 9
BITMAP
10
D0
50
40
ENDCHAR
STARTCHAR 1FCE
ENCODING 8142
SWIDTH 360 0
DWIDTH 6 0
BBX 5 4 1 9
BITMAP
08
D0
50
50
ENDCHAR
STARTCHAR 1FCF
ENCODING 8143
SWIDTH 240 0
DWIDTH 4 0
BBX 5 5 0 9
BITMAP
F8
00
60
20
20
ENDCHAR
STARTCHAR 1FD0
ENCODING 8144
SWIDTH 180 0
DWIDTH 3 0
BBX 5 11 0 0
BITMAP
08
48
30
00
20
20
40
40
40
E0
C0
ENDCHAR
STARTCHAR 1FD1
ENCODING 8145
SWIDTH 180 0
DWIDTH 3 0
BBX 5 10 0 0
BITMAP
78
00
00
20
20
40
40
40
E0
C0
ENDCHAR
STARTCHAR 1FD2
ENCODING 8146
SWIDTH 180 0
DWIDTH 3 0
BBX 5 13 0 0
BITMAP
20
20
20
C8
00
00
20
20
40
40
40
E0
C0
ENDCHAR
STARTCHAR 1FD3
ENCODING 8147
SWIDTH 180 0
DWIDTH 3 0
BBX 5 13 0 0
BITMAP
10
10
10
48
00
00
20
20
40
40
40
E0
C0
ENDCHAR
STARTCHAR 1FD6
ENCODING 8150
SWIDTH 180 0
DWIDTH 3 0
BBX 5 10 0 0
BITMAP
78
00
00
20
20
40
40
40
E0
C0
ENDCHAR
STARTCHAR 1FD7
ENCODING 8151
SWIDTH 180 0
DWIDTH 3 0
BBX 5 13 0 0
BITMAP
78
00
00
C8
00
00
20
20
40
40
40
E0
C0
ENDCHAR
STARTCHAR 1FD8
ENCODING 8152
SWIDTH 300 0
DWIDTH 5 0
BBX 4 15 1 0
BITMAP
10
B0
40
00
60
60
60
60
60
60
60
60
60
60
F0
ENDCHAR
STARTCHAR 1FD9
ENCODING 8153
SWIDTH 300 0
DWIDTH 5 0
BBX 5 14 0 0
BITMAP
F8
00
00
30
30
30
30
30
30
30
30
30
30
78
ENDCHAR
STARTCHAR 1FDA
ENCODING 8154
SWIDTH 480 0
DWIDTH 8 0
BBX 8 13 0 0
BITMAP
80
40
4E
44
04
04
04
04
04
04
04
04
1F
ENDCHAR
STARTCHAR 1FDB
ENCODING 8155
SWIDTH 480 0
DWIDTH 8 0
BBX 7 13 1 0
BITMAP
80
80
9C
08
08
08
08
08
08
08
08
08
3E
ENDCHAR
STARTCHAR 1FDD
ENCODING 8157
SWIDTH 360 0
DWIDTH 6 0
BBX 4 4 1 9
BITMAP
10
50
90
40
ENDCHAR
STARTCHAR 1FDE
ENCODING 8158
SWIDTH 240 0
DWIDTH 4 0
BBX 5 4 1 9
BITMAP
08
50
90
50
ENDCHAR
STARTCHAR 1FDF
ENCODING 8159
SWIDTH 240 0
DWIDTH 4 0
BBX 4 5 1 9
BITMAP
D0
20
40
80
40
ENDCHAR
STARTCHAR 1FE0
ENCODING 8160
SWIDTH 360 0
DWIDTH 6 0
BBX 6 11 0 0
BITMAP
04
24
18
00
60
C4
44
44
44
48
78
ENDCHAR
STARTCHAR 1FE1
ENCODING 8161
SWIDTH 360 0
DWIDTH 6 0
BBX 6 10 0 0
BITMAP
3C
00
00
60
C4
44
44
44
48
78
ENDCHAR
STARTCHAR 1FE2
ENCODING 8162
SWIDTH 360 0
DWIDTH 6 0
BBX 6 13 0 0
BITMAP
10
10
10
6C
00
00
60
C4
44
44
44
48
78
ENDCHAR
STARTCHAR 1FE3
ENCODING 8163
SWIDTH 360 0
DWIDTH 6 0
BBX 6 13 0 0
BITMAP
08
08
00
64
00
00
60
C4
44
44
44
48
78
ENDCHAR
STARTCHAR 1FE4
ENCODING 8164
SWIDTH 360 0
DWIDTH 6 0
BBX 6 17 0 -5
BITMAP
08
08
08
00
00
1C
24
44
48
F8
C0
80
80
60
30
10
70
ENDCHAR
STARTCHAR 1FE5
ENCODING 8165
SWIDTH 360 0
DWIDTH 6 0
BBX 6 17 0 -5
BITMAP
08
10
08
00
00
1C
24
44
48
F8
C0
80
80
60
30
10
70
ENDCHAR
STARTCHAR 1FE6
ENCODING 8166
SWIDTH 360 0
DWIDTH 6 0
BBX 6 10 0 0
BITMAP
3C
00
00
60
C4
44
44
44
48
78
ENDCHAR
STARTCHAR 1FE7
ENCODING 8167
SWIDTH 360 0
DWIDTH 6 0
BBX 6 13 0 0
BITMAP
3C
00
00
64
00
00
60
C4
44
44
44
48
78
ENDCHAR
STARTCHAR 1FE8
ENCODING 8168
SWIDTH 600 0
DWIDTH 10 0
BBX 9 15 1 0
BITMAP
2200
3C00
0000
0000
F780
1800
0800
0800
0800
0800
0800
0800
0800
0800
3E00
ENDCHAR
STARTCHAR 1FE9
ENCODING 8169
SWIDTH 600 0
DWIDTH 10 0
BBX 9 14 1 0
BITMAP
3E00
0000
0000
F780
1800
0800
0800
0800
0800
0800
0800
0800
0800
3E00
ENDCHAR
STARTCHAR 1FEA
ENCODING 8170
SWIDTH 780 0
DWIDTH 13 0
BBX 12 13 1 0
BITMAP
8000
8000
9CF0
0300
0100
0100
0100
0100
0100
0100
0100
0100
0780
ENDCHAR
STARTCHAR 1FEB
ENCODING 8171
SWIDTH 780 0
DWIDTH 13 0
BBX 11 13 1 0
BITMAP
4000
8000
BCE0
8300
0300
0300
0300
0300
0300
0300
0300
0300
0780
ENDCHAR
STARTCHAR 1FEC
ENCODING 8172
SWIDTH 720 0
DWIDTH 12 0
BBX 11 12 1 0
BITMAP
8000
9FC0
8860
0860
0860
0840
0D80
0A00
0800
0800
0800
3E00
ENDCHAR
STARTCHAR 1FED
ENCODING 8173
SWIDTH 360 0
DWIDTH 6 0
BBX 5 4 1 9
BITMAP
40
40
20
D8
ENDCHAR
STARTCHAR 1FEE
ENCODING 8174
SWIDTH 360 0
DWIDTH 6 0
BBX 5 4 1 9
BITMAP
10
20
20
D8
ENDCHAR
STARTCHAR 1FEF
ENCODING 8175
SWIDTH 240 0
DWIDTH 4 0
BBX 2 4 1 9
BITMAP
80
80
40
40
ENDCHAR
STARTCHAR 1FF2
ENCODING 8178
SWIDTH 540 0
DWIDTH 9 0
BBX 9 18 0 -5
BITMAP
0400
0400
0400
0200
0000
0000
1880
3080
6480
4480
8C80
9980
7F00
0000
0000
1000
1000
1000
ENDCHAR
STARTCHAR 1FF3
ENCODING 8179
SWIDTH 540 0
DWIDTH 9 0
BBX 9 12 0 -5
BITMAP
1880
3080
6480
4480
8C80
9980
7F00
0000
0000
1000
1000
1000
ENDCHAR
STARTCHAR 1FF4
ENCODING 8180
SWIDTH 540 0
DWIDTH 9 0
BBX 9 18 0 -5
BITMAP
0100
0200
0200
0200
0000
0000
1880
3080
6480
4480
8C80
9980
7F00
0000
0000
1000
1000
1000
ENDCHAR
STARTCHAR 1FF6
ENCODING 8182
SWIDTH 540 0
DWIDTH 9 0
BBX 9 10 0 0
BITMAP
0F80
0000
0000
1880
3080
6480
4480
8C80
9980
7F00
ENDCHAR
STARTCHAR 1FF7
ENCODING 8183
SWIDTH 540 0
DWIDTH 9 0
BBX 9 15 0 -5
BITMAP
0F80
0000
0000
1880
3080
6480
4480
8C80
9980
7F00
0000
0000
1000
1000
1000
ENDCHAR
STARTCHAR 1FF8
ENCODING 8184
SWIDTH 840 0
DWIDTH 14 0
BBX 13 14 1 -1
BITMAP
8000
8000
8FC0
1020
1030
3010
2010
2018
3010
3010
1030
1820
0EC0
0100
ENDCHAR
STARTCHAR 1FF9
ENCODING 8185
SWIDTH 780 0
DWIDTH 13 0
BBX 11 14 1 -1
BITMAP
8000
8000
9F80
2040
6060
4020
4020
4020
4020
6020
6060
3040
1D80
0200
ENDCHAR
STARTCHAR 1FFA
ENCODING 8186
SWIDTH 900 0
DWIDTH 15 0
BBX 14 13 1 0
BITMAP
8000
8000
8FC0
1830
1010
3018
3018
3018
3010
1010
5824
4844
7CFC
ENDCHAR
STARTCHAR 1FFB
ENCODING 8187
SWIDTH 780 0
DWIDTH 13 0
BBX 12 13 1 0
BITMAP
8000
8000
9F80
2040
6060
4020
4020
4020
4020
6060
2040
9090
F9F0
ENDCHAR
STARTCHAR 1FFC
ENCODING 8188
SWIDTH 900 0
DWIDTH 15 0
BBX 14 11 1 0
BITMAP
1F80
20C0
4060
4060
4020
4020
4060
6040
2054
9098
F9F4
ENDCHAR
STARTCHAR 1FFD
ENCODING 8189
SWIDTH 240 0
DWIDTH 4 0
BBX 2 4 2 9
BITMAP
40
40
80
80
ENDCHAR
STARTCHAR 1FFE
ENCODING 8190
SWIDTH 240 0
DWIDTH 4 0
BBX 2 3 1 9
BITMAP
40
80
40
ENDCHAR
STARTCHAR 2000
ENCODING 8192
SWIDTH 480 0
DWIDTH 8 0
BBX 1 1 0 0
BITMAP
00
ENDCHAR
STARTCHAR 2001
ENCODING 8193
SWIDTH 1020 0
DWIDTH 17 0
BBX 1 1 0 0
BITMAP
00
ENDCHAR
STARTCHAR 2002
ENCODING 8194
SWIDTH 480 0
DWIDTH 8 0
BBX 1 1 0 0
BITMAP
00
ENDCHAR
STARTCHAR 2003
ENCODING 8195
SWIDTH 1020 0
DWIDTH 17 0
BBX 1 1 0 0
BITMAP
00
ENDCHAR
STARTCHAR 2004
ENCODING 8196
SWIDTH 300 0
DWIDTH 5 0
BBX 1 1 0 0
BITMAP
00
ENDCHAR
STARTCHAR 2005
ENCODING 8197
SWIDTH 240 0
DWIDTH 4 0
BBX 1 1 0 0
BITMAP
00
ENDCHAR
STARTCHAR 2006
ENCODING 8198
SWIDTH 120 0
DWIDTH 2 0
BBX 1 1 0 0
BITMAP
00
ENDCHAR
STARTCHAR 2007
ENCODING 8199
SWIDTH 420 0
DWIDTH 7 0
BBX 1 1 0 0
BITMAP
00
ENDCHAR
STARTCHAR 2008
ENCODING 8200
SWIDTH 240 0
DWIDTH 4 0
BBX 1 1 0 0
BITMAP
00
ENDCHAR
STARTCHAR 2009
ENCODING 8201
SWIDTH 60 0
DWIDTH 1 0
BBX 1 1 0 0
BITMAP
00
ENDCHAR
STARTCHAR 200A
ENCODING 8202
SWIDTH 0 0
DWIDTH 0 0
BBX 1 1 0 0
BITMAP
00
ENDCHAR
STARTCHAR 200B
ENCODING 8203
SWIDTH 0 0
DWIDTH 0 0
BBX 1 1 0 0
BITMAP
00
ENDCHAR
STARTCHAR 200C
ENCODING 8204
SWIDTH 0 0
DWIDTH 0 0
BBX 1 1 0 0
BITMAP
00
ENDCHAR
STARTCHAR 200D
ENCODING 8205
SWIDTH 0 0
DWIDTH 0 0
BBX 1 1 0 0
BITMAP
00
ENDCHAR
STARTCHAR 2010
ENCODING 8208
SWIDTH 360 0
DWIDTH 6 0
BBX 5 1 1 4
BITMAP
F8
ENDCHAR
STARTCHAR 2011
ENCODING 8209
SWIDTH 360 0
DWIDTH 6 0
BBX 5 1 1 4
BITMAP
F8
ENDCHAR
STARTCHAR 2012
ENCODING 8210
SWIDTH 480 0
DWIDTH 8 0
BBX 8 1 0 4
BITMAP
FF
ENDCHAR
STARTCHAR 2013
ENCODING 8211
SWIDTH 480 0
DWIDTH 8 0
BBX 8 1 0 4
BITMAP
FF
ENDCHAR
STARTCHAR 2014
ENCODING 8212
SWIDTH 1020 0
DWIDTH 17 0
BBX 17 1 0 4
BITMAP
FFFF80
ENDCHAR
STARTCHAR 2015
ENCODING 8213
SWIDTH 1200 0
DWIDTH 20 0
BBX 19 1 1 4
BITMAP
FFFFE0
ENDCHAR
STARTCHAR 2016
ENCODING 8214
SWIDTH 300 0
DWIDTH 5 0
BBX 3 15 1 -3
BITMAP
A0
A0
A0
A0
A0
A0
A0
A0
A0
A0
A0
A0
A0
A0
A0
ENDCHAR
STARTCHAR 2017
ENCODING 8215
SWIDTH 480 0
DWIDTH 8 0
BBX 9 3 0 -4
BITMAP
FF80
0000
FF80
ENDCHAR
STARTCHAR 2018
ENCODING 8216
SWIDTH 180 0
DWIDTH 3 0
BBX 2 4 1 8
BITMAP
80
80
80
C0
ENDCHAR
STARTCHAR 2019
ENCODING 8217
SWIDTH 180 0
DWIDTH 3 0
BBX 2 4 1 8
BITMAP
C0
40
80
80
ENDCHAR
STARTCHAR 201A
ENCODING 8218
SWIDTH 180 0
DWIDTH 3 0
BBX 3 5 0 -3
BITMAP
40
60
20
40
80
ENDCHAR
STARTCHAR 201B
ENCODING 8219
SWIDTH 180 0
DWIDTH 3 0
BBX 3 3 0 9
BITMAP
60
C0
40
ENDCHAR
STARTCHAR 201C
ENCODING 8220
SWIDTH 360 0
DWIDTH 6 0
BBX 5 4 1 8
BITMAP
90
90
90
D8
ENDCHAR
STARTCHAR 201D
ENCODING 8221
SWIDTH 360 0
DWIDTH 6 0
BBX 5 4 1 8
BITMAP
D8
48
90
90
ENDCHAR
STARTCHAR 201E
ENCODING 8222
SWIDTH 360 0
DWIDTH 6 0
BBX 6 5 0 -3
BITMAP
48
6C
24
48
90
ENDCHAR
STARTCHAR 201F
ENCODING 8223
SWIDTH 360 0
DWIDTH 6 0
BBX 6 3 0 9
BITMAP
6C
D8
48
ENDCHAR
STARTCHAR 2020
ENCODING 8224
SWIDTH 420 0
DWIDTH 7 0
BBX 8 13 0 -2
BITMAP
18
18
10
FF
10
18
18
10
10
10
10
10
10
ENDCHAR
STARTCHAR 2021
ENCODING 8225
SWIDTH 420 0
DWIDTH 7 0
BBX 8 14 0 -3
BITMAP
18
18
10
FF
10
10
18
18
10
D3
FF
18
18
18
ENDCHAR
STARTCHAR 2022
ENCODING 8226
SWIDTH 360 0
DWIDTH 6 0
BBX 5 4 1 4
BITMAP
70
F8
F8
70
ENDCHAR
STARTCHAR 2023
ENCODING 8227
SWIDTH 360 0
DWIDTH 6 0
BBX 4 4 1 4
BITMAP
C0
F0
E0
80
ENDCHAR
STARTCHAR 2024
ENCODING 8228
SWIDTH 240 0
DWIDTH 4 0
BBX 2 2 1 0
BITMAP
C0
C0
ENDCHAR
STARTCHAR 2025
ENCODING 8229
SWIDTH 480 0
DWIDTH 8 0
BBX 7 2 1 0
BITMAP
C4
C6
ENDCHAR
STARTCHAR 2026
ENCODING 8230
SWIDTH 780 0
DWIDTH 13 0
BBX 11 2 1 0
BITMAP
CC60
CC60
ENDCHAR
STARTCHAR 2027
ENCODING 8231
SWIDTH 240 0
DWIDTH 4 0
BBX 2 2 1 3
BITMAP
C0
C0
ENDCHAR
STARTCHAR 202F
ENCODING 8239
SWIDTH 240 0
DWIDTH 4 0
BBX 1 1 0 0
BITMAP
00
ENDCHAR
STARTCHAR 2030
ENCODING 8240
SWIDTH 1200 0
DWIDTH 20 0
BBX 19 13 1 -1
BITMAP
204000
D08000
888000
890000
890000
8AE1C0
549240
251220
091220
091220
119260
20A140
204080
ENDCHAR
STARTCHAR 2031
ENCODING 8241
SWIDTH 1620 0
DWIDTH 27 0
BBX 25 13 1 -1
BITMAP
20400000
D0800000
88800000
89000000
89000000
8AE1C700
54924C80
25122880
09122880
09122880
11926880
20A14500
20408200
ENDCHAR
STARTCHAR 2032
ENCODING 8242
SWIDTH 240 0
DWIDTH 4 0
BBX 3 4 1 8
BITMAP
20
40
40
80
ENDCHAR
STARTCHAR 2033
ENCODING 8243
SWIDTH 420 0
DWIDTH 7 0
BBX 6 4 1 8
BITMAP
24
48
48
90
ENDCHAR
STARTCHAR 2034
ENCODING 8244
SWIDTH 600 0
DWIDTH 10 0
BBX 8 4 1 8
BITMAP
25
4A
4A
94
ENDCHAR
STARTCHAR 2035
ENCODING 8245
SWIDTH 240 0
DWIDTH 4 0
BBX 3 4 1 8
BITMAP
80
40
40
20
ENDCHAR
STARTCHAR 2036
ENCODING 8246
SWIDTH 420 0
DWIDTH 7 0
BBX 6 4 1 8
BITMAP
90
48
48
24
ENDCHAR
STARTCHAR 2037
ENCODING 8247
SWIDTH 600 0
DWIDTH 10 0
BBX 9 4 1 8
BITMAP
9200
4900
4900
2480
ENDCHAR
STARTCHAR 2038
ENCODING 8248
SWIDTH 360 0
DWIDTH 6 0
BBX 4 4 1 -4
BITMAP
20
60
90
80
ENDCHAR
STARTCHAR 2039
ENCODING 8249
SWIDTH 240 0
DWIDTH 4 0
BBX 3 5 0 1
BITMAP
20
40
C0
40
20
ENDCHAR
STARTCHAR 203A
ENCODING 8250
SWIDTH 240 0
DWIDTH 4 0
BBX 3 7 0 0
BITMAP
80
40
20
20
20
40
80
ENDCHAR
STARTCHAR 203B
ENCODING 8251
SWIDTH 540 0
DWIDTH 9 0
BBX 8 13 1 -1
BITMAP
82
9A
54
64
28
9A
D3
38
28
44
5A
92
80
ENDCHAR
STARTCHAR 203C
ENCODING 8252
SWIDTH 420 0
DWIDTH 7 0
BBX 5 12 1 0
BITMAP
48
D8
D8
48
48
48
48
90
00
00
D8
D8
ENDCHAR
STARTCHAR 203D
ENCODING 8253
SWIDTH 240 0
DWIDTH 4 0
BBX 4 12 1 0
BITMAP
C0
E0
D0
50
70
60
40
40
00
00
C0
C0
ENDCHAR
STARTCHAR 203E
ENCODING 8254
SWIDTH 480 0
DWIDTH 8 0
BBX 9 1 0 13
BITMAP
FF80
ENDCHAR
STARTCHAR 203F
ENCODING 8255
SWIDTH 0 0
DWIDTH 0 0
BBX 10 3 -5 -5
BITMAP
8040
6180
1E00
ENDCHAR
STARTCHAR 2040
ENCODING 8256
SWIDTH 0 0
DWIDTH 0 0
BBX 8 2 -4 10
BITMAP
7E
81
ENDCHAR
STARTCHAR 2041
ENCODING 8257
SWIDTH 300 0
DWIDTH 5 0
BBX 5 9 0 -4
BITMAP
08
10
10
10
20
20
50
50
88
ENDCHAR
STARTCHAR 2042
ENCODING 8258
SWIDTH 840 0
DWIDTH 14 0
BBX 13 12 1 -3
BITMAP
0200
0F00
0600
0B80
0200
0000
0000
2020
F0F0
6060
B8B8
2020
ENDCHAR
STARTCHAR 2043
ENCODING 8259
SWIDTH 360 0
DWIDTH 6 0
BBX 5 1 1 4
BITMAP
F8
ENDCHAR
STARTCHAR 2044
ENCODING 8260
SWIDTH 540 0
DWIDTH 9 0
BBX 10 10 0 0
BITMAP
00C0
0180
0300
0200
0400
0800
1000
2000
4000
8000
ENDCHAR
STARTCHAR 2045
ENCODING 8261
SWIDTH 360 0
DWIDTH 6 0
BBX 4 16 2 -3
BITMAP
F0
C0
C0
C0
C0
C0
C0
C0
E0
C0
C0
C0
C0
C0
C0
F0
ENDCHAR
STARTCHAR 2046
ENCODING 8262
SWIDTH 480 0
DWIDTH 8 0
BBX 3 16 3 -3
BITMAP
E0
20
20
20
20
20
20
20
60
20
20
20
20
20
20
E0
ENDCHAR
STARTCHAR 2047
ENCODING 8263
SWIDTH 600 0
DWIDTH 10 0
BBX 7 11 2 0
BITMAP
CC
22
22
22
66
CC
88
00
00
88
CC
ENDCHAR
STARTCHAR 2048
ENCODING 8264
SWIDTH 540 0
DWIDTH 9 0
BBX 6 12 2 0
BITMAP
04
CC
2C
24
24
64
C4
88
00
00
8C
CC
ENDCHAR
STARTCHAR 2049
ENCODING 8265
SWIDTH 540 0
DWIDTH 9 0
BBX 7 12 1 0
BITMAP
40
CC
C2
42
42
46
4C
88
00
00
C8
CC
ENDCHAR
STARTCHAR 204A
ENCODING 8266
SWIDTH 420 0
DWIDTH 7 0
BBX 6 12 0 -5
BITMAP
FC
04
04
04
04
04
04
04
04
04
0C
18
ENDCHAR
STARTCHAR 204B
ENCODING 8267
SWIDTH 480 0
DWIDTH 8 0
BBX 7 13 1 -1
BITMAP
FC
BE
BE
BE
BE
BC
A0
A0
A0
A0
A0
B0
40
ENDCHAR
STARTCHAR 204C
ENCODING 8268
SWIDTH 480 0
DWIDTH 8 0
BBX 6 7 1 2
BITMAP
7C
F4
F4
F4
F4
74
08
ENDCHAR
STARTCHAR 204D
ENCODING 8269
SWIDTH 480 0
DWIDTH 8 0
BBX 7 7 0 2
BITMAP
7C
9E
9E
9E
9E
BC
40
ENDCHAR
STARTCHAR 204E
ENCODING 8270
SWIDTH 360 0
DWIDTH 6 0
BBX 5 5 1 1
BITMAP
20
F0
60
B8
20
ENDCHAR
STARTCHAR 204F
ENCODING 8271
SWIDTH 240 0
DWIDTH 4 0
BBX 3 10 1 -3
BITMAP
60
40
00
00
00
40
C0
80
80
40
ENDCHAR
STARTCHAR 2050
ENCODING 8272
SWIDTH 540 0
DWIDTH 9 0
BBX 7 9 1 -2
BITMAP
7C
82
00
00
00
00
02
44
38
ENDCHAR
STARTCHAR 2051
ENCODING 8273
SWIDTH 360 0
DWIDTH 6 0
BBX 5 12 1 -1
BITMAP
20
F0
60
B8
20
00
00
20
F0
60
B8
20
ENDCHAR
STARTCHAR 2052
ENCODING 8274
SWIDTH 420 0
DWIDTH 7 0
BBX 6 12 1 0
BITMAP
C4
C8
08
08
10
10
20
20
40
40
58
98
ENDCHAR
STARTCHAR 2057
ENCODING 8279
SWIDTH 660 0
DWIDTH 11 0
BBX 10 4 1 8
BITMAP
2940
5280
5280
A500
ENDCHAR
STARTCHAR 2058
ENCODING 8280
SWIDTH 480 0
DWIDTH 8 0
BBX 6 7 1 0
BITMAP
30
10
44
CC
00
10
30
ENDCHAR
STARTCHAR 205C
ENCODING 8284
SWIDTH 1020 0
DWIDTH 17 0
BBX 7 7 1 0
BITMAP
D6
52
10
FE
10
D6
D6
ENDCHAR
STARTCHAR 2070
ENCODING 8304
SWIDTH 240 0
DWIDTH 4 0
BBX 4 7 0 4
BITMAP
70
90
90
90
90
90
60
ENDCHAR
STARTCHAR 2071
ENCODING 8305
SWIDTH 120 0
DWIDTH 2 0
BBX 2 7 0 4
BITMAP
40
00
40
40
40
40
C0
ENDCHAR
STARTCHAR 2074
ENCODING 8308
SWIDTH 240 0
DWIDTH 4 0
BBX 4 7 0 4
BITMAP
20
20
50
90
F0
10
30
ENDCHAR
STARTCHAR 2075
ENCODING 8309
SWIDTH 240 0
DWIDTH 4 0
BBX 3 7 1 4
BITMAP
E0
80
C0
20
20
20
C0
ENDCHAR
STARTCHAR 2076
ENCODING 8310
SWIDTH 240 0
DWIDTH 4 0
BBX 4 6 0 4
BITMAP
60
40
70
90
90
60
ENDCHAR
STARTCHAR 2077
ENCODING 8311
SWIDTH 240 0
DWIDTH 4 0
BBX 4 7 0 4
BITMAP
70
90
10
20
20
40
40
ENDCHAR
STARTCHAR 2078
ENCODING 8312
SWIDTH 240 0
DWIDTH 4 0
BBX 4 7 0 4
BITMAP
70
90
50
20
D0
90
60
ENDCHAR
STARTCHAR 2079
ENCODING 8313
SWIDTH 240 0
DWIDTH 4 0
BBX 4 7 0 4
BITMAP
70
90
90
70
10
20
40
ENDCHAR
STARTCHAR 207A
ENCODING 8314
SWIDTH 300 0
DWIDTH 5 0
BBX 4 4 1 4
BITMAP
40
F0
40
40
ENDCHAR
STARTCHAR 207B
ENCODING 8315
SWIDTH 300 0
DWIDTH 5 0
BBX 4 1 1 6
BITMAP
F0
ENDCHAR
STARTCHAR 207C
ENCODING 8316
SWIDTH 300 0
DWIDTH 5 0
BBX 4 3 1 5
BITMAP
F0
00
60
ENDCHAR
STARTCHAR 207D
ENCODING 8317
SWIDTH 180 0
DWIDTH 3 0
BBX 3 9 1 3
BITMAP
20
40
80
80
80
80
80
40
20
ENDCHAR
STARTCHAR 207E
ENCODING 8318
SWIDTH 180 0
DWIDTH 3 0
BBX 3 9 0 3
BITMAP
80
40
20
20
20
20
20
40
80
ENDCHAR
STARTCHAR 207F
ENCODING 8319
SWIDTH 300 0
DWIDTH 5 0
BBX 5 5 0 4
BITMAP
70
50
50
50
D8
ENDCHAR
STARTCHAR 2080
ENCODING 8320
SWIDTH 240 0
DWIDTH 4 0
BBX 4 7 0 -3
BITMAP
70
90
90
90
90
50
20
ENDCHAR
STARTCHAR 2081
ENCODING 8321
SWIDTH 240 0
DWIDTH 4 0
BBX 3 7 1 -3
BITMAP
C0
40
40
40
40
40
20
ENDCHAR
STARTCHAR 2082
ENCODING 8322
SWIDTH 240 0
DWIDTH 4 0
BBX 4 7 0 -3
BITMAP
30
10
10
20
40
90
60
ENDCHAR
ENDFONT
